G75*
%MOIN*%
%OFA0B0*%
%FSLAX25Y25*%
%IPPOS*%
%LPD*%
%AMOC8*
5,1,8,0,0,1.08239X$1,22.5*
%
%ADD10C,0.00000*%
D10*
X0021800Y0006800D02*
X0021800Y0302076D01*
X0356446Y0302076D01*
X0356446Y0006800D01*
X0021800Y0006800D01*
X0328001Y0189300D02*
X0328003Y0189458D01*
X0328009Y0189616D01*
X0328019Y0189774D01*
X0328033Y0189932D01*
X0328051Y0190089D01*
X0328072Y0190246D01*
X0328098Y0190402D01*
X0328128Y0190558D01*
X0328161Y0190713D01*
X0328199Y0190866D01*
X0328240Y0191019D01*
X0328285Y0191171D01*
X0328334Y0191322D01*
X0328387Y0191471D01*
X0328443Y0191619D01*
X0328503Y0191765D01*
X0328567Y0191910D01*
X0328635Y0192053D01*
X0328706Y0192195D01*
X0328780Y0192335D01*
X0328858Y0192472D01*
X0328940Y0192608D01*
X0329024Y0192742D01*
X0329113Y0192873D01*
X0329204Y0193002D01*
X0329299Y0193129D01*
X0329396Y0193254D01*
X0329497Y0193376D01*
X0329601Y0193495D01*
X0329708Y0193612D01*
X0329818Y0193726D01*
X0329931Y0193837D01*
X0330046Y0193946D01*
X0330164Y0194051D01*
X0330285Y0194153D01*
X0330408Y0194253D01*
X0330534Y0194349D01*
X0330662Y0194442D01*
X0330792Y0194532D01*
X0330925Y0194618D01*
X0331060Y0194702D01*
X0331196Y0194781D01*
X0331335Y0194858D01*
X0331476Y0194930D01*
X0331618Y0195000D01*
X0331762Y0195065D01*
X0331908Y0195127D01*
X0332055Y0195185D01*
X0332204Y0195240D01*
X0332354Y0195291D01*
X0332505Y0195338D01*
X0332657Y0195381D01*
X0332810Y0195420D01*
X0332965Y0195456D01*
X0333120Y0195487D01*
X0333276Y0195515D01*
X0333432Y0195539D01*
X0333589Y0195559D01*
X0333747Y0195575D01*
X0333904Y0195587D01*
X0334063Y0195595D01*
X0334221Y0195599D01*
X0334379Y0195599D01*
X0334537Y0195595D01*
X0334696Y0195587D01*
X0334853Y0195575D01*
X0335011Y0195559D01*
X0335168Y0195539D01*
X0335324Y0195515D01*
X0335480Y0195487D01*
X0335635Y0195456D01*
X0335790Y0195420D01*
X0335943Y0195381D01*
X0336095Y0195338D01*
X0336246Y0195291D01*
X0336396Y0195240D01*
X0336545Y0195185D01*
X0336692Y0195127D01*
X0336838Y0195065D01*
X0336982Y0195000D01*
X0337124Y0194930D01*
X0337265Y0194858D01*
X0337404Y0194781D01*
X0337540Y0194702D01*
X0337675Y0194618D01*
X0337808Y0194532D01*
X0337938Y0194442D01*
X0338066Y0194349D01*
X0338192Y0194253D01*
X0338315Y0194153D01*
X0338436Y0194051D01*
X0338554Y0193946D01*
X0338669Y0193837D01*
X0338782Y0193726D01*
X0338892Y0193612D01*
X0338999Y0193495D01*
X0339103Y0193376D01*
X0339204Y0193254D01*
X0339301Y0193129D01*
X0339396Y0193002D01*
X0339487Y0192873D01*
X0339576Y0192742D01*
X0339660Y0192608D01*
X0339742Y0192472D01*
X0339820Y0192335D01*
X0339894Y0192195D01*
X0339965Y0192053D01*
X0340033Y0191910D01*
X0340097Y0191765D01*
X0340157Y0191619D01*
X0340213Y0191471D01*
X0340266Y0191322D01*
X0340315Y0191171D01*
X0340360Y0191019D01*
X0340401Y0190866D01*
X0340439Y0190713D01*
X0340472Y0190558D01*
X0340502Y0190402D01*
X0340528Y0190246D01*
X0340549Y0190089D01*
X0340567Y0189932D01*
X0340581Y0189774D01*
X0340591Y0189616D01*
X0340597Y0189458D01*
X0340599Y0189300D01*
X0340597Y0189142D01*
X0340591Y0188984D01*
X0340581Y0188826D01*
X0340567Y0188668D01*
X0340549Y0188511D01*
X0340528Y0188354D01*
X0340502Y0188198D01*
X0340472Y0188042D01*
X0340439Y0187887D01*
X0340401Y0187734D01*
X0340360Y0187581D01*
X0340315Y0187429D01*
X0340266Y0187278D01*
X0340213Y0187129D01*
X0340157Y0186981D01*
X0340097Y0186835D01*
X0340033Y0186690D01*
X0339965Y0186547D01*
X0339894Y0186405D01*
X0339820Y0186265D01*
X0339742Y0186128D01*
X0339660Y0185992D01*
X0339576Y0185858D01*
X0339487Y0185727D01*
X0339396Y0185598D01*
X0339301Y0185471D01*
X0339204Y0185346D01*
X0339103Y0185224D01*
X0338999Y0185105D01*
X0338892Y0184988D01*
X0338782Y0184874D01*
X0338669Y0184763D01*
X0338554Y0184654D01*
X0338436Y0184549D01*
X0338315Y0184447D01*
X0338192Y0184347D01*
X0338066Y0184251D01*
X0337938Y0184158D01*
X0337808Y0184068D01*
X0337675Y0183982D01*
X0337540Y0183898D01*
X0337404Y0183819D01*
X0337265Y0183742D01*
X0337124Y0183670D01*
X0336982Y0183600D01*
X0336838Y0183535D01*
X0336692Y0183473D01*
X0336545Y0183415D01*
X0336396Y0183360D01*
X0336246Y0183309D01*
X0336095Y0183262D01*
X0335943Y0183219D01*
X0335790Y0183180D01*
X0335635Y0183144D01*
X0335480Y0183113D01*
X0335324Y0183085D01*
X0335168Y0183061D01*
X0335011Y0183041D01*
X0334853Y0183025D01*
X0334696Y0183013D01*
X0334537Y0183005D01*
X0334379Y0183001D01*
X0334221Y0183001D01*
X0334063Y0183005D01*
X0333904Y0183013D01*
X0333747Y0183025D01*
X0333589Y0183041D01*
X0333432Y0183061D01*
X0333276Y0183085D01*
X0333120Y0183113D01*
X0332965Y0183144D01*
X0332810Y0183180D01*
X0332657Y0183219D01*
X0332505Y0183262D01*
X0332354Y0183309D01*
X0332204Y0183360D01*
X0332055Y0183415D01*
X0331908Y0183473D01*
X0331762Y0183535D01*
X0331618Y0183600D01*
X0331476Y0183670D01*
X0331335Y0183742D01*
X0331196Y0183819D01*
X0331060Y0183898D01*
X0330925Y0183982D01*
X0330792Y0184068D01*
X0330662Y0184158D01*
X0330534Y0184251D01*
X0330408Y0184347D01*
X0330285Y0184447D01*
X0330164Y0184549D01*
X0330046Y0184654D01*
X0329931Y0184763D01*
X0329818Y0184874D01*
X0329708Y0184988D01*
X0329601Y0185105D01*
X0329497Y0185224D01*
X0329396Y0185346D01*
X0329299Y0185471D01*
X0329204Y0185598D01*
X0329113Y0185727D01*
X0329024Y0185858D01*
X0328940Y0185992D01*
X0328858Y0186128D01*
X0328780Y0186265D01*
X0328706Y0186405D01*
X0328635Y0186547D01*
X0328567Y0186690D01*
X0328503Y0186835D01*
X0328443Y0186981D01*
X0328387Y0187129D01*
X0328334Y0187278D01*
X0328285Y0187429D01*
X0328240Y0187581D01*
X0328199Y0187734D01*
X0328161Y0187887D01*
X0328128Y0188042D01*
X0328098Y0188198D01*
X0328072Y0188354D01*
X0328051Y0188511D01*
X0328033Y0188668D01*
X0328019Y0188826D01*
X0328009Y0188984D01*
X0328003Y0189142D01*
X0328001Y0189300D01*
X0328001Y0234300D02*
X0328003Y0234458D01*
X0328009Y0234616D01*
X0328019Y0234774D01*
X0328033Y0234932D01*
X0328051Y0235089D01*
X0328072Y0235246D01*
X0328098Y0235402D01*
X0328128Y0235558D01*
X0328161Y0235713D01*
X0328199Y0235866D01*
X0328240Y0236019D01*
X0328285Y0236171D01*
X0328334Y0236322D01*
X0328387Y0236471D01*
X0328443Y0236619D01*
X0328503Y0236765D01*
X0328567Y0236910D01*
X0328635Y0237053D01*
X0328706Y0237195D01*
X0328780Y0237335D01*
X0328858Y0237472D01*
X0328940Y0237608D01*
X0329024Y0237742D01*
X0329113Y0237873D01*
X0329204Y0238002D01*
X0329299Y0238129D01*
X0329396Y0238254D01*
X0329497Y0238376D01*
X0329601Y0238495D01*
X0329708Y0238612D01*
X0329818Y0238726D01*
X0329931Y0238837D01*
X0330046Y0238946D01*
X0330164Y0239051D01*
X0330285Y0239153D01*
X0330408Y0239253D01*
X0330534Y0239349D01*
X0330662Y0239442D01*
X0330792Y0239532D01*
X0330925Y0239618D01*
X0331060Y0239702D01*
X0331196Y0239781D01*
X0331335Y0239858D01*
X0331476Y0239930D01*
X0331618Y0240000D01*
X0331762Y0240065D01*
X0331908Y0240127D01*
X0332055Y0240185D01*
X0332204Y0240240D01*
X0332354Y0240291D01*
X0332505Y0240338D01*
X0332657Y0240381D01*
X0332810Y0240420D01*
X0332965Y0240456D01*
X0333120Y0240487D01*
X0333276Y0240515D01*
X0333432Y0240539D01*
X0333589Y0240559D01*
X0333747Y0240575D01*
X0333904Y0240587D01*
X0334063Y0240595D01*
X0334221Y0240599D01*
X0334379Y0240599D01*
X0334537Y0240595D01*
X0334696Y0240587D01*
X0334853Y0240575D01*
X0335011Y0240559D01*
X0335168Y0240539D01*
X0335324Y0240515D01*
X0335480Y0240487D01*
X0335635Y0240456D01*
X0335790Y0240420D01*
X0335943Y0240381D01*
X0336095Y0240338D01*
X0336246Y0240291D01*
X0336396Y0240240D01*
X0336545Y0240185D01*
X0336692Y0240127D01*
X0336838Y0240065D01*
X0336982Y0240000D01*
X0337124Y0239930D01*
X0337265Y0239858D01*
X0337404Y0239781D01*
X0337540Y0239702D01*
X0337675Y0239618D01*
X0337808Y0239532D01*
X0337938Y0239442D01*
X0338066Y0239349D01*
X0338192Y0239253D01*
X0338315Y0239153D01*
X0338436Y0239051D01*
X0338554Y0238946D01*
X0338669Y0238837D01*
X0338782Y0238726D01*
X0338892Y0238612D01*
X0338999Y0238495D01*
X0339103Y0238376D01*
X0339204Y0238254D01*
X0339301Y0238129D01*
X0339396Y0238002D01*
X0339487Y0237873D01*
X0339576Y0237742D01*
X0339660Y0237608D01*
X0339742Y0237472D01*
X0339820Y0237335D01*
X0339894Y0237195D01*
X0339965Y0237053D01*
X0340033Y0236910D01*
X0340097Y0236765D01*
X0340157Y0236619D01*
X0340213Y0236471D01*
X0340266Y0236322D01*
X0340315Y0236171D01*
X0340360Y0236019D01*
X0340401Y0235866D01*
X0340439Y0235713D01*
X0340472Y0235558D01*
X0340502Y0235402D01*
X0340528Y0235246D01*
X0340549Y0235089D01*
X0340567Y0234932D01*
X0340581Y0234774D01*
X0340591Y0234616D01*
X0340597Y0234458D01*
X0340599Y0234300D01*
X0340597Y0234142D01*
X0340591Y0233984D01*
X0340581Y0233826D01*
X0340567Y0233668D01*
X0340549Y0233511D01*
X0340528Y0233354D01*
X0340502Y0233198D01*
X0340472Y0233042D01*
X0340439Y0232887D01*
X0340401Y0232734D01*
X0340360Y0232581D01*
X0340315Y0232429D01*
X0340266Y0232278D01*
X0340213Y0232129D01*
X0340157Y0231981D01*
X0340097Y0231835D01*
X0340033Y0231690D01*
X0339965Y0231547D01*
X0339894Y0231405D01*
X0339820Y0231265D01*
X0339742Y0231128D01*
X0339660Y0230992D01*
X0339576Y0230858D01*
X0339487Y0230727D01*
X0339396Y0230598D01*
X0339301Y0230471D01*
X0339204Y0230346D01*
X0339103Y0230224D01*
X0338999Y0230105D01*
X0338892Y0229988D01*
X0338782Y0229874D01*
X0338669Y0229763D01*
X0338554Y0229654D01*
X0338436Y0229549D01*
X0338315Y0229447D01*
X0338192Y0229347D01*
X0338066Y0229251D01*
X0337938Y0229158D01*
X0337808Y0229068D01*
X0337675Y0228982D01*
X0337540Y0228898D01*
X0337404Y0228819D01*
X0337265Y0228742D01*
X0337124Y0228670D01*
X0336982Y0228600D01*
X0336838Y0228535D01*
X0336692Y0228473D01*
X0336545Y0228415D01*
X0336396Y0228360D01*
X0336246Y0228309D01*
X0336095Y0228262D01*
X0335943Y0228219D01*
X0335790Y0228180D01*
X0335635Y0228144D01*
X0335480Y0228113D01*
X0335324Y0228085D01*
X0335168Y0228061D01*
X0335011Y0228041D01*
X0334853Y0228025D01*
X0334696Y0228013D01*
X0334537Y0228005D01*
X0334379Y0228001D01*
X0334221Y0228001D01*
X0334063Y0228005D01*
X0333904Y0228013D01*
X0333747Y0228025D01*
X0333589Y0228041D01*
X0333432Y0228061D01*
X0333276Y0228085D01*
X0333120Y0228113D01*
X0332965Y0228144D01*
X0332810Y0228180D01*
X0332657Y0228219D01*
X0332505Y0228262D01*
X0332354Y0228309D01*
X0332204Y0228360D01*
X0332055Y0228415D01*
X0331908Y0228473D01*
X0331762Y0228535D01*
X0331618Y0228600D01*
X0331476Y0228670D01*
X0331335Y0228742D01*
X0331196Y0228819D01*
X0331060Y0228898D01*
X0330925Y0228982D01*
X0330792Y0229068D01*
X0330662Y0229158D01*
X0330534Y0229251D01*
X0330408Y0229347D01*
X0330285Y0229447D01*
X0330164Y0229549D01*
X0330046Y0229654D01*
X0329931Y0229763D01*
X0329818Y0229874D01*
X0329708Y0229988D01*
X0329601Y0230105D01*
X0329497Y0230224D01*
X0329396Y0230346D01*
X0329299Y0230471D01*
X0329204Y0230598D01*
X0329113Y0230727D01*
X0329024Y0230858D01*
X0328940Y0230992D01*
X0328858Y0231128D01*
X0328780Y0231265D01*
X0328706Y0231405D01*
X0328635Y0231547D01*
X0328567Y0231690D01*
X0328503Y0231835D01*
X0328443Y0231981D01*
X0328387Y0232129D01*
X0328334Y0232278D01*
X0328285Y0232429D01*
X0328240Y0232581D01*
X0328199Y0232734D01*
X0328161Y0232887D01*
X0328128Y0233042D01*
X0328098Y0233198D01*
X0328072Y0233354D01*
X0328051Y0233511D01*
X0328033Y0233668D01*
X0328019Y0233826D01*
X0328009Y0233984D01*
X0328003Y0234142D01*
X0328001Y0234300D01*
M02*
