%
M48
M72
T01C0.0236
T02C0.0315
T03C0.0394
T04C0.0400
T05C0.0630
T06C0.1260
%
T01
X20930Y14680
X24930Y8430
X27430Y8430
X28680Y20680
T02
X9180Y21430
X9180Y20430
X9180Y19430
X9180Y18430
X9180Y17430
X9180Y16430
X9180Y15430
X9180Y14430
X9180Y13430
X9180Y12430
X9180Y11430
X9180Y10430
X9180Y9430
X9180Y8430
X9180Y7430
X9180Y6430
X18180Y6430
X18180Y7430
X18180Y8430
X18180Y9430
X18180Y10430
X18180Y11430
X18180Y12430
X18180Y13430
X18180Y14430
X18180Y15430
X18180Y16430
X18180Y17430
X18180Y18430
X18180Y19430
X18180Y20430
X18180Y21430
T03
X29930Y22430
X29930Y21430
X29930Y20430
X30930Y19930
X30930Y20930
X30930Y21930
X30930Y22930
X29930Y19430
T04
X9448Y27211
X10448Y27211
X11448Y27211
X12448Y27211
X13448Y27211
X14448Y27211
X15448Y27211
X16448Y27211
X17448Y27211
X18448Y27211
X19448Y27211
X20448Y27211
X21448Y27211
X22448Y27211
X23448Y27211
X24448Y27211
X25448Y27211
X26448Y27211
X27448Y27211
X28448Y27211
X28030Y3078
X27030Y3078
X26030Y3078
X11023Y3078
X10023Y3078
X9023Y3078
X4711Y8916
X3711Y8916
X3711Y9916
X3711Y10916
X3711Y11916
X3711Y12916
X4711Y12916
X4711Y11916
X4711Y10916
X4711Y9916
X4711Y13916
X3711Y13916
X3711Y14916
X3711Y15916
X3711Y16916
X4711Y16916
X4711Y15916
X4711Y14916
X4711Y17916
X3711Y17916
X3711Y18916
X3711Y19916
X4711Y19916
X4711Y18916
T05
X34611Y24231
X34611Y18129
T06
X33430Y23430
X33430Y18930
M30
