G75*
%MOIN*%
%OFA0B0*%
%FSLAX25Y25*%
%IPPOS*%
%LPD*%
%AMOC8*
5,1,8,0,0,1.08239X$1,22.5*
%
%ADD10C,0.00000*%
%ADD11C,0.00600*%
%ADD12C,0.00500*%
%ADD13C,0.00800*%
%ADD14C,0.00400*%
D10*
X0021800Y0006800D02*
X0021800Y0302076D01*
X0356446Y0302076D01*
X0356446Y0006800D01*
X0021800Y0006800D01*
X0328001Y0189300D02*
X0328003Y0189458D01*
X0328009Y0189616D01*
X0328019Y0189774D01*
X0328033Y0189932D01*
X0328051Y0190089D01*
X0328072Y0190246D01*
X0328098Y0190402D01*
X0328128Y0190558D01*
X0328161Y0190713D01*
X0328199Y0190866D01*
X0328240Y0191019D01*
X0328285Y0191171D01*
X0328334Y0191322D01*
X0328387Y0191471D01*
X0328443Y0191619D01*
X0328503Y0191765D01*
X0328567Y0191910D01*
X0328635Y0192053D01*
X0328706Y0192195D01*
X0328780Y0192335D01*
X0328858Y0192472D01*
X0328940Y0192608D01*
X0329024Y0192742D01*
X0329113Y0192873D01*
X0329204Y0193002D01*
X0329299Y0193129D01*
X0329396Y0193254D01*
X0329497Y0193376D01*
X0329601Y0193495D01*
X0329708Y0193612D01*
X0329818Y0193726D01*
X0329931Y0193837D01*
X0330046Y0193946D01*
X0330164Y0194051D01*
X0330285Y0194153D01*
X0330408Y0194253D01*
X0330534Y0194349D01*
X0330662Y0194442D01*
X0330792Y0194532D01*
X0330925Y0194618D01*
X0331060Y0194702D01*
X0331196Y0194781D01*
X0331335Y0194858D01*
X0331476Y0194930D01*
X0331618Y0195000D01*
X0331762Y0195065D01*
X0331908Y0195127D01*
X0332055Y0195185D01*
X0332204Y0195240D01*
X0332354Y0195291D01*
X0332505Y0195338D01*
X0332657Y0195381D01*
X0332810Y0195420D01*
X0332965Y0195456D01*
X0333120Y0195487D01*
X0333276Y0195515D01*
X0333432Y0195539D01*
X0333589Y0195559D01*
X0333747Y0195575D01*
X0333904Y0195587D01*
X0334063Y0195595D01*
X0334221Y0195599D01*
X0334379Y0195599D01*
X0334537Y0195595D01*
X0334696Y0195587D01*
X0334853Y0195575D01*
X0335011Y0195559D01*
X0335168Y0195539D01*
X0335324Y0195515D01*
X0335480Y0195487D01*
X0335635Y0195456D01*
X0335790Y0195420D01*
X0335943Y0195381D01*
X0336095Y0195338D01*
X0336246Y0195291D01*
X0336396Y0195240D01*
X0336545Y0195185D01*
X0336692Y0195127D01*
X0336838Y0195065D01*
X0336982Y0195000D01*
X0337124Y0194930D01*
X0337265Y0194858D01*
X0337404Y0194781D01*
X0337540Y0194702D01*
X0337675Y0194618D01*
X0337808Y0194532D01*
X0337938Y0194442D01*
X0338066Y0194349D01*
X0338192Y0194253D01*
X0338315Y0194153D01*
X0338436Y0194051D01*
X0338554Y0193946D01*
X0338669Y0193837D01*
X0338782Y0193726D01*
X0338892Y0193612D01*
X0338999Y0193495D01*
X0339103Y0193376D01*
X0339204Y0193254D01*
X0339301Y0193129D01*
X0339396Y0193002D01*
X0339487Y0192873D01*
X0339576Y0192742D01*
X0339660Y0192608D01*
X0339742Y0192472D01*
X0339820Y0192335D01*
X0339894Y0192195D01*
X0339965Y0192053D01*
X0340033Y0191910D01*
X0340097Y0191765D01*
X0340157Y0191619D01*
X0340213Y0191471D01*
X0340266Y0191322D01*
X0340315Y0191171D01*
X0340360Y0191019D01*
X0340401Y0190866D01*
X0340439Y0190713D01*
X0340472Y0190558D01*
X0340502Y0190402D01*
X0340528Y0190246D01*
X0340549Y0190089D01*
X0340567Y0189932D01*
X0340581Y0189774D01*
X0340591Y0189616D01*
X0340597Y0189458D01*
X0340599Y0189300D01*
X0340597Y0189142D01*
X0340591Y0188984D01*
X0340581Y0188826D01*
X0340567Y0188668D01*
X0340549Y0188511D01*
X0340528Y0188354D01*
X0340502Y0188198D01*
X0340472Y0188042D01*
X0340439Y0187887D01*
X0340401Y0187734D01*
X0340360Y0187581D01*
X0340315Y0187429D01*
X0340266Y0187278D01*
X0340213Y0187129D01*
X0340157Y0186981D01*
X0340097Y0186835D01*
X0340033Y0186690D01*
X0339965Y0186547D01*
X0339894Y0186405D01*
X0339820Y0186265D01*
X0339742Y0186128D01*
X0339660Y0185992D01*
X0339576Y0185858D01*
X0339487Y0185727D01*
X0339396Y0185598D01*
X0339301Y0185471D01*
X0339204Y0185346D01*
X0339103Y0185224D01*
X0338999Y0185105D01*
X0338892Y0184988D01*
X0338782Y0184874D01*
X0338669Y0184763D01*
X0338554Y0184654D01*
X0338436Y0184549D01*
X0338315Y0184447D01*
X0338192Y0184347D01*
X0338066Y0184251D01*
X0337938Y0184158D01*
X0337808Y0184068D01*
X0337675Y0183982D01*
X0337540Y0183898D01*
X0337404Y0183819D01*
X0337265Y0183742D01*
X0337124Y0183670D01*
X0336982Y0183600D01*
X0336838Y0183535D01*
X0336692Y0183473D01*
X0336545Y0183415D01*
X0336396Y0183360D01*
X0336246Y0183309D01*
X0336095Y0183262D01*
X0335943Y0183219D01*
X0335790Y0183180D01*
X0335635Y0183144D01*
X0335480Y0183113D01*
X0335324Y0183085D01*
X0335168Y0183061D01*
X0335011Y0183041D01*
X0334853Y0183025D01*
X0334696Y0183013D01*
X0334537Y0183005D01*
X0334379Y0183001D01*
X0334221Y0183001D01*
X0334063Y0183005D01*
X0333904Y0183013D01*
X0333747Y0183025D01*
X0333589Y0183041D01*
X0333432Y0183061D01*
X0333276Y0183085D01*
X0333120Y0183113D01*
X0332965Y0183144D01*
X0332810Y0183180D01*
X0332657Y0183219D01*
X0332505Y0183262D01*
X0332354Y0183309D01*
X0332204Y0183360D01*
X0332055Y0183415D01*
X0331908Y0183473D01*
X0331762Y0183535D01*
X0331618Y0183600D01*
X0331476Y0183670D01*
X0331335Y0183742D01*
X0331196Y0183819D01*
X0331060Y0183898D01*
X0330925Y0183982D01*
X0330792Y0184068D01*
X0330662Y0184158D01*
X0330534Y0184251D01*
X0330408Y0184347D01*
X0330285Y0184447D01*
X0330164Y0184549D01*
X0330046Y0184654D01*
X0329931Y0184763D01*
X0329818Y0184874D01*
X0329708Y0184988D01*
X0329601Y0185105D01*
X0329497Y0185224D01*
X0329396Y0185346D01*
X0329299Y0185471D01*
X0329204Y0185598D01*
X0329113Y0185727D01*
X0329024Y0185858D01*
X0328940Y0185992D01*
X0328858Y0186128D01*
X0328780Y0186265D01*
X0328706Y0186405D01*
X0328635Y0186547D01*
X0328567Y0186690D01*
X0328503Y0186835D01*
X0328443Y0186981D01*
X0328387Y0187129D01*
X0328334Y0187278D01*
X0328285Y0187429D01*
X0328240Y0187581D01*
X0328199Y0187734D01*
X0328161Y0187887D01*
X0328128Y0188042D01*
X0328098Y0188198D01*
X0328072Y0188354D01*
X0328051Y0188511D01*
X0328033Y0188668D01*
X0328019Y0188826D01*
X0328009Y0188984D01*
X0328003Y0189142D01*
X0328001Y0189300D01*
X0328001Y0234300D02*
X0328003Y0234458D01*
X0328009Y0234616D01*
X0328019Y0234774D01*
X0328033Y0234932D01*
X0328051Y0235089D01*
X0328072Y0235246D01*
X0328098Y0235402D01*
X0328128Y0235558D01*
X0328161Y0235713D01*
X0328199Y0235866D01*
X0328240Y0236019D01*
X0328285Y0236171D01*
X0328334Y0236322D01*
X0328387Y0236471D01*
X0328443Y0236619D01*
X0328503Y0236765D01*
X0328567Y0236910D01*
X0328635Y0237053D01*
X0328706Y0237195D01*
X0328780Y0237335D01*
X0328858Y0237472D01*
X0328940Y0237608D01*
X0329024Y0237742D01*
X0329113Y0237873D01*
X0329204Y0238002D01*
X0329299Y0238129D01*
X0329396Y0238254D01*
X0329497Y0238376D01*
X0329601Y0238495D01*
X0329708Y0238612D01*
X0329818Y0238726D01*
X0329931Y0238837D01*
X0330046Y0238946D01*
X0330164Y0239051D01*
X0330285Y0239153D01*
X0330408Y0239253D01*
X0330534Y0239349D01*
X0330662Y0239442D01*
X0330792Y0239532D01*
X0330925Y0239618D01*
X0331060Y0239702D01*
X0331196Y0239781D01*
X0331335Y0239858D01*
X0331476Y0239930D01*
X0331618Y0240000D01*
X0331762Y0240065D01*
X0331908Y0240127D01*
X0332055Y0240185D01*
X0332204Y0240240D01*
X0332354Y0240291D01*
X0332505Y0240338D01*
X0332657Y0240381D01*
X0332810Y0240420D01*
X0332965Y0240456D01*
X0333120Y0240487D01*
X0333276Y0240515D01*
X0333432Y0240539D01*
X0333589Y0240559D01*
X0333747Y0240575D01*
X0333904Y0240587D01*
X0334063Y0240595D01*
X0334221Y0240599D01*
X0334379Y0240599D01*
X0334537Y0240595D01*
X0334696Y0240587D01*
X0334853Y0240575D01*
X0335011Y0240559D01*
X0335168Y0240539D01*
X0335324Y0240515D01*
X0335480Y0240487D01*
X0335635Y0240456D01*
X0335790Y0240420D01*
X0335943Y0240381D01*
X0336095Y0240338D01*
X0336246Y0240291D01*
X0336396Y0240240D01*
X0336545Y0240185D01*
X0336692Y0240127D01*
X0336838Y0240065D01*
X0336982Y0240000D01*
X0337124Y0239930D01*
X0337265Y0239858D01*
X0337404Y0239781D01*
X0337540Y0239702D01*
X0337675Y0239618D01*
X0337808Y0239532D01*
X0337938Y0239442D01*
X0338066Y0239349D01*
X0338192Y0239253D01*
X0338315Y0239153D01*
X0338436Y0239051D01*
X0338554Y0238946D01*
X0338669Y0238837D01*
X0338782Y0238726D01*
X0338892Y0238612D01*
X0338999Y0238495D01*
X0339103Y0238376D01*
X0339204Y0238254D01*
X0339301Y0238129D01*
X0339396Y0238002D01*
X0339487Y0237873D01*
X0339576Y0237742D01*
X0339660Y0237608D01*
X0339742Y0237472D01*
X0339820Y0237335D01*
X0339894Y0237195D01*
X0339965Y0237053D01*
X0340033Y0236910D01*
X0340097Y0236765D01*
X0340157Y0236619D01*
X0340213Y0236471D01*
X0340266Y0236322D01*
X0340315Y0236171D01*
X0340360Y0236019D01*
X0340401Y0235866D01*
X0340439Y0235713D01*
X0340472Y0235558D01*
X0340502Y0235402D01*
X0340528Y0235246D01*
X0340549Y0235089D01*
X0340567Y0234932D01*
X0340581Y0234774D01*
X0340591Y0234616D01*
X0340597Y0234458D01*
X0340599Y0234300D01*
X0340597Y0234142D01*
X0340591Y0233984D01*
X0340581Y0233826D01*
X0340567Y0233668D01*
X0340549Y0233511D01*
X0340528Y0233354D01*
X0340502Y0233198D01*
X0340472Y0233042D01*
X0340439Y0232887D01*
X0340401Y0232734D01*
X0340360Y0232581D01*
X0340315Y0232429D01*
X0340266Y0232278D01*
X0340213Y0232129D01*
X0340157Y0231981D01*
X0340097Y0231835D01*
X0340033Y0231690D01*
X0339965Y0231547D01*
X0339894Y0231405D01*
X0339820Y0231265D01*
X0339742Y0231128D01*
X0339660Y0230992D01*
X0339576Y0230858D01*
X0339487Y0230727D01*
X0339396Y0230598D01*
X0339301Y0230471D01*
X0339204Y0230346D01*
X0339103Y0230224D01*
X0338999Y0230105D01*
X0338892Y0229988D01*
X0338782Y0229874D01*
X0338669Y0229763D01*
X0338554Y0229654D01*
X0338436Y0229549D01*
X0338315Y0229447D01*
X0338192Y0229347D01*
X0338066Y0229251D01*
X0337938Y0229158D01*
X0337808Y0229068D01*
X0337675Y0228982D01*
X0337540Y0228898D01*
X0337404Y0228819D01*
X0337265Y0228742D01*
X0337124Y0228670D01*
X0336982Y0228600D01*
X0336838Y0228535D01*
X0336692Y0228473D01*
X0336545Y0228415D01*
X0336396Y0228360D01*
X0336246Y0228309D01*
X0336095Y0228262D01*
X0335943Y0228219D01*
X0335790Y0228180D01*
X0335635Y0228144D01*
X0335480Y0228113D01*
X0335324Y0228085D01*
X0335168Y0228061D01*
X0335011Y0228041D01*
X0334853Y0228025D01*
X0334696Y0228013D01*
X0334537Y0228005D01*
X0334379Y0228001D01*
X0334221Y0228001D01*
X0334063Y0228005D01*
X0333904Y0228013D01*
X0333747Y0228025D01*
X0333589Y0228041D01*
X0333432Y0228061D01*
X0333276Y0228085D01*
X0333120Y0228113D01*
X0332965Y0228144D01*
X0332810Y0228180D01*
X0332657Y0228219D01*
X0332505Y0228262D01*
X0332354Y0228309D01*
X0332204Y0228360D01*
X0332055Y0228415D01*
X0331908Y0228473D01*
X0331762Y0228535D01*
X0331618Y0228600D01*
X0331476Y0228670D01*
X0331335Y0228742D01*
X0331196Y0228819D01*
X0331060Y0228898D01*
X0330925Y0228982D01*
X0330792Y0229068D01*
X0330662Y0229158D01*
X0330534Y0229251D01*
X0330408Y0229347D01*
X0330285Y0229447D01*
X0330164Y0229549D01*
X0330046Y0229654D01*
X0329931Y0229763D01*
X0329818Y0229874D01*
X0329708Y0229988D01*
X0329601Y0230105D01*
X0329497Y0230224D01*
X0329396Y0230346D01*
X0329299Y0230471D01*
X0329204Y0230598D01*
X0329113Y0230727D01*
X0329024Y0230858D01*
X0328940Y0230992D01*
X0328858Y0231128D01*
X0328780Y0231265D01*
X0328706Y0231405D01*
X0328635Y0231547D01*
X0328567Y0231690D01*
X0328503Y0231835D01*
X0328443Y0231981D01*
X0328387Y0232129D01*
X0328334Y0232278D01*
X0328285Y0232429D01*
X0328240Y0232581D01*
X0328199Y0232734D01*
X0328161Y0232887D01*
X0328128Y0233042D01*
X0328098Y0233198D01*
X0328072Y0233354D01*
X0328051Y0233511D01*
X0328033Y0233668D01*
X0328019Y0233826D01*
X0328009Y0233984D01*
X0328003Y0234142D01*
X0328001Y0234300D01*
D11*
X0327164Y0259600D02*
X0322893Y0259600D01*
X0320718Y0261735D02*
X0318583Y0259600D01*
X0316448Y0261735D01*
X0316448Y0266005D01*
X0320718Y0266005D02*
X0320718Y0261735D01*
X0322893Y0263870D02*
X0322893Y0264938D01*
X0323961Y0266005D01*
X0326096Y0266005D01*
X0327164Y0264938D01*
X0322893Y0263870D02*
X0327164Y0259600D01*
X0329339Y0259600D02*
X0333609Y0259600D01*
X0331474Y0259600D02*
X0331474Y0266005D01*
X0333609Y0263870D01*
X0335784Y0262803D02*
X0340055Y0262803D01*
X0342230Y0262803D02*
X0345432Y0262803D01*
X0346500Y0263870D01*
X0346500Y0264938D01*
X0345432Y0266005D01*
X0343297Y0266005D01*
X0342230Y0264938D01*
X0342230Y0260668D01*
X0343297Y0259600D01*
X0345432Y0259600D01*
X0346500Y0260668D01*
X0307827Y0261735D02*
X0304624Y0261735D01*
X0303557Y0262803D01*
X0303557Y0264938D01*
X0304624Y0266005D01*
X0307827Y0266005D01*
X0307827Y0259600D01*
X0301382Y0260668D02*
X0300314Y0259600D01*
X0298179Y0259600D01*
X0297111Y0260668D01*
X0297111Y0264938D01*
X0298179Y0266005D01*
X0300314Y0266005D01*
X0301382Y0264938D01*
X0301382Y0260668D01*
X0294936Y0259600D02*
X0290666Y0259600D01*
X0292801Y0262803D02*
X0294936Y0262803D01*
X0294936Y0266005D02*
X0290666Y0266005D01*
X0294936Y0266005D02*
X0294936Y0259600D01*
X0076505Y0145904D02*
X0070100Y0145904D01*
X0070100Y0142702D01*
X0071168Y0141634D01*
X0073303Y0141634D01*
X0074370Y0142702D01*
X0074370Y0145904D01*
X0074370Y0148079D02*
X0071168Y0148079D01*
X0070100Y0149147D01*
X0071168Y0150215D01*
X0070100Y0151282D01*
X0071168Y0152350D01*
X0074370Y0152350D01*
X0074370Y0155593D02*
X0074370Y0157728D01*
X0073303Y0158795D01*
X0070100Y0158795D01*
X0070100Y0155593D01*
X0071168Y0154525D01*
X0072235Y0155593D01*
X0072235Y0158795D01*
X0072235Y0160970D02*
X0074370Y0163106D01*
X0074370Y0164173D01*
X0073303Y0166342D02*
X0074370Y0167409D01*
X0074370Y0169544D01*
X0073303Y0170612D01*
X0072235Y0170612D01*
X0072235Y0166342D01*
X0071168Y0166342D02*
X0073303Y0166342D01*
X0071168Y0166342D02*
X0070100Y0167409D01*
X0070100Y0169544D01*
X0066005Y0170639D02*
X0066005Y0171706D01*
X0059600Y0171706D01*
X0059600Y0170639D02*
X0059600Y0172774D01*
X0059600Y0168464D02*
X0063870Y0168464D01*
X0059600Y0168464D02*
X0059600Y0165261D01*
X0060668Y0164193D01*
X0063870Y0164193D01*
X0066005Y0162018D02*
X0059600Y0157748D01*
X0059600Y0155579D02*
X0061735Y0152376D01*
X0063870Y0155579D01*
X0066005Y0152376D02*
X0059600Y0152376D01*
X0059600Y0150201D02*
X0059600Y0146999D01*
X0060668Y0145931D01*
X0062803Y0145931D01*
X0063870Y0146999D01*
X0063870Y0150201D01*
X0062803Y0143756D02*
X0061735Y0143756D01*
X0061735Y0139485D01*
X0060668Y0139485D02*
X0062803Y0139485D01*
X0063870Y0140553D01*
X0063870Y0142688D01*
X0062803Y0143756D01*
X0059600Y0142688D02*
X0059600Y0140553D01*
X0060668Y0139485D01*
X0059600Y0137324D02*
X0060668Y0136256D01*
X0064938Y0136256D01*
X0063870Y0135188D02*
X0063870Y0137324D01*
X0062803Y0133013D02*
X0059600Y0133013D01*
X0062803Y0133013D02*
X0063870Y0131946D01*
X0063870Y0128743D01*
X0059600Y0128743D01*
X0059600Y0126568D02*
X0059600Y0123365D01*
X0060668Y0122297D01*
X0061735Y0123365D01*
X0061735Y0126568D01*
X0062803Y0126568D02*
X0059600Y0126568D01*
X0062803Y0126568D02*
X0063870Y0125500D01*
X0063870Y0123365D01*
X0063870Y0120122D02*
X0058532Y0120122D01*
X0057465Y0119055D01*
X0057465Y0117987D01*
X0059600Y0116920D02*
X0059600Y0120122D01*
X0059600Y0116920D02*
X0060668Y0115852D01*
X0063870Y0115852D01*
X0063870Y0113683D02*
X0063870Y0112616D01*
X0061735Y0110481D01*
X0059600Y0110481D02*
X0063870Y0110481D01*
X0066005Y0108306D02*
X0059600Y0104035D01*
X0059600Y0101860D02*
X0062803Y0101860D01*
X0063870Y0100792D01*
X0062803Y0099725D01*
X0059600Y0099725D01*
X0059600Y0097590D02*
X0063870Y0097590D01*
X0063870Y0098657D01*
X0062803Y0099725D01*
X0062803Y0095415D02*
X0063870Y0094347D01*
X0063870Y0092212D01*
X0062803Y0091144D01*
X0060668Y0091144D01*
X0059600Y0092212D01*
X0059600Y0094347D01*
X0060668Y0095415D01*
X0062803Y0095415D01*
X0063870Y0088969D02*
X0063870Y0085766D01*
X0062803Y0084699D01*
X0060668Y0084699D01*
X0059600Y0085766D01*
X0059600Y0088969D01*
X0059600Y0082544D02*
X0059600Y0081476D01*
X0060668Y0081476D01*
X0060668Y0082544D01*
X0059600Y0082544D01*
X0060668Y0079301D02*
X0062803Y0079301D01*
X0063870Y0078233D01*
X0063870Y0075030D01*
X0066005Y0075030D02*
X0059600Y0075030D01*
X0059600Y0078233D01*
X0060668Y0079301D01*
X0059600Y0072855D02*
X0063870Y0072855D01*
X0059600Y0072855D02*
X0059600Y0069653D01*
X0060668Y0068585D01*
X0063870Y0068585D01*
X0062803Y0066410D02*
X0059600Y0066410D01*
X0062803Y0066410D02*
X0063870Y0065342D01*
X0063870Y0063207D01*
X0062803Y0062139D01*
X0063870Y0059978D02*
X0063870Y0057842D01*
X0064938Y0058910D02*
X0060668Y0058910D01*
X0059600Y0059978D01*
X0059600Y0062139D02*
X0066005Y0062139D01*
X0070100Y0063194D02*
X0070100Y0061059D01*
X0071168Y0059991D01*
X0073303Y0059991D01*
X0074370Y0061059D01*
X0074370Y0063194D01*
X0073303Y0064261D01*
X0072235Y0064261D01*
X0072235Y0059991D01*
X0071168Y0057816D02*
X0070100Y0056748D01*
X0070100Y0053545D01*
X0067965Y0053545D02*
X0074370Y0053545D01*
X0074370Y0056748D01*
X0073303Y0057816D01*
X0071168Y0057816D01*
X0067073Y0054613D02*
X0066005Y0054613D01*
X0063870Y0054613D02*
X0059600Y0054613D01*
X0059600Y0053545D02*
X0059600Y0055681D01*
X0063870Y0054613D02*
X0063870Y0053545D01*
X0062803Y0051370D02*
X0062803Y0049235D01*
X0062803Y0051370D02*
X0060668Y0051370D01*
X0059600Y0050303D01*
X0059600Y0048168D01*
X0060668Y0047100D01*
X0064938Y0047100D01*
X0066005Y0048168D01*
X0066005Y0050303D01*
X0064938Y0051370D01*
X0070100Y0050303D02*
X0070100Y0048168D01*
X0071168Y0047100D01*
X0075438Y0047100D01*
X0076505Y0048168D01*
X0076505Y0050303D01*
X0075438Y0051370D01*
X0071168Y0051370D01*
X0070100Y0050303D01*
X0070100Y0066436D02*
X0074370Y0066436D01*
X0074370Y0069639D01*
X0073303Y0070707D01*
X0070100Y0070707D01*
X0071168Y0079327D02*
X0070100Y0080395D01*
X0070100Y0082530D01*
X0071168Y0083598D01*
X0072235Y0083598D01*
X0073303Y0082530D01*
X0073303Y0080395D01*
X0074370Y0079327D01*
X0075438Y0079327D01*
X0076505Y0080395D01*
X0076505Y0082530D01*
X0075438Y0083598D01*
X0073303Y0085773D02*
X0074370Y0086841D01*
X0074370Y0088976D01*
X0073303Y0090043D01*
X0071168Y0090043D01*
X0070100Y0088976D01*
X0070100Y0086841D01*
X0071168Y0085773D01*
X0073303Y0085773D01*
X0074370Y0092218D02*
X0071168Y0092218D01*
X0070100Y0093286D01*
X0070100Y0096489D01*
X0074370Y0096489D01*
X0074370Y0098664D02*
X0070100Y0098664D01*
X0072235Y0098664D02*
X0074370Y0100799D01*
X0074370Y0101867D01*
X0073303Y0104035D02*
X0071168Y0104035D01*
X0070100Y0105103D01*
X0070100Y0108306D01*
X0071168Y0110481D02*
X0070100Y0111548D01*
X0070100Y0113683D01*
X0072235Y0114751D02*
X0072235Y0110481D01*
X0071168Y0110481D02*
X0073303Y0110481D01*
X0074370Y0111548D01*
X0074370Y0113683D01*
X0073303Y0114751D01*
X0072235Y0114751D01*
X0074370Y0108306D02*
X0074370Y0105103D01*
X0073303Y0104035D01*
X0073303Y0123372D02*
X0073303Y0127642D01*
X0071168Y0129817D02*
X0070100Y0130885D01*
X0070100Y0134088D01*
X0073303Y0134088D01*
X0074370Y0133020D01*
X0074370Y0130885D01*
X0072235Y0130885D02*
X0072235Y0134088D01*
X0072235Y0136263D02*
X0074370Y0138398D01*
X0074370Y0139465D01*
X0074370Y0136263D02*
X0070100Y0136263D01*
X0072235Y0130885D02*
X0071168Y0129817D01*
X0070100Y0127642D02*
X0076505Y0127642D01*
X0076505Y0123372D02*
X0070100Y0123372D01*
X0052115Y0121662D02*
X0052115Y0116662D01*
X0049615Y0114162D01*
X0034615Y0114162D01*
X0032115Y0111662D01*
X0032115Y0106662D01*
X0034615Y0104162D01*
X0049615Y0104162D01*
X0052115Y0106662D01*
X0052115Y0111662D01*
X0049615Y0114162D01*
X0052115Y0121662D02*
X0049615Y0124162D01*
X0034615Y0124162D01*
X0032115Y0121662D01*
X0032115Y0116662D01*
X0034615Y0114162D01*
X0034615Y0104162D02*
X0032115Y0101662D01*
X0032115Y0096662D01*
X0034615Y0094162D01*
X0032115Y0091662D01*
X0032115Y0086662D01*
X0034615Y0084162D01*
X0049615Y0084162D01*
X0052115Y0086662D01*
X0052115Y0091662D01*
X0049615Y0094162D01*
X0034615Y0094162D01*
X0049615Y0094162D02*
X0052115Y0096662D01*
X0052115Y0101662D01*
X0049615Y0104162D01*
X0049615Y0124162D02*
X0052115Y0126662D01*
X0052115Y0131662D01*
X0049615Y0134162D01*
X0034615Y0134162D01*
X0032115Y0131662D01*
X0032115Y0126662D01*
X0034615Y0124162D01*
X0034615Y0134162D02*
X0032115Y0136662D01*
X0032115Y0141662D01*
X0034615Y0144162D01*
X0049615Y0144162D01*
X0052115Y0141662D01*
X0052115Y0136662D01*
X0049615Y0134162D01*
X0049615Y0144162D02*
X0052115Y0146662D01*
X0052115Y0151662D01*
X0049615Y0154162D01*
X0034615Y0154162D01*
X0032115Y0151662D01*
X0032115Y0146662D01*
X0034615Y0144162D01*
X0034615Y0154162D02*
X0032115Y0156662D01*
X0032115Y0161662D01*
X0034615Y0164162D01*
X0049615Y0164162D01*
X0052115Y0161662D01*
X0052115Y0156662D01*
X0049615Y0154162D01*
X0049615Y0164162D02*
X0052115Y0166662D01*
X0052115Y0171662D01*
X0049615Y0174162D01*
X0034615Y0174162D01*
X0032115Y0171662D01*
X0032115Y0166662D01*
X0034615Y0164162D01*
X0034615Y0174162D02*
X0032115Y0176662D01*
X0032115Y0181662D01*
X0034615Y0184162D01*
X0049615Y0184162D01*
X0052115Y0181662D01*
X0052115Y0176662D01*
X0049615Y0174162D01*
X0049615Y0184162D02*
X0052115Y0186662D01*
X0052115Y0191662D01*
X0049615Y0194162D01*
X0034615Y0194162D01*
X0032115Y0191662D01*
X0032115Y0186662D01*
X0034615Y0184162D01*
X0034615Y0194162D02*
X0032115Y0196662D01*
X0032115Y0201662D01*
X0034615Y0204162D01*
X0049615Y0204162D01*
X0052115Y0201662D01*
X0052115Y0196662D01*
X0049615Y0194162D01*
X0059600Y0195340D02*
X0060668Y0194272D01*
X0062803Y0194272D01*
X0063870Y0195340D01*
X0063870Y0197475D01*
X0062803Y0198542D01*
X0060668Y0198542D01*
X0059600Y0197475D01*
X0059600Y0195340D01*
X0059600Y0192110D02*
X0059600Y0189975D01*
X0059600Y0191043D02*
X0066005Y0191043D01*
X0066005Y0189975D01*
X0062803Y0187800D02*
X0062803Y0183530D01*
X0063870Y0180300D02*
X0059600Y0180300D01*
X0059600Y0179233D02*
X0059600Y0181368D01*
X0059600Y0177071D02*
X0060668Y0176003D01*
X0064938Y0176003D01*
X0063870Y0174936D02*
X0063870Y0177071D01*
X0063870Y0179233D02*
X0063870Y0180300D01*
X0066005Y0180300D02*
X0067073Y0180300D01*
X0070100Y0160970D02*
X0074370Y0160970D01*
X0063870Y0200718D02*
X0059600Y0200718D01*
X0061735Y0200718D02*
X0063870Y0202853D01*
X0063870Y0203920D01*
X0063870Y0207156D02*
X0063870Y0209292D01*
X0062803Y0210359D01*
X0059600Y0210359D01*
X0059600Y0207156D01*
X0060668Y0206089D01*
X0061735Y0207156D01*
X0061735Y0210359D01*
X0062803Y0212534D02*
X0062803Y0216805D01*
X0063870Y0218980D02*
X0063870Y0222183D01*
X0062803Y0223250D01*
X0060668Y0223250D01*
X0059600Y0222183D01*
X0059600Y0218980D01*
X0066005Y0218980D01*
X0063870Y0226493D02*
X0063870Y0228628D01*
X0062803Y0229696D01*
X0059600Y0229696D01*
X0059600Y0226493D01*
X0060668Y0225425D01*
X0061735Y0226493D01*
X0061735Y0229696D01*
X0060668Y0231871D02*
X0059600Y0232938D01*
X0059600Y0236141D01*
X0059600Y0238316D02*
X0066005Y0238316D01*
X0063870Y0236141D02*
X0063870Y0232938D01*
X0062803Y0231871D01*
X0060668Y0231871D01*
X0061735Y0238316D02*
X0063870Y0241519D01*
X0063870Y0243688D02*
X0063870Y0246890D01*
X0062803Y0247958D01*
X0060668Y0247958D01*
X0059600Y0246890D01*
X0059600Y0243688D01*
X0057465Y0243688D02*
X0063870Y0243688D01*
X0059600Y0241519D02*
X0061735Y0238316D01*
X0059600Y0250133D02*
X0059600Y0252268D01*
X0059600Y0251201D02*
X0066005Y0251201D01*
X0066005Y0250133D01*
X0063870Y0255498D02*
X0063870Y0257633D01*
X0062803Y0258700D01*
X0059600Y0258700D01*
X0059600Y0255498D01*
X0060668Y0254430D01*
X0061735Y0255498D01*
X0061735Y0258700D01*
X0059600Y0260876D02*
X0063870Y0260876D01*
X0063870Y0264078D01*
X0062803Y0265146D01*
X0059600Y0265146D01*
X0060668Y0267321D02*
X0062803Y0267321D01*
X0063870Y0268389D01*
X0063870Y0270524D01*
X0062803Y0271591D01*
X0061735Y0271591D01*
X0061735Y0267321D01*
X0060668Y0267321D02*
X0059600Y0268389D01*
X0059600Y0270524D01*
D12*
X0091800Y0229300D02*
X0116800Y0229300D01*
X0116800Y0199300D01*
X0156800Y0199300D01*
X0156800Y0229300D01*
X0181800Y0229300D01*
X0182042Y0229297D01*
X0182283Y0229288D01*
X0182524Y0229274D01*
X0182765Y0229253D01*
X0183005Y0229227D01*
X0183245Y0229195D01*
X0183484Y0229157D01*
X0183721Y0229114D01*
X0183958Y0229064D01*
X0184193Y0229009D01*
X0184427Y0228949D01*
X0184659Y0228882D01*
X0184890Y0228811D01*
X0185119Y0228733D01*
X0185346Y0228650D01*
X0185571Y0228562D01*
X0185794Y0228468D01*
X0186014Y0228369D01*
X0186232Y0228264D01*
X0186447Y0228155D01*
X0186660Y0228040D01*
X0186870Y0227920D01*
X0187076Y0227795D01*
X0187280Y0227665D01*
X0187481Y0227530D01*
X0187678Y0227390D01*
X0187872Y0227246D01*
X0188062Y0227097D01*
X0188248Y0226943D01*
X0188431Y0226785D01*
X0188610Y0226623D01*
X0188785Y0226456D01*
X0188956Y0226285D01*
X0189123Y0226110D01*
X0189285Y0225931D01*
X0189443Y0225748D01*
X0189597Y0225562D01*
X0189746Y0225372D01*
X0189890Y0225178D01*
X0190030Y0224981D01*
X0190165Y0224780D01*
X0190295Y0224576D01*
X0190420Y0224370D01*
X0190540Y0224160D01*
X0190655Y0223947D01*
X0190764Y0223732D01*
X0190869Y0223514D01*
X0190968Y0223294D01*
X0191062Y0223071D01*
X0191150Y0222846D01*
X0191233Y0222619D01*
X0191311Y0222390D01*
X0191382Y0222159D01*
X0191449Y0221927D01*
X0191509Y0221693D01*
X0191564Y0221458D01*
X0191614Y0221221D01*
X0191657Y0220984D01*
X0191695Y0220745D01*
X0191727Y0220505D01*
X0191753Y0220265D01*
X0191774Y0220024D01*
X0191788Y0219783D01*
X0191797Y0219542D01*
X0191800Y0219300D01*
X0191800Y0054300D01*
X0186800Y0049300D01*
X0091800Y0049300D01*
X0091558Y0049303D01*
X0091317Y0049312D01*
X0091076Y0049326D01*
X0090835Y0049347D01*
X0090595Y0049373D01*
X0090355Y0049405D01*
X0090116Y0049443D01*
X0089879Y0049486D01*
X0089642Y0049536D01*
X0089407Y0049591D01*
X0089173Y0049651D01*
X0088941Y0049718D01*
X0088710Y0049789D01*
X0088481Y0049867D01*
X0088254Y0049950D01*
X0088029Y0050038D01*
X0087806Y0050132D01*
X0087586Y0050231D01*
X0087368Y0050336D01*
X0087153Y0050445D01*
X0086940Y0050560D01*
X0086730Y0050680D01*
X0086524Y0050805D01*
X0086320Y0050935D01*
X0086119Y0051070D01*
X0085922Y0051210D01*
X0085728Y0051354D01*
X0085538Y0051503D01*
X0085352Y0051657D01*
X0085169Y0051815D01*
X0084990Y0051977D01*
X0084815Y0052144D01*
X0084644Y0052315D01*
X0084477Y0052490D01*
X0084315Y0052669D01*
X0084157Y0052852D01*
X0084003Y0053038D01*
X0083854Y0053228D01*
X0083710Y0053422D01*
X0083570Y0053619D01*
X0083435Y0053820D01*
X0083305Y0054024D01*
X0083180Y0054230D01*
X0083060Y0054440D01*
X0082945Y0054653D01*
X0082836Y0054868D01*
X0082731Y0055086D01*
X0082632Y0055306D01*
X0082538Y0055529D01*
X0082450Y0055754D01*
X0082367Y0055981D01*
X0082289Y0056210D01*
X0082218Y0056441D01*
X0082151Y0056673D01*
X0082091Y0056907D01*
X0082036Y0057142D01*
X0081986Y0057379D01*
X0081943Y0057616D01*
X0081905Y0057855D01*
X0081873Y0058095D01*
X0081847Y0058335D01*
X0081826Y0058576D01*
X0081812Y0058817D01*
X0081803Y0059058D01*
X0081800Y0059300D01*
X0081800Y0219300D01*
X0081803Y0219542D01*
X0081812Y0219783D01*
X0081826Y0220024D01*
X0081847Y0220265D01*
X0081873Y0220505D01*
X0081905Y0220745D01*
X0081943Y0220984D01*
X0081986Y0221221D01*
X0082036Y0221458D01*
X0082091Y0221693D01*
X0082151Y0221927D01*
X0082218Y0222159D01*
X0082289Y0222390D01*
X0082367Y0222619D01*
X0082450Y0222846D01*
X0082538Y0223071D01*
X0082632Y0223294D01*
X0082731Y0223514D01*
X0082836Y0223732D01*
X0082945Y0223947D01*
X0083060Y0224160D01*
X0083180Y0224370D01*
X0083305Y0224576D01*
X0083435Y0224780D01*
X0083570Y0224981D01*
X0083710Y0225178D01*
X0083854Y0225372D01*
X0084003Y0225562D01*
X0084157Y0225748D01*
X0084315Y0225931D01*
X0084477Y0226110D01*
X0084644Y0226285D01*
X0084815Y0226456D01*
X0084990Y0226623D01*
X0085169Y0226785D01*
X0085352Y0226943D01*
X0085538Y0227097D01*
X0085728Y0227246D01*
X0085922Y0227390D01*
X0086119Y0227530D01*
X0086320Y0227665D01*
X0086524Y0227795D01*
X0086730Y0227920D01*
X0086940Y0228040D01*
X0087153Y0228155D01*
X0087368Y0228264D01*
X0087586Y0228369D01*
X0087806Y0228468D01*
X0088029Y0228562D01*
X0088254Y0228650D01*
X0088481Y0228733D01*
X0088710Y0228811D01*
X0088941Y0228882D01*
X0089173Y0228949D01*
X0089407Y0229009D01*
X0089642Y0229064D01*
X0089879Y0229114D01*
X0090116Y0229157D01*
X0090355Y0229195D01*
X0090595Y0229227D01*
X0090835Y0229253D01*
X0091076Y0229274D01*
X0091317Y0229288D01*
X0091558Y0229297D01*
X0091800Y0229300D01*
X0116800Y0229300D02*
X0156800Y0229300D01*
X0029369Y0201309D02*
X0027868Y0199808D01*
X0027868Y0198207D02*
X0027117Y0197456D01*
X0026366Y0198207D01*
X0025616Y0198207D01*
X0024865Y0197456D01*
X0024865Y0195955D01*
X0025616Y0195204D01*
X0025616Y0193603D02*
X0024865Y0192852D01*
X0024865Y0191351D01*
X0025616Y0190600D01*
X0026366Y0190600D01*
X0027117Y0191351D01*
X0027117Y0192852D01*
X0026366Y0193603D01*
X0025616Y0193603D01*
X0027117Y0192852D02*
X0027868Y0193603D01*
X0028618Y0193603D01*
X0029369Y0192852D01*
X0029369Y0191351D01*
X0028618Y0190600D01*
X0027868Y0190600D01*
X0027117Y0191351D01*
X0029369Y0188999D02*
X0026366Y0185996D01*
X0027117Y0186747D02*
X0024865Y0188999D01*
X0024865Y0185996D02*
X0029369Y0185996D01*
X0027868Y0184395D02*
X0024865Y0184395D01*
X0027117Y0184395D02*
X0027117Y0181393D01*
X0027868Y0181393D02*
X0029369Y0182894D01*
X0027868Y0184395D01*
X0027868Y0181393D02*
X0024865Y0181393D01*
X0024865Y0179791D02*
X0026366Y0178290D01*
X0026366Y0179041D02*
X0026366Y0176789D01*
X0024865Y0176789D02*
X0029369Y0176789D01*
X0029369Y0179041D01*
X0028618Y0179791D01*
X0027117Y0179791D01*
X0026366Y0179041D01*
X0028618Y0195204D02*
X0029369Y0195955D01*
X0029369Y0197456D01*
X0028618Y0198207D01*
X0027868Y0198207D01*
X0027117Y0197456D02*
X0027117Y0196706D01*
X0024865Y0199808D02*
X0024865Y0202811D01*
X0024865Y0201309D02*
X0029369Y0201309D01*
D13*
X0294930Y0181800D02*
X0370914Y0181800D01*
X0370914Y0241800D01*
X0294930Y0241800D01*
X0294930Y0181800D01*
D14*
X0151946Y0209500D02*
X0151946Y0214104D01*
X0148877Y0209500D01*
X0148877Y0214104D01*
X0146575Y0212569D02*
X0145041Y0212569D01*
X0144273Y0211802D01*
X0144273Y0209500D01*
X0146575Y0209500D01*
X0147343Y0210267D01*
X0146575Y0211035D01*
X0144273Y0211035D01*
X0142739Y0212569D02*
X0140437Y0212569D01*
X0139669Y0211802D01*
X0139669Y0209500D01*
X0138135Y0210267D02*
X0137367Y0209500D01*
X0135833Y0209500D01*
X0135065Y0210267D01*
X0135065Y0211802D01*
X0135833Y0212569D01*
X0137367Y0212569D01*
X0138135Y0211802D01*
X0138135Y0210267D01*
X0142739Y0209500D02*
X0142739Y0212569D01*
X0143506Y0206604D02*
X0141204Y0206604D01*
X0140437Y0205837D01*
X0140437Y0202767D01*
X0141204Y0202000D01*
X0143506Y0202000D01*
X0143506Y0206604D01*
X0138902Y0206604D02*
X0138902Y0202767D01*
X0138135Y0202000D01*
X0136600Y0202000D01*
X0135833Y0202767D01*
X0135833Y0206604D01*
X0134298Y0205837D02*
X0134298Y0202767D01*
X0133531Y0202000D01*
X0131996Y0202000D01*
X0131229Y0202767D01*
X0131229Y0205837D01*
X0131996Y0206604D01*
X0133531Y0206604D01*
X0134298Y0205837D01*
X0128927Y0209500D02*
X0128927Y0214104D01*
X0126625Y0214104D01*
X0125858Y0213337D01*
X0125858Y0211802D01*
X0126625Y0211035D01*
X0128927Y0211035D01*
X0124323Y0212569D02*
X0123556Y0212569D01*
X0123556Y0209500D01*
X0124323Y0209500D02*
X0122788Y0209500D01*
X0123556Y0214104D02*
X0123556Y0214871D01*
X0128927Y0220267D02*
X0129694Y0219500D01*
X0131996Y0219500D01*
X0131996Y0224104D01*
X0129694Y0224104D01*
X0128927Y0223337D01*
X0128927Y0222569D01*
X0129694Y0221802D01*
X0131996Y0221802D01*
X0133531Y0221035D02*
X0133531Y0220267D01*
X0134298Y0219500D01*
X0135833Y0219500D01*
X0136600Y0220267D01*
X0138135Y0220267D02*
X0138135Y0224104D01*
X0136600Y0223337D02*
X0136600Y0222569D01*
X0135833Y0221802D01*
X0134298Y0221802D01*
X0133531Y0221035D01*
X0133531Y0223337D02*
X0134298Y0224104D01*
X0135833Y0224104D01*
X0136600Y0223337D01*
X0138135Y0220267D02*
X0138902Y0219500D01*
X0140437Y0219500D01*
X0141204Y0220267D01*
X0141204Y0224104D01*
X0143506Y0222569D02*
X0142739Y0221802D01*
X0142739Y0219500D01*
X0144273Y0219500D02*
X0144273Y0221802D01*
X0143506Y0222569D01*
X0144273Y0221802D02*
X0145041Y0222569D01*
X0145808Y0222569D01*
X0145808Y0219500D01*
X0129694Y0221802D02*
X0128927Y0221035D01*
X0128927Y0220267D01*
M02*
