G75*
%MOIN*%
%OFA0B0*%
%FSLAX25Y25*%
%IPPOS*%
%LPD*%
%AMOC8*
5,1,8,0,0,1.08239X$1,22.5*
%
%ADD10C,0.00000*%
%ADD11C,0.12998*%
%ADD12OC8,0.06400*%
%ADD13C,0.06400*%
%ADD14C,0.07800*%
%ADD15R,0.07800X0.07800*%
%ADD16OC8,0.09849*%
%ADD17C,0.05550*%
D10*
X0021800Y0006800D02*
X0021800Y0302076D01*
X0356446Y0302076D01*
X0356446Y0006800D01*
X0021800Y0006800D01*
X0043218Y0030422D02*
X0043220Y0030580D01*
X0043226Y0030738D01*
X0043236Y0030896D01*
X0043250Y0031054D01*
X0043268Y0031211D01*
X0043289Y0031368D01*
X0043315Y0031524D01*
X0043345Y0031680D01*
X0043378Y0031835D01*
X0043416Y0031988D01*
X0043457Y0032141D01*
X0043502Y0032293D01*
X0043551Y0032444D01*
X0043604Y0032593D01*
X0043660Y0032741D01*
X0043720Y0032887D01*
X0043784Y0033032D01*
X0043852Y0033175D01*
X0043923Y0033317D01*
X0043997Y0033457D01*
X0044075Y0033594D01*
X0044157Y0033730D01*
X0044241Y0033864D01*
X0044330Y0033995D01*
X0044421Y0034124D01*
X0044516Y0034251D01*
X0044613Y0034376D01*
X0044714Y0034498D01*
X0044818Y0034617D01*
X0044925Y0034734D01*
X0045035Y0034848D01*
X0045148Y0034959D01*
X0045263Y0035068D01*
X0045381Y0035173D01*
X0045502Y0035275D01*
X0045625Y0035375D01*
X0045751Y0035471D01*
X0045879Y0035564D01*
X0046009Y0035654D01*
X0046142Y0035740D01*
X0046277Y0035824D01*
X0046413Y0035903D01*
X0046552Y0035980D01*
X0046693Y0036052D01*
X0046835Y0036122D01*
X0046979Y0036187D01*
X0047125Y0036249D01*
X0047272Y0036307D01*
X0047421Y0036362D01*
X0047571Y0036413D01*
X0047722Y0036460D01*
X0047874Y0036503D01*
X0048027Y0036542D01*
X0048182Y0036578D01*
X0048337Y0036609D01*
X0048493Y0036637D01*
X0048649Y0036661D01*
X0048806Y0036681D01*
X0048964Y0036697D01*
X0049121Y0036709D01*
X0049280Y0036717D01*
X0049438Y0036721D01*
X0049596Y0036721D01*
X0049754Y0036717D01*
X0049913Y0036709D01*
X0050070Y0036697D01*
X0050228Y0036681D01*
X0050385Y0036661D01*
X0050541Y0036637D01*
X0050697Y0036609D01*
X0050852Y0036578D01*
X0051007Y0036542D01*
X0051160Y0036503D01*
X0051312Y0036460D01*
X0051463Y0036413D01*
X0051613Y0036362D01*
X0051762Y0036307D01*
X0051909Y0036249D01*
X0052055Y0036187D01*
X0052199Y0036122D01*
X0052341Y0036052D01*
X0052482Y0035980D01*
X0052621Y0035903D01*
X0052757Y0035824D01*
X0052892Y0035740D01*
X0053025Y0035654D01*
X0053155Y0035564D01*
X0053283Y0035471D01*
X0053409Y0035375D01*
X0053532Y0035275D01*
X0053653Y0035173D01*
X0053771Y0035068D01*
X0053886Y0034959D01*
X0053999Y0034848D01*
X0054109Y0034734D01*
X0054216Y0034617D01*
X0054320Y0034498D01*
X0054421Y0034376D01*
X0054518Y0034251D01*
X0054613Y0034124D01*
X0054704Y0033995D01*
X0054793Y0033864D01*
X0054877Y0033730D01*
X0054959Y0033594D01*
X0055037Y0033457D01*
X0055111Y0033317D01*
X0055182Y0033175D01*
X0055250Y0033032D01*
X0055314Y0032887D01*
X0055374Y0032741D01*
X0055430Y0032593D01*
X0055483Y0032444D01*
X0055532Y0032293D01*
X0055577Y0032141D01*
X0055618Y0031988D01*
X0055656Y0031835D01*
X0055689Y0031680D01*
X0055719Y0031524D01*
X0055745Y0031368D01*
X0055766Y0031211D01*
X0055784Y0031054D01*
X0055798Y0030896D01*
X0055808Y0030738D01*
X0055814Y0030580D01*
X0055816Y0030422D01*
X0055814Y0030264D01*
X0055808Y0030106D01*
X0055798Y0029948D01*
X0055784Y0029790D01*
X0055766Y0029633D01*
X0055745Y0029476D01*
X0055719Y0029320D01*
X0055689Y0029164D01*
X0055656Y0029009D01*
X0055618Y0028856D01*
X0055577Y0028703D01*
X0055532Y0028551D01*
X0055483Y0028400D01*
X0055430Y0028251D01*
X0055374Y0028103D01*
X0055314Y0027957D01*
X0055250Y0027812D01*
X0055182Y0027669D01*
X0055111Y0027527D01*
X0055037Y0027387D01*
X0054959Y0027250D01*
X0054877Y0027114D01*
X0054793Y0026980D01*
X0054704Y0026849D01*
X0054613Y0026720D01*
X0054518Y0026593D01*
X0054421Y0026468D01*
X0054320Y0026346D01*
X0054216Y0026227D01*
X0054109Y0026110D01*
X0053999Y0025996D01*
X0053886Y0025885D01*
X0053771Y0025776D01*
X0053653Y0025671D01*
X0053532Y0025569D01*
X0053409Y0025469D01*
X0053283Y0025373D01*
X0053155Y0025280D01*
X0053025Y0025190D01*
X0052892Y0025104D01*
X0052757Y0025020D01*
X0052621Y0024941D01*
X0052482Y0024864D01*
X0052341Y0024792D01*
X0052199Y0024722D01*
X0052055Y0024657D01*
X0051909Y0024595D01*
X0051762Y0024537D01*
X0051613Y0024482D01*
X0051463Y0024431D01*
X0051312Y0024384D01*
X0051160Y0024341D01*
X0051007Y0024302D01*
X0050852Y0024266D01*
X0050697Y0024235D01*
X0050541Y0024207D01*
X0050385Y0024183D01*
X0050228Y0024163D01*
X0050070Y0024147D01*
X0049913Y0024135D01*
X0049754Y0024127D01*
X0049596Y0024123D01*
X0049438Y0024123D01*
X0049280Y0024127D01*
X0049121Y0024135D01*
X0048964Y0024147D01*
X0048806Y0024163D01*
X0048649Y0024183D01*
X0048493Y0024207D01*
X0048337Y0024235D01*
X0048182Y0024266D01*
X0048027Y0024302D01*
X0047874Y0024341D01*
X0047722Y0024384D01*
X0047571Y0024431D01*
X0047421Y0024482D01*
X0047272Y0024537D01*
X0047125Y0024595D01*
X0046979Y0024657D01*
X0046835Y0024722D01*
X0046693Y0024792D01*
X0046552Y0024864D01*
X0046413Y0024941D01*
X0046277Y0025020D01*
X0046142Y0025104D01*
X0046009Y0025190D01*
X0045879Y0025280D01*
X0045751Y0025373D01*
X0045625Y0025469D01*
X0045502Y0025569D01*
X0045381Y0025671D01*
X0045263Y0025776D01*
X0045148Y0025885D01*
X0045035Y0025996D01*
X0044925Y0026110D01*
X0044818Y0026227D01*
X0044714Y0026346D01*
X0044613Y0026468D01*
X0044516Y0026593D01*
X0044421Y0026720D01*
X0044330Y0026849D01*
X0044241Y0026980D01*
X0044157Y0027114D01*
X0044075Y0027250D01*
X0043997Y0027387D01*
X0043923Y0027527D01*
X0043852Y0027669D01*
X0043784Y0027812D01*
X0043720Y0027957D01*
X0043660Y0028103D01*
X0043604Y0028251D01*
X0043551Y0028400D01*
X0043502Y0028551D01*
X0043457Y0028703D01*
X0043416Y0028856D01*
X0043378Y0029009D01*
X0043345Y0029164D01*
X0043315Y0029320D01*
X0043289Y0029476D01*
X0043268Y0029633D01*
X0043250Y0029790D01*
X0043236Y0029948D01*
X0043226Y0030106D01*
X0043220Y0030264D01*
X0043218Y0030422D01*
X0320619Y0045737D02*
X0320621Y0045895D01*
X0320627Y0046053D01*
X0320637Y0046211D01*
X0320651Y0046369D01*
X0320669Y0046526D01*
X0320690Y0046683D01*
X0320716Y0046839D01*
X0320746Y0046995D01*
X0320779Y0047150D01*
X0320817Y0047303D01*
X0320858Y0047456D01*
X0320903Y0047608D01*
X0320952Y0047759D01*
X0321005Y0047908D01*
X0321061Y0048056D01*
X0321121Y0048202D01*
X0321185Y0048347D01*
X0321253Y0048490D01*
X0321324Y0048632D01*
X0321398Y0048772D01*
X0321476Y0048909D01*
X0321558Y0049045D01*
X0321642Y0049179D01*
X0321731Y0049310D01*
X0321822Y0049439D01*
X0321917Y0049566D01*
X0322014Y0049691D01*
X0322115Y0049813D01*
X0322219Y0049932D01*
X0322326Y0050049D01*
X0322436Y0050163D01*
X0322549Y0050274D01*
X0322664Y0050383D01*
X0322782Y0050488D01*
X0322903Y0050590D01*
X0323026Y0050690D01*
X0323152Y0050786D01*
X0323280Y0050879D01*
X0323410Y0050969D01*
X0323543Y0051055D01*
X0323678Y0051139D01*
X0323814Y0051218D01*
X0323953Y0051295D01*
X0324094Y0051367D01*
X0324236Y0051437D01*
X0324380Y0051502D01*
X0324526Y0051564D01*
X0324673Y0051622D01*
X0324822Y0051677D01*
X0324972Y0051728D01*
X0325123Y0051775D01*
X0325275Y0051818D01*
X0325428Y0051857D01*
X0325583Y0051893D01*
X0325738Y0051924D01*
X0325894Y0051952D01*
X0326050Y0051976D01*
X0326207Y0051996D01*
X0326365Y0052012D01*
X0326522Y0052024D01*
X0326681Y0052032D01*
X0326839Y0052036D01*
X0326997Y0052036D01*
X0327155Y0052032D01*
X0327314Y0052024D01*
X0327471Y0052012D01*
X0327629Y0051996D01*
X0327786Y0051976D01*
X0327942Y0051952D01*
X0328098Y0051924D01*
X0328253Y0051893D01*
X0328408Y0051857D01*
X0328561Y0051818D01*
X0328713Y0051775D01*
X0328864Y0051728D01*
X0329014Y0051677D01*
X0329163Y0051622D01*
X0329310Y0051564D01*
X0329456Y0051502D01*
X0329600Y0051437D01*
X0329742Y0051367D01*
X0329883Y0051295D01*
X0330022Y0051218D01*
X0330158Y0051139D01*
X0330293Y0051055D01*
X0330426Y0050969D01*
X0330556Y0050879D01*
X0330684Y0050786D01*
X0330810Y0050690D01*
X0330933Y0050590D01*
X0331054Y0050488D01*
X0331172Y0050383D01*
X0331287Y0050274D01*
X0331400Y0050163D01*
X0331510Y0050049D01*
X0331617Y0049932D01*
X0331721Y0049813D01*
X0331822Y0049691D01*
X0331919Y0049566D01*
X0332014Y0049439D01*
X0332105Y0049310D01*
X0332194Y0049179D01*
X0332278Y0049045D01*
X0332360Y0048909D01*
X0332438Y0048772D01*
X0332512Y0048632D01*
X0332583Y0048490D01*
X0332651Y0048347D01*
X0332715Y0048202D01*
X0332775Y0048056D01*
X0332831Y0047908D01*
X0332884Y0047759D01*
X0332933Y0047608D01*
X0332978Y0047456D01*
X0333019Y0047303D01*
X0333057Y0047150D01*
X0333090Y0046995D01*
X0333120Y0046839D01*
X0333146Y0046683D01*
X0333167Y0046526D01*
X0333185Y0046369D01*
X0333199Y0046211D01*
X0333209Y0046053D01*
X0333215Y0045895D01*
X0333217Y0045737D01*
X0333215Y0045579D01*
X0333209Y0045421D01*
X0333199Y0045263D01*
X0333185Y0045105D01*
X0333167Y0044948D01*
X0333146Y0044791D01*
X0333120Y0044635D01*
X0333090Y0044479D01*
X0333057Y0044324D01*
X0333019Y0044171D01*
X0332978Y0044018D01*
X0332933Y0043866D01*
X0332884Y0043715D01*
X0332831Y0043566D01*
X0332775Y0043418D01*
X0332715Y0043272D01*
X0332651Y0043127D01*
X0332583Y0042984D01*
X0332512Y0042842D01*
X0332438Y0042702D01*
X0332360Y0042565D01*
X0332278Y0042429D01*
X0332194Y0042295D01*
X0332105Y0042164D01*
X0332014Y0042035D01*
X0331919Y0041908D01*
X0331822Y0041783D01*
X0331721Y0041661D01*
X0331617Y0041542D01*
X0331510Y0041425D01*
X0331400Y0041311D01*
X0331287Y0041200D01*
X0331172Y0041091D01*
X0331054Y0040986D01*
X0330933Y0040884D01*
X0330810Y0040784D01*
X0330684Y0040688D01*
X0330556Y0040595D01*
X0330426Y0040505D01*
X0330293Y0040419D01*
X0330158Y0040335D01*
X0330022Y0040256D01*
X0329883Y0040179D01*
X0329742Y0040107D01*
X0329600Y0040037D01*
X0329456Y0039972D01*
X0329310Y0039910D01*
X0329163Y0039852D01*
X0329014Y0039797D01*
X0328864Y0039746D01*
X0328713Y0039699D01*
X0328561Y0039656D01*
X0328408Y0039617D01*
X0328253Y0039581D01*
X0328098Y0039550D01*
X0327942Y0039522D01*
X0327786Y0039498D01*
X0327629Y0039478D01*
X0327471Y0039462D01*
X0327314Y0039450D01*
X0327155Y0039442D01*
X0326997Y0039438D01*
X0326839Y0039438D01*
X0326681Y0039442D01*
X0326522Y0039450D01*
X0326365Y0039462D01*
X0326207Y0039478D01*
X0326050Y0039498D01*
X0325894Y0039522D01*
X0325738Y0039550D01*
X0325583Y0039581D01*
X0325428Y0039617D01*
X0325275Y0039656D01*
X0325123Y0039699D01*
X0324972Y0039746D01*
X0324822Y0039797D01*
X0324673Y0039852D01*
X0324526Y0039910D01*
X0324380Y0039972D01*
X0324236Y0040037D01*
X0324094Y0040107D01*
X0323953Y0040179D01*
X0323814Y0040256D01*
X0323678Y0040335D01*
X0323543Y0040419D01*
X0323410Y0040505D01*
X0323280Y0040595D01*
X0323152Y0040688D01*
X0323026Y0040784D01*
X0322903Y0040884D01*
X0322782Y0040986D01*
X0322664Y0041091D01*
X0322549Y0041200D01*
X0322436Y0041311D01*
X0322326Y0041425D01*
X0322219Y0041542D01*
X0322115Y0041661D01*
X0322014Y0041783D01*
X0321917Y0041908D01*
X0321822Y0042035D01*
X0321731Y0042164D01*
X0321642Y0042295D01*
X0321558Y0042429D01*
X0321476Y0042565D01*
X0321398Y0042702D01*
X0321324Y0042842D01*
X0321253Y0042984D01*
X0321185Y0043127D01*
X0321121Y0043272D01*
X0321061Y0043418D01*
X0321005Y0043566D01*
X0320952Y0043715D01*
X0320903Y0043866D01*
X0320858Y0044018D01*
X0320817Y0044171D01*
X0320779Y0044324D01*
X0320746Y0044479D01*
X0320716Y0044635D01*
X0320690Y0044791D01*
X0320669Y0044948D01*
X0320651Y0045105D01*
X0320637Y0045263D01*
X0320627Y0045421D01*
X0320621Y0045579D01*
X0320619Y0045737D01*
X0330462Y0030422D02*
X0330464Y0030580D01*
X0330470Y0030738D01*
X0330480Y0030896D01*
X0330494Y0031054D01*
X0330512Y0031211D01*
X0330533Y0031368D01*
X0330559Y0031524D01*
X0330589Y0031680D01*
X0330622Y0031835D01*
X0330660Y0031988D01*
X0330701Y0032141D01*
X0330746Y0032293D01*
X0330795Y0032444D01*
X0330848Y0032593D01*
X0330904Y0032741D01*
X0330964Y0032887D01*
X0331028Y0033032D01*
X0331096Y0033175D01*
X0331167Y0033317D01*
X0331241Y0033457D01*
X0331319Y0033594D01*
X0331401Y0033730D01*
X0331485Y0033864D01*
X0331574Y0033995D01*
X0331665Y0034124D01*
X0331760Y0034251D01*
X0331857Y0034376D01*
X0331958Y0034498D01*
X0332062Y0034617D01*
X0332169Y0034734D01*
X0332279Y0034848D01*
X0332392Y0034959D01*
X0332507Y0035068D01*
X0332625Y0035173D01*
X0332746Y0035275D01*
X0332869Y0035375D01*
X0332995Y0035471D01*
X0333123Y0035564D01*
X0333253Y0035654D01*
X0333386Y0035740D01*
X0333521Y0035824D01*
X0333657Y0035903D01*
X0333796Y0035980D01*
X0333937Y0036052D01*
X0334079Y0036122D01*
X0334223Y0036187D01*
X0334369Y0036249D01*
X0334516Y0036307D01*
X0334665Y0036362D01*
X0334815Y0036413D01*
X0334966Y0036460D01*
X0335118Y0036503D01*
X0335271Y0036542D01*
X0335426Y0036578D01*
X0335581Y0036609D01*
X0335737Y0036637D01*
X0335893Y0036661D01*
X0336050Y0036681D01*
X0336208Y0036697D01*
X0336365Y0036709D01*
X0336524Y0036717D01*
X0336682Y0036721D01*
X0336840Y0036721D01*
X0336998Y0036717D01*
X0337157Y0036709D01*
X0337314Y0036697D01*
X0337472Y0036681D01*
X0337629Y0036661D01*
X0337785Y0036637D01*
X0337941Y0036609D01*
X0338096Y0036578D01*
X0338251Y0036542D01*
X0338404Y0036503D01*
X0338556Y0036460D01*
X0338707Y0036413D01*
X0338857Y0036362D01*
X0339006Y0036307D01*
X0339153Y0036249D01*
X0339299Y0036187D01*
X0339443Y0036122D01*
X0339585Y0036052D01*
X0339726Y0035980D01*
X0339865Y0035903D01*
X0340001Y0035824D01*
X0340136Y0035740D01*
X0340269Y0035654D01*
X0340399Y0035564D01*
X0340527Y0035471D01*
X0340653Y0035375D01*
X0340776Y0035275D01*
X0340897Y0035173D01*
X0341015Y0035068D01*
X0341130Y0034959D01*
X0341243Y0034848D01*
X0341353Y0034734D01*
X0341460Y0034617D01*
X0341564Y0034498D01*
X0341665Y0034376D01*
X0341762Y0034251D01*
X0341857Y0034124D01*
X0341948Y0033995D01*
X0342037Y0033864D01*
X0342121Y0033730D01*
X0342203Y0033594D01*
X0342281Y0033457D01*
X0342355Y0033317D01*
X0342426Y0033175D01*
X0342494Y0033032D01*
X0342558Y0032887D01*
X0342618Y0032741D01*
X0342674Y0032593D01*
X0342727Y0032444D01*
X0342776Y0032293D01*
X0342821Y0032141D01*
X0342862Y0031988D01*
X0342900Y0031835D01*
X0342933Y0031680D01*
X0342963Y0031524D01*
X0342989Y0031368D01*
X0343010Y0031211D01*
X0343028Y0031054D01*
X0343042Y0030896D01*
X0343052Y0030738D01*
X0343058Y0030580D01*
X0343060Y0030422D01*
X0343058Y0030264D01*
X0343052Y0030106D01*
X0343042Y0029948D01*
X0343028Y0029790D01*
X0343010Y0029633D01*
X0342989Y0029476D01*
X0342963Y0029320D01*
X0342933Y0029164D01*
X0342900Y0029009D01*
X0342862Y0028856D01*
X0342821Y0028703D01*
X0342776Y0028551D01*
X0342727Y0028400D01*
X0342674Y0028251D01*
X0342618Y0028103D01*
X0342558Y0027957D01*
X0342494Y0027812D01*
X0342426Y0027669D01*
X0342355Y0027527D01*
X0342281Y0027387D01*
X0342203Y0027250D01*
X0342121Y0027114D01*
X0342037Y0026980D01*
X0341948Y0026849D01*
X0341857Y0026720D01*
X0341762Y0026593D01*
X0341665Y0026468D01*
X0341564Y0026346D01*
X0341460Y0026227D01*
X0341353Y0026110D01*
X0341243Y0025996D01*
X0341130Y0025885D01*
X0341015Y0025776D01*
X0340897Y0025671D01*
X0340776Y0025569D01*
X0340653Y0025469D01*
X0340527Y0025373D01*
X0340399Y0025280D01*
X0340269Y0025190D01*
X0340136Y0025104D01*
X0340001Y0025020D01*
X0339865Y0024941D01*
X0339726Y0024864D01*
X0339585Y0024792D01*
X0339443Y0024722D01*
X0339299Y0024657D01*
X0339153Y0024595D01*
X0339006Y0024537D01*
X0338857Y0024482D01*
X0338707Y0024431D01*
X0338556Y0024384D01*
X0338404Y0024341D01*
X0338251Y0024302D01*
X0338096Y0024266D01*
X0337941Y0024235D01*
X0337785Y0024207D01*
X0337629Y0024183D01*
X0337472Y0024163D01*
X0337314Y0024147D01*
X0337157Y0024135D01*
X0336998Y0024127D01*
X0336840Y0024123D01*
X0336682Y0024123D01*
X0336524Y0024127D01*
X0336365Y0024135D01*
X0336208Y0024147D01*
X0336050Y0024163D01*
X0335893Y0024183D01*
X0335737Y0024207D01*
X0335581Y0024235D01*
X0335426Y0024266D01*
X0335271Y0024302D01*
X0335118Y0024341D01*
X0334966Y0024384D01*
X0334815Y0024431D01*
X0334665Y0024482D01*
X0334516Y0024537D01*
X0334369Y0024595D01*
X0334223Y0024657D01*
X0334079Y0024722D01*
X0333937Y0024792D01*
X0333796Y0024864D01*
X0333657Y0024941D01*
X0333521Y0025020D01*
X0333386Y0025104D01*
X0333253Y0025190D01*
X0333123Y0025280D01*
X0332995Y0025373D01*
X0332869Y0025469D01*
X0332746Y0025569D01*
X0332625Y0025671D01*
X0332507Y0025776D01*
X0332392Y0025885D01*
X0332279Y0025996D01*
X0332169Y0026110D01*
X0332062Y0026227D01*
X0331958Y0026346D01*
X0331857Y0026468D01*
X0331760Y0026593D01*
X0331665Y0026720D01*
X0331574Y0026849D01*
X0331485Y0026980D01*
X0331401Y0027114D01*
X0331319Y0027250D01*
X0331241Y0027387D01*
X0331167Y0027527D01*
X0331096Y0027669D01*
X0331028Y0027812D01*
X0330964Y0027957D01*
X0330904Y0028103D01*
X0330848Y0028251D01*
X0330795Y0028400D01*
X0330746Y0028551D01*
X0330701Y0028703D01*
X0330660Y0028856D01*
X0330622Y0029009D01*
X0330589Y0029164D01*
X0330559Y0029320D01*
X0330533Y0029476D01*
X0330512Y0029633D01*
X0330494Y0029790D01*
X0330480Y0029948D01*
X0330470Y0030106D01*
X0330464Y0030264D01*
X0330462Y0030422D01*
X0328001Y0189300D02*
X0328003Y0189458D01*
X0328009Y0189616D01*
X0328019Y0189774D01*
X0328033Y0189932D01*
X0328051Y0190089D01*
X0328072Y0190246D01*
X0328098Y0190402D01*
X0328128Y0190558D01*
X0328161Y0190713D01*
X0328199Y0190866D01*
X0328240Y0191019D01*
X0328285Y0191171D01*
X0328334Y0191322D01*
X0328387Y0191471D01*
X0328443Y0191619D01*
X0328503Y0191765D01*
X0328567Y0191910D01*
X0328635Y0192053D01*
X0328706Y0192195D01*
X0328780Y0192335D01*
X0328858Y0192472D01*
X0328940Y0192608D01*
X0329024Y0192742D01*
X0329113Y0192873D01*
X0329204Y0193002D01*
X0329299Y0193129D01*
X0329396Y0193254D01*
X0329497Y0193376D01*
X0329601Y0193495D01*
X0329708Y0193612D01*
X0329818Y0193726D01*
X0329931Y0193837D01*
X0330046Y0193946D01*
X0330164Y0194051D01*
X0330285Y0194153D01*
X0330408Y0194253D01*
X0330534Y0194349D01*
X0330662Y0194442D01*
X0330792Y0194532D01*
X0330925Y0194618D01*
X0331060Y0194702D01*
X0331196Y0194781D01*
X0331335Y0194858D01*
X0331476Y0194930D01*
X0331618Y0195000D01*
X0331762Y0195065D01*
X0331908Y0195127D01*
X0332055Y0195185D01*
X0332204Y0195240D01*
X0332354Y0195291D01*
X0332505Y0195338D01*
X0332657Y0195381D01*
X0332810Y0195420D01*
X0332965Y0195456D01*
X0333120Y0195487D01*
X0333276Y0195515D01*
X0333432Y0195539D01*
X0333589Y0195559D01*
X0333747Y0195575D01*
X0333904Y0195587D01*
X0334063Y0195595D01*
X0334221Y0195599D01*
X0334379Y0195599D01*
X0334537Y0195595D01*
X0334696Y0195587D01*
X0334853Y0195575D01*
X0335011Y0195559D01*
X0335168Y0195539D01*
X0335324Y0195515D01*
X0335480Y0195487D01*
X0335635Y0195456D01*
X0335790Y0195420D01*
X0335943Y0195381D01*
X0336095Y0195338D01*
X0336246Y0195291D01*
X0336396Y0195240D01*
X0336545Y0195185D01*
X0336692Y0195127D01*
X0336838Y0195065D01*
X0336982Y0195000D01*
X0337124Y0194930D01*
X0337265Y0194858D01*
X0337404Y0194781D01*
X0337540Y0194702D01*
X0337675Y0194618D01*
X0337808Y0194532D01*
X0337938Y0194442D01*
X0338066Y0194349D01*
X0338192Y0194253D01*
X0338315Y0194153D01*
X0338436Y0194051D01*
X0338554Y0193946D01*
X0338669Y0193837D01*
X0338782Y0193726D01*
X0338892Y0193612D01*
X0338999Y0193495D01*
X0339103Y0193376D01*
X0339204Y0193254D01*
X0339301Y0193129D01*
X0339396Y0193002D01*
X0339487Y0192873D01*
X0339576Y0192742D01*
X0339660Y0192608D01*
X0339742Y0192472D01*
X0339820Y0192335D01*
X0339894Y0192195D01*
X0339965Y0192053D01*
X0340033Y0191910D01*
X0340097Y0191765D01*
X0340157Y0191619D01*
X0340213Y0191471D01*
X0340266Y0191322D01*
X0340315Y0191171D01*
X0340360Y0191019D01*
X0340401Y0190866D01*
X0340439Y0190713D01*
X0340472Y0190558D01*
X0340502Y0190402D01*
X0340528Y0190246D01*
X0340549Y0190089D01*
X0340567Y0189932D01*
X0340581Y0189774D01*
X0340591Y0189616D01*
X0340597Y0189458D01*
X0340599Y0189300D01*
X0340597Y0189142D01*
X0340591Y0188984D01*
X0340581Y0188826D01*
X0340567Y0188668D01*
X0340549Y0188511D01*
X0340528Y0188354D01*
X0340502Y0188198D01*
X0340472Y0188042D01*
X0340439Y0187887D01*
X0340401Y0187734D01*
X0340360Y0187581D01*
X0340315Y0187429D01*
X0340266Y0187278D01*
X0340213Y0187129D01*
X0340157Y0186981D01*
X0340097Y0186835D01*
X0340033Y0186690D01*
X0339965Y0186547D01*
X0339894Y0186405D01*
X0339820Y0186265D01*
X0339742Y0186128D01*
X0339660Y0185992D01*
X0339576Y0185858D01*
X0339487Y0185727D01*
X0339396Y0185598D01*
X0339301Y0185471D01*
X0339204Y0185346D01*
X0339103Y0185224D01*
X0338999Y0185105D01*
X0338892Y0184988D01*
X0338782Y0184874D01*
X0338669Y0184763D01*
X0338554Y0184654D01*
X0338436Y0184549D01*
X0338315Y0184447D01*
X0338192Y0184347D01*
X0338066Y0184251D01*
X0337938Y0184158D01*
X0337808Y0184068D01*
X0337675Y0183982D01*
X0337540Y0183898D01*
X0337404Y0183819D01*
X0337265Y0183742D01*
X0337124Y0183670D01*
X0336982Y0183600D01*
X0336838Y0183535D01*
X0336692Y0183473D01*
X0336545Y0183415D01*
X0336396Y0183360D01*
X0336246Y0183309D01*
X0336095Y0183262D01*
X0335943Y0183219D01*
X0335790Y0183180D01*
X0335635Y0183144D01*
X0335480Y0183113D01*
X0335324Y0183085D01*
X0335168Y0183061D01*
X0335011Y0183041D01*
X0334853Y0183025D01*
X0334696Y0183013D01*
X0334537Y0183005D01*
X0334379Y0183001D01*
X0334221Y0183001D01*
X0334063Y0183005D01*
X0333904Y0183013D01*
X0333747Y0183025D01*
X0333589Y0183041D01*
X0333432Y0183061D01*
X0333276Y0183085D01*
X0333120Y0183113D01*
X0332965Y0183144D01*
X0332810Y0183180D01*
X0332657Y0183219D01*
X0332505Y0183262D01*
X0332354Y0183309D01*
X0332204Y0183360D01*
X0332055Y0183415D01*
X0331908Y0183473D01*
X0331762Y0183535D01*
X0331618Y0183600D01*
X0331476Y0183670D01*
X0331335Y0183742D01*
X0331196Y0183819D01*
X0331060Y0183898D01*
X0330925Y0183982D01*
X0330792Y0184068D01*
X0330662Y0184158D01*
X0330534Y0184251D01*
X0330408Y0184347D01*
X0330285Y0184447D01*
X0330164Y0184549D01*
X0330046Y0184654D01*
X0329931Y0184763D01*
X0329818Y0184874D01*
X0329708Y0184988D01*
X0329601Y0185105D01*
X0329497Y0185224D01*
X0329396Y0185346D01*
X0329299Y0185471D01*
X0329204Y0185598D01*
X0329113Y0185727D01*
X0329024Y0185858D01*
X0328940Y0185992D01*
X0328858Y0186128D01*
X0328780Y0186265D01*
X0328706Y0186405D01*
X0328635Y0186547D01*
X0328567Y0186690D01*
X0328503Y0186835D01*
X0328443Y0186981D01*
X0328387Y0187129D01*
X0328334Y0187278D01*
X0328285Y0187429D01*
X0328240Y0187581D01*
X0328199Y0187734D01*
X0328161Y0187887D01*
X0328128Y0188042D01*
X0328098Y0188198D01*
X0328072Y0188354D01*
X0328051Y0188511D01*
X0328033Y0188668D01*
X0328019Y0188826D01*
X0328009Y0188984D01*
X0328003Y0189142D01*
X0328001Y0189300D01*
X0328001Y0234300D02*
X0328003Y0234458D01*
X0328009Y0234616D01*
X0328019Y0234774D01*
X0328033Y0234932D01*
X0328051Y0235089D01*
X0328072Y0235246D01*
X0328098Y0235402D01*
X0328128Y0235558D01*
X0328161Y0235713D01*
X0328199Y0235866D01*
X0328240Y0236019D01*
X0328285Y0236171D01*
X0328334Y0236322D01*
X0328387Y0236471D01*
X0328443Y0236619D01*
X0328503Y0236765D01*
X0328567Y0236910D01*
X0328635Y0237053D01*
X0328706Y0237195D01*
X0328780Y0237335D01*
X0328858Y0237472D01*
X0328940Y0237608D01*
X0329024Y0237742D01*
X0329113Y0237873D01*
X0329204Y0238002D01*
X0329299Y0238129D01*
X0329396Y0238254D01*
X0329497Y0238376D01*
X0329601Y0238495D01*
X0329708Y0238612D01*
X0329818Y0238726D01*
X0329931Y0238837D01*
X0330046Y0238946D01*
X0330164Y0239051D01*
X0330285Y0239153D01*
X0330408Y0239253D01*
X0330534Y0239349D01*
X0330662Y0239442D01*
X0330792Y0239532D01*
X0330925Y0239618D01*
X0331060Y0239702D01*
X0331196Y0239781D01*
X0331335Y0239858D01*
X0331476Y0239930D01*
X0331618Y0240000D01*
X0331762Y0240065D01*
X0331908Y0240127D01*
X0332055Y0240185D01*
X0332204Y0240240D01*
X0332354Y0240291D01*
X0332505Y0240338D01*
X0332657Y0240381D01*
X0332810Y0240420D01*
X0332965Y0240456D01*
X0333120Y0240487D01*
X0333276Y0240515D01*
X0333432Y0240539D01*
X0333589Y0240559D01*
X0333747Y0240575D01*
X0333904Y0240587D01*
X0334063Y0240595D01*
X0334221Y0240599D01*
X0334379Y0240599D01*
X0334537Y0240595D01*
X0334696Y0240587D01*
X0334853Y0240575D01*
X0335011Y0240559D01*
X0335168Y0240539D01*
X0335324Y0240515D01*
X0335480Y0240487D01*
X0335635Y0240456D01*
X0335790Y0240420D01*
X0335943Y0240381D01*
X0336095Y0240338D01*
X0336246Y0240291D01*
X0336396Y0240240D01*
X0336545Y0240185D01*
X0336692Y0240127D01*
X0336838Y0240065D01*
X0336982Y0240000D01*
X0337124Y0239930D01*
X0337265Y0239858D01*
X0337404Y0239781D01*
X0337540Y0239702D01*
X0337675Y0239618D01*
X0337808Y0239532D01*
X0337938Y0239442D01*
X0338066Y0239349D01*
X0338192Y0239253D01*
X0338315Y0239153D01*
X0338436Y0239051D01*
X0338554Y0238946D01*
X0338669Y0238837D01*
X0338782Y0238726D01*
X0338892Y0238612D01*
X0338999Y0238495D01*
X0339103Y0238376D01*
X0339204Y0238254D01*
X0339301Y0238129D01*
X0339396Y0238002D01*
X0339487Y0237873D01*
X0339576Y0237742D01*
X0339660Y0237608D01*
X0339742Y0237472D01*
X0339820Y0237335D01*
X0339894Y0237195D01*
X0339965Y0237053D01*
X0340033Y0236910D01*
X0340097Y0236765D01*
X0340157Y0236619D01*
X0340213Y0236471D01*
X0340266Y0236322D01*
X0340315Y0236171D01*
X0340360Y0236019D01*
X0340401Y0235866D01*
X0340439Y0235713D01*
X0340472Y0235558D01*
X0340502Y0235402D01*
X0340528Y0235246D01*
X0340549Y0235089D01*
X0340567Y0234932D01*
X0340581Y0234774D01*
X0340591Y0234616D01*
X0340597Y0234458D01*
X0340599Y0234300D01*
X0340597Y0234142D01*
X0340591Y0233984D01*
X0340581Y0233826D01*
X0340567Y0233668D01*
X0340549Y0233511D01*
X0340528Y0233354D01*
X0340502Y0233198D01*
X0340472Y0233042D01*
X0340439Y0232887D01*
X0340401Y0232734D01*
X0340360Y0232581D01*
X0340315Y0232429D01*
X0340266Y0232278D01*
X0340213Y0232129D01*
X0340157Y0231981D01*
X0340097Y0231835D01*
X0340033Y0231690D01*
X0339965Y0231547D01*
X0339894Y0231405D01*
X0339820Y0231265D01*
X0339742Y0231128D01*
X0339660Y0230992D01*
X0339576Y0230858D01*
X0339487Y0230727D01*
X0339396Y0230598D01*
X0339301Y0230471D01*
X0339204Y0230346D01*
X0339103Y0230224D01*
X0338999Y0230105D01*
X0338892Y0229988D01*
X0338782Y0229874D01*
X0338669Y0229763D01*
X0338554Y0229654D01*
X0338436Y0229549D01*
X0338315Y0229447D01*
X0338192Y0229347D01*
X0338066Y0229251D01*
X0337938Y0229158D01*
X0337808Y0229068D01*
X0337675Y0228982D01*
X0337540Y0228898D01*
X0337404Y0228819D01*
X0337265Y0228742D01*
X0337124Y0228670D01*
X0336982Y0228600D01*
X0336838Y0228535D01*
X0336692Y0228473D01*
X0336545Y0228415D01*
X0336396Y0228360D01*
X0336246Y0228309D01*
X0336095Y0228262D01*
X0335943Y0228219D01*
X0335790Y0228180D01*
X0335635Y0228144D01*
X0335480Y0228113D01*
X0335324Y0228085D01*
X0335168Y0228061D01*
X0335011Y0228041D01*
X0334853Y0228025D01*
X0334696Y0228013D01*
X0334537Y0228005D01*
X0334379Y0228001D01*
X0334221Y0228001D01*
X0334063Y0228005D01*
X0333904Y0228013D01*
X0333747Y0228025D01*
X0333589Y0228041D01*
X0333432Y0228061D01*
X0333276Y0228085D01*
X0333120Y0228113D01*
X0332965Y0228144D01*
X0332810Y0228180D01*
X0332657Y0228219D01*
X0332505Y0228262D01*
X0332354Y0228309D01*
X0332204Y0228360D01*
X0332055Y0228415D01*
X0331908Y0228473D01*
X0331762Y0228535D01*
X0331618Y0228600D01*
X0331476Y0228670D01*
X0331335Y0228742D01*
X0331196Y0228819D01*
X0331060Y0228898D01*
X0330925Y0228982D01*
X0330792Y0229068D01*
X0330662Y0229158D01*
X0330534Y0229251D01*
X0330408Y0229347D01*
X0330285Y0229447D01*
X0330164Y0229549D01*
X0330046Y0229654D01*
X0329931Y0229763D01*
X0329818Y0229874D01*
X0329708Y0229988D01*
X0329601Y0230105D01*
X0329497Y0230224D01*
X0329396Y0230346D01*
X0329299Y0230471D01*
X0329204Y0230598D01*
X0329113Y0230727D01*
X0329024Y0230858D01*
X0328940Y0230992D01*
X0328858Y0231128D01*
X0328780Y0231265D01*
X0328706Y0231405D01*
X0328635Y0231547D01*
X0328567Y0231690D01*
X0328503Y0231835D01*
X0328443Y0231981D01*
X0328387Y0232129D01*
X0328334Y0232278D01*
X0328285Y0232429D01*
X0328240Y0232581D01*
X0328199Y0232734D01*
X0328161Y0232887D01*
X0328128Y0233042D01*
X0328098Y0233198D01*
X0328072Y0233354D01*
X0328051Y0233511D01*
X0328033Y0233668D01*
X0328019Y0233826D01*
X0328009Y0233984D01*
X0328003Y0234142D01*
X0328001Y0234300D01*
X0330462Y0272548D02*
X0330464Y0272706D01*
X0330470Y0272864D01*
X0330480Y0273022D01*
X0330494Y0273180D01*
X0330512Y0273337D01*
X0330533Y0273494D01*
X0330559Y0273650D01*
X0330589Y0273806D01*
X0330622Y0273961D01*
X0330660Y0274114D01*
X0330701Y0274267D01*
X0330746Y0274419D01*
X0330795Y0274570D01*
X0330848Y0274719D01*
X0330904Y0274867D01*
X0330964Y0275013D01*
X0331028Y0275158D01*
X0331096Y0275301D01*
X0331167Y0275443D01*
X0331241Y0275583D01*
X0331319Y0275720D01*
X0331401Y0275856D01*
X0331485Y0275990D01*
X0331574Y0276121D01*
X0331665Y0276250D01*
X0331760Y0276377D01*
X0331857Y0276502D01*
X0331958Y0276624D01*
X0332062Y0276743D01*
X0332169Y0276860D01*
X0332279Y0276974D01*
X0332392Y0277085D01*
X0332507Y0277194D01*
X0332625Y0277299D01*
X0332746Y0277401D01*
X0332869Y0277501D01*
X0332995Y0277597D01*
X0333123Y0277690D01*
X0333253Y0277780D01*
X0333386Y0277866D01*
X0333521Y0277950D01*
X0333657Y0278029D01*
X0333796Y0278106D01*
X0333937Y0278178D01*
X0334079Y0278248D01*
X0334223Y0278313D01*
X0334369Y0278375D01*
X0334516Y0278433D01*
X0334665Y0278488D01*
X0334815Y0278539D01*
X0334966Y0278586D01*
X0335118Y0278629D01*
X0335271Y0278668D01*
X0335426Y0278704D01*
X0335581Y0278735D01*
X0335737Y0278763D01*
X0335893Y0278787D01*
X0336050Y0278807D01*
X0336208Y0278823D01*
X0336365Y0278835D01*
X0336524Y0278843D01*
X0336682Y0278847D01*
X0336840Y0278847D01*
X0336998Y0278843D01*
X0337157Y0278835D01*
X0337314Y0278823D01*
X0337472Y0278807D01*
X0337629Y0278787D01*
X0337785Y0278763D01*
X0337941Y0278735D01*
X0338096Y0278704D01*
X0338251Y0278668D01*
X0338404Y0278629D01*
X0338556Y0278586D01*
X0338707Y0278539D01*
X0338857Y0278488D01*
X0339006Y0278433D01*
X0339153Y0278375D01*
X0339299Y0278313D01*
X0339443Y0278248D01*
X0339585Y0278178D01*
X0339726Y0278106D01*
X0339865Y0278029D01*
X0340001Y0277950D01*
X0340136Y0277866D01*
X0340269Y0277780D01*
X0340399Y0277690D01*
X0340527Y0277597D01*
X0340653Y0277501D01*
X0340776Y0277401D01*
X0340897Y0277299D01*
X0341015Y0277194D01*
X0341130Y0277085D01*
X0341243Y0276974D01*
X0341353Y0276860D01*
X0341460Y0276743D01*
X0341564Y0276624D01*
X0341665Y0276502D01*
X0341762Y0276377D01*
X0341857Y0276250D01*
X0341948Y0276121D01*
X0342037Y0275990D01*
X0342121Y0275856D01*
X0342203Y0275720D01*
X0342281Y0275583D01*
X0342355Y0275443D01*
X0342426Y0275301D01*
X0342494Y0275158D01*
X0342558Y0275013D01*
X0342618Y0274867D01*
X0342674Y0274719D01*
X0342727Y0274570D01*
X0342776Y0274419D01*
X0342821Y0274267D01*
X0342862Y0274114D01*
X0342900Y0273961D01*
X0342933Y0273806D01*
X0342963Y0273650D01*
X0342989Y0273494D01*
X0343010Y0273337D01*
X0343028Y0273180D01*
X0343042Y0273022D01*
X0343052Y0272864D01*
X0343058Y0272706D01*
X0343060Y0272548D01*
X0343058Y0272390D01*
X0343052Y0272232D01*
X0343042Y0272074D01*
X0343028Y0271916D01*
X0343010Y0271759D01*
X0342989Y0271602D01*
X0342963Y0271446D01*
X0342933Y0271290D01*
X0342900Y0271135D01*
X0342862Y0270982D01*
X0342821Y0270829D01*
X0342776Y0270677D01*
X0342727Y0270526D01*
X0342674Y0270377D01*
X0342618Y0270229D01*
X0342558Y0270083D01*
X0342494Y0269938D01*
X0342426Y0269795D01*
X0342355Y0269653D01*
X0342281Y0269513D01*
X0342203Y0269376D01*
X0342121Y0269240D01*
X0342037Y0269106D01*
X0341948Y0268975D01*
X0341857Y0268846D01*
X0341762Y0268719D01*
X0341665Y0268594D01*
X0341564Y0268472D01*
X0341460Y0268353D01*
X0341353Y0268236D01*
X0341243Y0268122D01*
X0341130Y0268011D01*
X0341015Y0267902D01*
X0340897Y0267797D01*
X0340776Y0267695D01*
X0340653Y0267595D01*
X0340527Y0267499D01*
X0340399Y0267406D01*
X0340269Y0267316D01*
X0340136Y0267230D01*
X0340001Y0267146D01*
X0339865Y0267067D01*
X0339726Y0266990D01*
X0339585Y0266918D01*
X0339443Y0266848D01*
X0339299Y0266783D01*
X0339153Y0266721D01*
X0339006Y0266663D01*
X0338857Y0266608D01*
X0338707Y0266557D01*
X0338556Y0266510D01*
X0338404Y0266467D01*
X0338251Y0266428D01*
X0338096Y0266392D01*
X0337941Y0266361D01*
X0337785Y0266333D01*
X0337629Y0266309D01*
X0337472Y0266289D01*
X0337314Y0266273D01*
X0337157Y0266261D01*
X0336998Y0266253D01*
X0336840Y0266249D01*
X0336682Y0266249D01*
X0336524Y0266253D01*
X0336365Y0266261D01*
X0336208Y0266273D01*
X0336050Y0266289D01*
X0335893Y0266309D01*
X0335737Y0266333D01*
X0335581Y0266361D01*
X0335426Y0266392D01*
X0335271Y0266428D01*
X0335118Y0266467D01*
X0334966Y0266510D01*
X0334815Y0266557D01*
X0334665Y0266608D01*
X0334516Y0266663D01*
X0334369Y0266721D01*
X0334223Y0266783D01*
X0334079Y0266848D01*
X0333937Y0266918D01*
X0333796Y0266990D01*
X0333657Y0267067D01*
X0333521Y0267146D01*
X0333386Y0267230D01*
X0333253Y0267316D01*
X0333123Y0267406D01*
X0332995Y0267499D01*
X0332869Y0267595D01*
X0332746Y0267695D01*
X0332625Y0267797D01*
X0332507Y0267902D01*
X0332392Y0268011D01*
X0332279Y0268122D01*
X0332169Y0268236D01*
X0332062Y0268353D01*
X0331958Y0268472D01*
X0331857Y0268594D01*
X0331760Y0268719D01*
X0331665Y0268846D01*
X0331574Y0268975D01*
X0331485Y0269106D01*
X0331401Y0269240D01*
X0331319Y0269376D01*
X0331241Y0269513D01*
X0331167Y0269653D01*
X0331096Y0269795D01*
X0331028Y0269938D01*
X0330964Y0270083D01*
X0330904Y0270229D01*
X0330848Y0270377D01*
X0330795Y0270526D01*
X0330746Y0270677D01*
X0330701Y0270829D01*
X0330660Y0270982D01*
X0330622Y0271135D01*
X0330589Y0271290D01*
X0330559Y0271446D01*
X0330533Y0271602D01*
X0330512Y0271759D01*
X0330494Y0271916D01*
X0330480Y0272074D01*
X0330470Y0272232D01*
X0330464Y0272390D01*
X0330462Y0272548D01*
X0043060Y0272548D02*
X0043062Y0272706D01*
X0043068Y0272864D01*
X0043078Y0273022D01*
X0043092Y0273180D01*
X0043110Y0273337D01*
X0043131Y0273494D01*
X0043157Y0273650D01*
X0043187Y0273806D01*
X0043220Y0273961D01*
X0043258Y0274114D01*
X0043299Y0274267D01*
X0043344Y0274419D01*
X0043393Y0274570D01*
X0043446Y0274719D01*
X0043502Y0274867D01*
X0043562Y0275013D01*
X0043626Y0275158D01*
X0043694Y0275301D01*
X0043765Y0275443D01*
X0043839Y0275583D01*
X0043917Y0275720D01*
X0043999Y0275856D01*
X0044083Y0275990D01*
X0044172Y0276121D01*
X0044263Y0276250D01*
X0044358Y0276377D01*
X0044455Y0276502D01*
X0044556Y0276624D01*
X0044660Y0276743D01*
X0044767Y0276860D01*
X0044877Y0276974D01*
X0044990Y0277085D01*
X0045105Y0277194D01*
X0045223Y0277299D01*
X0045344Y0277401D01*
X0045467Y0277501D01*
X0045593Y0277597D01*
X0045721Y0277690D01*
X0045851Y0277780D01*
X0045984Y0277866D01*
X0046119Y0277950D01*
X0046255Y0278029D01*
X0046394Y0278106D01*
X0046535Y0278178D01*
X0046677Y0278248D01*
X0046821Y0278313D01*
X0046967Y0278375D01*
X0047114Y0278433D01*
X0047263Y0278488D01*
X0047413Y0278539D01*
X0047564Y0278586D01*
X0047716Y0278629D01*
X0047869Y0278668D01*
X0048024Y0278704D01*
X0048179Y0278735D01*
X0048335Y0278763D01*
X0048491Y0278787D01*
X0048648Y0278807D01*
X0048806Y0278823D01*
X0048963Y0278835D01*
X0049122Y0278843D01*
X0049280Y0278847D01*
X0049438Y0278847D01*
X0049596Y0278843D01*
X0049755Y0278835D01*
X0049912Y0278823D01*
X0050070Y0278807D01*
X0050227Y0278787D01*
X0050383Y0278763D01*
X0050539Y0278735D01*
X0050694Y0278704D01*
X0050849Y0278668D01*
X0051002Y0278629D01*
X0051154Y0278586D01*
X0051305Y0278539D01*
X0051455Y0278488D01*
X0051604Y0278433D01*
X0051751Y0278375D01*
X0051897Y0278313D01*
X0052041Y0278248D01*
X0052183Y0278178D01*
X0052324Y0278106D01*
X0052463Y0278029D01*
X0052599Y0277950D01*
X0052734Y0277866D01*
X0052867Y0277780D01*
X0052997Y0277690D01*
X0053125Y0277597D01*
X0053251Y0277501D01*
X0053374Y0277401D01*
X0053495Y0277299D01*
X0053613Y0277194D01*
X0053728Y0277085D01*
X0053841Y0276974D01*
X0053951Y0276860D01*
X0054058Y0276743D01*
X0054162Y0276624D01*
X0054263Y0276502D01*
X0054360Y0276377D01*
X0054455Y0276250D01*
X0054546Y0276121D01*
X0054635Y0275990D01*
X0054719Y0275856D01*
X0054801Y0275720D01*
X0054879Y0275583D01*
X0054953Y0275443D01*
X0055024Y0275301D01*
X0055092Y0275158D01*
X0055156Y0275013D01*
X0055216Y0274867D01*
X0055272Y0274719D01*
X0055325Y0274570D01*
X0055374Y0274419D01*
X0055419Y0274267D01*
X0055460Y0274114D01*
X0055498Y0273961D01*
X0055531Y0273806D01*
X0055561Y0273650D01*
X0055587Y0273494D01*
X0055608Y0273337D01*
X0055626Y0273180D01*
X0055640Y0273022D01*
X0055650Y0272864D01*
X0055656Y0272706D01*
X0055658Y0272548D01*
X0055656Y0272390D01*
X0055650Y0272232D01*
X0055640Y0272074D01*
X0055626Y0271916D01*
X0055608Y0271759D01*
X0055587Y0271602D01*
X0055561Y0271446D01*
X0055531Y0271290D01*
X0055498Y0271135D01*
X0055460Y0270982D01*
X0055419Y0270829D01*
X0055374Y0270677D01*
X0055325Y0270526D01*
X0055272Y0270377D01*
X0055216Y0270229D01*
X0055156Y0270083D01*
X0055092Y0269938D01*
X0055024Y0269795D01*
X0054953Y0269653D01*
X0054879Y0269513D01*
X0054801Y0269376D01*
X0054719Y0269240D01*
X0054635Y0269106D01*
X0054546Y0268975D01*
X0054455Y0268846D01*
X0054360Y0268719D01*
X0054263Y0268594D01*
X0054162Y0268472D01*
X0054058Y0268353D01*
X0053951Y0268236D01*
X0053841Y0268122D01*
X0053728Y0268011D01*
X0053613Y0267902D01*
X0053495Y0267797D01*
X0053374Y0267695D01*
X0053251Y0267595D01*
X0053125Y0267499D01*
X0052997Y0267406D01*
X0052867Y0267316D01*
X0052734Y0267230D01*
X0052599Y0267146D01*
X0052463Y0267067D01*
X0052324Y0266990D01*
X0052183Y0266918D01*
X0052041Y0266848D01*
X0051897Y0266783D01*
X0051751Y0266721D01*
X0051604Y0266663D01*
X0051455Y0266608D01*
X0051305Y0266557D01*
X0051154Y0266510D01*
X0051002Y0266467D01*
X0050849Y0266428D01*
X0050694Y0266392D01*
X0050539Y0266361D01*
X0050383Y0266333D01*
X0050227Y0266309D01*
X0050070Y0266289D01*
X0049912Y0266273D01*
X0049755Y0266261D01*
X0049596Y0266253D01*
X0049438Y0266249D01*
X0049280Y0266249D01*
X0049122Y0266253D01*
X0048963Y0266261D01*
X0048806Y0266273D01*
X0048648Y0266289D01*
X0048491Y0266309D01*
X0048335Y0266333D01*
X0048179Y0266361D01*
X0048024Y0266392D01*
X0047869Y0266428D01*
X0047716Y0266467D01*
X0047564Y0266510D01*
X0047413Y0266557D01*
X0047263Y0266608D01*
X0047114Y0266663D01*
X0046967Y0266721D01*
X0046821Y0266783D01*
X0046677Y0266848D01*
X0046535Y0266918D01*
X0046394Y0266990D01*
X0046255Y0267067D01*
X0046119Y0267146D01*
X0045984Y0267230D01*
X0045851Y0267316D01*
X0045721Y0267406D01*
X0045593Y0267499D01*
X0045467Y0267595D01*
X0045344Y0267695D01*
X0045223Y0267797D01*
X0045105Y0267902D01*
X0044990Y0268011D01*
X0044877Y0268122D01*
X0044767Y0268236D01*
X0044660Y0268353D01*
X0044556Y0268472D01*
X0044455Y0268594D01*
X0044358Y0268719D01*
X0044263Y0268846D01*
X0044172Y0268975D01*
X0044083Y0269106D01*
X0043999Y0269240D01*
X0043917Y0269376D01*
X0043839Y0269513D01*
X0043765Y0269653D01*
X0043694Y0269795D01*
X0043626Y0269938D01*
X0043562Y0270083D01*
X0043502Y0270229D01*
X0043446Y0270377D01*
X0043393Y0270526D01*
X0043344Y0270677D01*
X0043299Y0270829D01*
X0043258Y0270982D01*
X0043220Y0271135D01*
X0043187Y0271290D01*
X0043157Y0271446D01*
X0043131Y0271602D01*
X0043110Y0271759D01*
X0043092Y0271916D01*
X0043078Y0272074D01*
X0043068Y0272232D01*
X0043062Y0272390D01*
X0043060Y0272548D01*
D11*
X0049359Y0272548D03*
X0326918Y0045737D03*
X0336761Y0030422D03*
X0334300Y0189300D03*
X0334300Y0234300D03*
X0336761Y0272548D03*
X0049517Y0030422D03*
D12*
X0047115Y0089162D03*
X0037115Y0089162D03*
X0037115Y0099162D03*
X0047115Y0099162D03*
X0047115Y0109162D03*
X0037115Y0109162D03*
X0037115Y0119162D03*
X0047115Y0119162D03*
X0047115Y0129162D03*
X0037115Y0129162D03*
X0037115Y0139162D03*
X0047115Y0139162D03*
X0047115Y0149162D03*
X0037115Y0149162D03*
X0037115Y0159162D03*
X0047115Y0159162D03*
X0047115Y0169162D03*
X0037115Y0169162D03*
X0037115Y0179162D03*
X0047115Y0179162D03*
X0047115Y0189162D03*
X0037115Y0189162D03*
X0037115Y0199162D03*
X0047115Y0199162D03*
D13*
X0094477Y0269115D02*
X0094477Y0275115D01*
X0104477Y0275115D02*
X0104477Y0269115D01*
X0114477Y0269115D02*
X0114477Y0275115D01*
X0124477Y0275115D02*
X0124477Y0269115D01*
X0134477Y0269115D02*
X0134477Y0275115D01*
X0144477Y0275115D02*
X0144477Y0269115D01*
X0154477Y0269115D02*
X0154477Y0275115D01*
X0164477Y0275115D02*
X0164477Y0269115D01*
X0174477Y0269115D02*
X0174477Y0275115D01*
X0184477Y0275115D02*
X0184477Y0269115D01*
X0194477Y0269115D02*
X0194477Y0275115D01*
X0204477Y0275115D02*
X0204477Y0269115D01*
X0214477Y0269115D02*
X0214477Y0275115D01*
X0224477Y0275115D02*
X0224477Y0269115D01*
X0234477Y0269115D02*
X0234477Y0275115D01*
X0244477Y0275115D02*
X0244477Y0269115D01*
X0254477Y0269115D02*
X0254477Y0275115D01*
X0264477Y0275115D02*
X0264477Y0269115D01*
X0274477Y0269115D02*
X0274477Y0275115D01*
X0284477Y0275115D02*
X0284477Y0269115D01*
X0280304Y0033776D02*
X0280304Y0027776D01*
X0270304Y0027776D02*
X0270304Y0033776D01*
X0260304Y0033776D02*
X0260304Y0027776D01*
X0110225Y0027776D02*
X0110225Y0033776D01*
X0100225Y0033776D02*
X0100225Y0027776D01*
X0090225Y0027776D02*
X0090225Y0033776D01*
D14*
X0299300Y0194300D03*
X0309300Y0199300D03*
X0309300Y0209300D03*
X0299300Y0204300D03*
X0299300Y0214300D03*
X0299300Y0224300D03*
X0309300Y0219300D03*
D15*
X0309300Y0229300D03*
D16*
X0346111Y0242312D03*
X0346111Y0181288D03*
D17*
X0184375Y0184300D02*
X0179225Y0184300D01*
X0179225Y0174300D02*
X0184375Y0174300D01*
X0184375Y0164300D02*
X0179225Y0164300D01*
X0179225Y0154300D02*
X0184375Y0154300D01*
X0184375Y0144300D02*
X0179225Y0144300D01*
X0179225Y0134300D02*
X0184375Y0134300D01*
X0184375Y0124300D02*
X0179225Y0124300D01*
X0179225Y0114300D02*
X0184375Y0114300D01*
X0184375Y0104300D02*
X0179225Y0104300D01*
X0179225Y0094300D02*
X0184375Y0094300D01*
X0184375Y0084300D02*
X0179225Y0084300D01*
X0179225Y0074300D02*
X0184375Y0074300D01*
X0184375Y0064300D02*
X0179225Y0064300D01*
X0094375Y0064300D02*
X0089225Y0064300D01*
X0089225Y0074300D02*
X0094375Y0074300D01*
X0094375Y0084300D02*
X0089225Y0084300D01*
X0089225Y0094300D02*
X0094375Y0094300D01*
X0094375Y0104300D02*
X0089225Y0104300D01*
X0089225Y0114300D02*
X0094375Y0114300D01*
X0094375Y0124300D02*
X0089225Y0124300D01*
X0089225Y0134300D02*
X0094375Y0134300D01*
X0094375Y0144300D02*
X0089225Y0144300D01*
X0089225Y0154300D02*
X0094375Y0154300D01*
X0094375Y0164300D02*
X0089225Y0164300D01*
X0089225Y0174300D02*
X0094375Y0174300D01*
X0094375Y0184300D02*
X0089225Y0184300D01*
X0089225Y0194300D02*
X0094375Y0194300D01*
X0094375Y0204300D02*
X0089225Y0204300D01*
X0089225Y0214300D02*
X0094375Y0214300D01*
X0179225Y0214300D02*
X0184375Y0214300D01*
X0184375Y0204300D02*
X0179225Y0204300D01*
X0179225Y0194300D02*
X0184375Y0194300D01*
M02*
