G75*
%MOIN*%
%OFA0B0*%
%FSLAX25Y25*%
%IPPOS*%
%LPD*%
%AMOC8*
5,1,8,0,0,1.08239X$1,22.5*
%
%ADD10C,0.00000*%
%ADD11C,0.00600*%
%ADD12C,0.00500*%
%ADD13C,0.01000*%
%ADD14R,0.01181X0.08268*%
%ADD15C,0.00400*%
%ADD16C,0.00800*%
%ADD17C,0.00700*%
%ADD18C,0.00300*%
%ADD19C,0.00984*%
%ADD20R,0.00787X0.00787*%
D10*
X0021800Y0006800D02*
X0021800Y0302076D01*
X0356446Y0302076D01*
X0356446Y0006800D01*
X0021800Y0006800D01*
X0043218Y0030422D02*
X0043220Y0030580D01*
X0043226Y0030738D01*
X0043236Y0030896D01*
X0043250Y0031054D01*
X0043268Y0031211D01*
X0043289Y0031368D01*
X0043315Y0031524D01*
X0043345Y0031680D01*
X0043378Y0031835D01*
X0043416Y0031988D01*
X0043457Y0032141D01*
X0043502Y0032293D01*
X0043551Y0032444D01*
X0043604Y0032593D01*
X0043660Y0032741D01*
X0043720Y0032887D01*
X0043784Y0033032D01*
X0043852Y0033175D01*
X0043923Y0033317D01*
X0043997Y0033457D01*
X0044075Y0033594D01*
X0044157Y0033730D01*
X0044241Y0033864D01*
X0044330Y0033995D01*
X0044421Y0034124D01*
X0044516Y0034251D01*
X0044613Y0034376D01*
X0044714Y0034498D01*
X0044818Y0034617D01*
X0044925Y0034734D01*
X0045035Y0034848D01*
X0045148Y0034959D01*
X0045263Y0035068D01*
X0045381Y0035173D01*
X0045502Y0035275D01*
X0045625Y0035375D01*
X0045751Y0035471D01*
X0045879Y0035564D01*
X0046009Y0035654D01*
X0046142Y0035740D01*
X0046277Y0035824D01*
X0046413Y0035903D01*
X0046552Y0035980D01*
X0046693Y0036052D01*
X0046835Y0036122D01*
X0046979Y0036187D01*
X0047125Y0036249D01*
X0047272Y0036307D01*
X0047421Y0036362D01*
X0047571Y0036413D01*
X0047722Y0036460D01*
X0047874Y0036503D01*
X0048027Y0036542D01*
X0048182Y0036578D01*
X0048337Y0036609D01*
X0048493Y0036637D01*
X0048649Y0036661D01*
X0048806Y0036681D01*
X0048964Y0036697D01*
X0049121Y0036709D01*
X0049280Y0036717D01*
X0049438Y0036721D01*
X0049596Y0036721D01*
X0049754Y0036717D01*
X0049913Y0036709D01*
X0050070Y0036697D01*
X0050228Y0036681D01*
X0050385Y0036661D01*
X0050541Y0036637D01*
X0050697Y0036609D01*
X0050852Y0036578D01*
X0051007Y0036542D01*
X0051160Y0036503D01*
X0051312Y0036460D01*
X0051463Y0036413D01*
X0051613Y0036362D01*
X0051762Y0036307D01*
X0051909Y0036249D01*
X0052055Y0036187D01*
X0052199Y0036122D01*
X0052341Y0036052D01*
X0052482Y0035980D01*
X0052621Y0035903D01*
X0052757Y0035824D01*
X0052892Y0035740D01*
X0053025Y0035654D01*
X0053155Y0035564D01*
X0053283Y0035471D01*
X0053409Y0035375D01*
X0053532Y0035275D01*
X0053653Y0035173D01*
X0053771Y0035068D01*
X0053886Y0034959D01*
X0053999Y0034848D01*
X0054109Y0034734D01*
X0054216Y0034617D01*
X0054320Y0034498D01*
X0054421Y0034376D01*
X0054518Y0034251D01*
X0054613Y0034124D01*
X0054704Y0033995D01*
X0054793Y0033864D01*
X0054877Y0033730D01*
X0054959Y0033594D01*
X0055037Y0033457D01*
X0055111Y0033317D01*
X0055182Y0033175D01*
X0055250Y0033032D01*
X0055314Y0032887D01*
X0055374Y0032741D01*
X0055430Y0032593D01*
X0055483Y0032444D01*
X0055532Y0032293D01*
X0055577Y0032141D01*
X0055618Y0031988D01*
X0055656Y0031835D01*
X0055689Y0031680D01*
X0055719Y0031524D01*
X0055745Y0031368D01*
X0055766Y0031211D01*
X0055784Y0031054D01*
X0055798Y0030896D01*
X0055808Y0030738D01*
X0055814Y0030580D01*
X0055816Y0030422D01*
X0055814Y0030264D01*
X0055808Y0030106D01*
X0055798Y0029948D01*
X0055784Y0029790D01*
X0055766Y0029633D01*
X0055745Y0029476D01*
X0055719Y0029320D01*
X0055689Y0029164D01*
X0055656Y0029009D01*
X0055618Y0028856D01*
X0055577Y0028703D01*
X0055532Y0028551D01*
X0055483Y0028400D01*
X0055430Y0028251D01*
X0055374Y0028103D01*
X0055314Y0027957D01*
X0055250Y0027812D01*
X0055182Y0027669D01*
X0055111Y0027527D01*
X0055037Y0027387D01*
X0054959Y0027250D01*
X0054877Y0027114D01*
X0054793Y0026980D01*
X0054704Y0026849D01*
X0054613Y0026720D01*
X0054518Y0026593D01*
X0054421Y0026468D01*
X0054320Y0026346D01*
X0054216Y0026227D01*
X0054109Y0026110D01*
X0053999Y0025996D01*
X0053886Y0025885D01*
X0053771Y0025776D01*
X0053653Y0025671D01*
X0053532Y0025569D01*
X0053409Y0025469D01*
X0053283Y0025373D01*
X0053155Y0025280D01*
X0053025Y0025190D01*
X0052892Y0025104D01*
X0052757Y0025020D01*
X0052621Y0024941D01*
X0052482Y0024864D01*
X0052341Y0024792D01*
X0052199Y0024722D01*
X0052055Y0024657D01*
X0051909Y0024595D01*
X0051762Y0024537D01*
X0051613Y0024482D01*
X0051463Y0024431D01*
X0051312Y0024384D01*
X0051160Y0024341D01*
X0051007Y0024302D01*
X0050852Y0024266D01*
X0050697Y0024235D01*
X0050541Y0024207D01*
X0050385Y0024183D01*
X0050228Y0024163D01*
X0050070Y0024147D01*
X0049913Y0024135D01*
X0049754Y0024127D01*
X0049596Y0024123D01*
X0049438Y0024123D01*
X0049280Y0024127D01*
X0049121Y0024135D01*
X0048964Y0024147D01*
X0048806Y0024163D01*
X0048649Y0024183D01*
X0048493Y0024207D01*
X0048337Y0024235D01*
X0048182Y0024266D01*
X0048027Y0024302D01*
X0047874Y0024341D01*
X0047722Y0024384D01*
X0047571Y0024431D01*
X0047421Y0024482D01*
X0047272Y0024537D01*
X0047125Y0024595D01*
X0046979Y0024657D01*
X0046835Y0024722D01*
X0046693Y0024792D01*
X0046552Y0024864D01*
X0046413Y0024941D01*
X0046277Y0025020D01*
X0046142Y0025104D01*
X0046009Y0025190D01*
X0045879Y0025280D01*
X0045751Y0025373D01*
X0045625Y0025469D01*
X0045502Y0025569D01*
X0045381Y0025671D01*
X0045263Y0025776D01*
X0045148Y0025885D01*
X0045035Y0025996D01*
X0044925Y0026110D01*
X0044818Y0026227D01*
X0044714Y0026346D01*
X0044613Y0026468D01*
X0044516Y0026593D01*
X0044421Y0026720D01*
X0044330Y0026849D01*
X0044241Y0026980D01*
X0044157Y0027114D01*
X0044075Y0027250D01*
X0043997Y0027387D01*
X0043923Y0027527D01*
X0043852Y0027669D01*
X0043784Y0027812D01*
X0043720Y0027957D01*
X0043660Y0028103D01*
X0043604Y0028251D01*
X0043551Y0028400D01*
X0043502Y0028551D01*
X0043457Y0028703D01*
X0043416Y0028856D01*
X0043378Y0029009D01*
X0043345Y0029164D01*
X0043315Y0029320D01*
X0043289Y0029476D01*
X0043268Y0029633D01*
X0043250Y0029790D01*
X0043236Y0029948D01*
X0043226Y0030106D01*
X0043220Y0030264D01*
X0043218Y0030422D01*
X0320619Y0045737D02*
X0320621Y0045895D01*
X0320627Y0046053D01*
X0320637Y0046211D01*
X0320651Y0046369D01*
X0320669Y0046526D01*
X0320690Y0046683D01*
X0320716Y0046839D01*
X0320746Y0046995D01*
X0320779Y0047150D01*
X0320817Y0047303D01*
X0320858Y0047456D01*
X0320903Y0047608D01*
X0320952Y0047759D01*
X0321005Y0047908D01*
X0321061Y0048056D01*
X0321121Y0048202D01*
X0321185Y0048347D01*
X0321253Y0048490D01*
X0321324Y0048632D01*
X0321398Y0048772D01*
X0321476Y0048909D01*
X0321558Y0049045D01*
X0321642Y0049179D01*
X0321731Y0049310D01*
X0321822Y0049439D01*
X0321917Y0049566D01*
X0322014Y0049691D01*
X0322115Y0049813D01*
X0322219Y0049932D01*
X0322326Y0050049D01*
X0322436Y0050163D01*
X0322549Y0050274D01*
X0322664Y0050383D01*
X0322782Y0050488D01*
X0322903Y0050590D01*
X0323026Y0050690D01*
X0323152Y0050786D01*
X0323280Y0050879D01*
X0323410Y0050969D01*
X0323543Y0051055D01*
X0323678Y0051139D01*
X0323814Y0051218D01*
X0323953Y0051295D01*
X0324094Y0051367D01*
X0324236Y0051437D01*
X0324380Y0051502D01*
X0324526Y0051564D01*
X0324673Y0051622D01*
X0324822Y0051677D01*
X0324972Y0051728D01*
X0325123Y0051775D01*
X0325275Y0051818D01*
X0325428Y0051857D01*
X0325583Y0051893D01*
X0325738Y0051924D01*
X0325894Y0051952D01*
X0326050Y0051976D01*
X0326207Y0051996D01*
X0326365Y0052012D01*
X0326522Y0052024D01*
X0326681Y0052032D01*
X0326839Y0052036D01*
X0326997Y0052036D01*
X0327155Y0052032D01*
X0327314Y0052024D01*
X0327471Y0052012D01*
X0327629Y0051996D01*
X0327786Y0051976D01*
X0327942Y0051952D01*
X0328098Y0051924D01*
X0328253Y0051893D01*
X0328408Y0051857D01*
X0328561Y0051818D01*
X0328713Y0051775D01*
X0328864Y0051728D01*
X0329014Y0051677D01*
X0329163Y0051622D01*
X0329310Y0051564D01*
X0329456Y0051502D01*
X0329600Y0051437D01*
X0329742Y0051367D01*
X0329883Y0051295D01*
X0330022Y0051218D01*
X0330158Y0051139D01*
X0330293Y0051055D01*
X0330426Y0050969D01*
X0330556Y0050879D01*
X0330684Y0050786D01*
X0330810Y0050690D01*
X0330933Y0050590D01*
X0331054Y0050488D01*
X0331172Y0050383D01*
X0331287Y0050274D01*
X0331400Y0050163D01*
X0331510Y0050049D01*
X0331617Y0049932D01*
X0331721Y0049813D01*
X0331822Y0049691D01*
X0331919Y0049566D01*
X0332014Y0049439D01*
X0332105Y0049310D01*
X0332194Y0049179D01*
X0332278Y0049045D01*
X0332360Y0048909D01*
X0332438Y0048772D01*
X0332512Y0048632D01*
X0332583Y0048490D01*
X0332651Y0048347D01*
X0332715Y0048202D01*
X0332775Y0048056D01*
X0332831Y0047908D01*
X0332884Y0047759D01*
X0332933Y0047608D01*
X0332978Y0047456D01*
X0333019Y0047303D01*
X0333057Y0047150D01*
X0333090Y0046995D01*
X0333120Y0046839D01*
X0333146Y0046683D01*
X0333167Y0046526D01*
X0333185Y0046369D01*
X0333199Y0046211D01*
X0333209Y0046053D01*
X0333215Y0045895D01*
X0333217Y0045737D01*
X0333215Y0045579D01*
X0333209Y0045421D01*
X0333199Y0045263D01*
X0333185Y0045105D01*
X0333167Y0044948D01*
X0333146Y0044791D01*
X0333120Y0044635D01*
X0333090Y0044479D01*
X0333057Y0044324D01*
X0333019Y0044171D01*
X0332978Y0044018D01*
X0332933Y0043866D01*
X0332884Y0043715D01*
X0332831Y0043566D01*
X0332775Y0043418D01*
X0332715Y0043272D01*
X0332651Y0043127D01*
X0332583Y0042984D01*
X0332512Y0042842D01*
X0332438Y0042702D01*
X0332360Y0042565D01*
X0332278Y0042429D01*
X0332194Y0042295D01*
X0332105Y0042164D01*
X0332014Y0042035D01*
X0331919Y0041908D01*
X0331822Y0041783D01*
X0331721Y0041661D01*
X0331617Y0041542D01*
X0331510Y0041425D01*
X0331400Y0041311D01*
X0331287Y0041200D01*
X0331172Y0041091D01*
X0331054Y0040986D01*
X0330933Y0040884D01*
X0330810Y0040784D01*
X0330684Y0040688D01*
X0330556Y0040595D01*
X0330426Y0040505D01*
X0330293Y0040419D01*
X0330158Y0040335D01*
X0330022Y0040256D01*
X0329883Y0040179D01*
X0329742Y0040107D01*
X0329600Y0040037D01*
X0329456Y0039972D01*
X0329310Y0039910D01*
X0329163Y0039852D01*
X0329014Y0039797D01*
X0328864Y0039746D01*
X0328713Y0039699D01*
X0328561Y0039656D01*
X0328408Y0039617D01*
X0328253Y0039581D01*
X0328098Y0039550D01*
X0327942Y0039522D01*
X0327786Y0039498D01*
X0327629Y0039478D01*
X0327471Y0039462D01*
X0327314Y0039450D01*
X0327155Y0039442D01*
X0326997Y0039438D01*
X0326839Y0039438D01*
X0326681Y0039442D01*
X0326522Y0039450D01*
X0326365Y0039462D01*
X0326207Y0039478D01*
X0326050Y0039498D01*
X0325894Y0039522D01*
X0325738Y0039550D01*
X0325583Y0039581D01*
X0325428Y0039617D01*
X0325275Y0039656D01*
X0325123Y0039699D01*
X0324972Y0039746D01*
X0324822Y0039797D01*
X0324673Y0039852D01*
X0324526Y0039910D01*
X0324380Y0039972D01*
X0324236Y0040037D01*
X0324094Y0040107D01*
X0323953Y0040179D01*
X0323814Y0040256D01*
X0323678Y0040335D01*
X0323543Y0040419D01*
X0323410Y0040505D01*
X0323280Y0040595D01*
X0323152Y0040688D01*
X0323026Y0040784D01*
X0322903Y0040884D01*
X0322782Y0040986D01*
X0322664Y0041091D01*
X0322549Y0041200D01*
X0322436Y0041311D01*
X0322326Y0041425D01*
X0322219Y0041542D01*
X0322115Y0041661D01*
X0322014Y0041783D01*
X0321917Y0041908D01*
X0321822Y0042035D01*
X0321731Y0042164D01*
X0321642Y0042295D01*
X0321558Y0042429D01*
X0321476Y0042565D01*
X0321398Y0042702D01*
X0321324Y0042842D01*
X0321253Y0042984D01*
X0321185Y0043127D01*
X0321121Y0043272D01*
X0321061Y0043418D01*
X0321005Y0043566D01*
X0320952Y0043715D01*
X0320903Y0043866D01*
X0320858Y0044018D01*
X0320817Y0044171D01*
X0320779Y0044324D01*
X0320746Y0044479D01*
X0320716Y0044635D01*
X0320690Y0044791D01*
X0320669Y0044948D01*
X0320651Y0045105D01*
X0320637Y0045263D01*
X0320627Y0045421D01*
X0320621Y0045579D01*
X0320619Y0045737D01*
X0330462Y0030422D02*
X0330464Y0030580D01*
X0330470Y0030738D01*
X0330480Y0030896D01*
X0330494Y0031054D01*
X0330512Y0031211D01*
X0330533Y0031368D01*
X0330559Y0031524D01*
X0330589Y0031680D01*
X0330622Y0031835D01*
X0330660Y0031988D01*
X0330701Y0032141D01*
X0330746Y0032293D01*
X0330795Y0032444D01*
X0330848Y0032593D01*
X0330904Y0032741D01*
X0330964Y0032887D01*
X0331028Y0033032D01*
X0331096Y0033175D01*
X0331167Y0033317D01*
X0331241Y0033457D01*
X0331319Y0033594D01*
X0331401Y0033730D01*
X0331485Y0033864D01*
X0331574Y0033995D01*
X0331665Y0034124D01*
X0331760Y0034251D01*
X0331857Y0034376D01*
X0331958Y0034498D01*
X0332062Y0034617D01*
X0332169Y0034734D01*
X0332279Y0034848D01*
X0332392Y0034959D01*
X0332507Y0035068D01*
X0332625Y0035173D01*
X0332746Y0035275D01*
X0332869Y0035375D01*
X0332995Y0035471D01*
X0333123Y0035564D01*
X0333253Y0035654D01*
X0333386Y0035740D01*
X0333521Y0035824D01*
X0333657Y0035903D01*
X0333796Y0035980D01*
X0333937Y0036052D01*
X0334079Y0036122D01*
X0334223Y0036187D01*
X0334369Y0036249D01*
X0334516Y0036307D01*
X0334665Y0036362D01*
X0334815Y0036413D01*
X0334966Y0036460D01*
X0335118Y0036503D01*
X0335271Y0036542D01*
X0335426Y0036578D01*
X0335581Y0036609D01*
X0335737Y0036637D01*
X0335893Y0036661D01*
X0336050Y0036681D01*
X0336208Y0036697D01*
X0336365Y0036709D01*
X0336524Y0036717D01*
X0336682Y0036721D01*
X0336840Y0036721D01*
X0336998Y0036717D01*
X0337157Y0036709D01*
X0337314Y0036697D01*
X0337472Y0036681D01*
X0337629Y0036661D01*
X0337785Y0036637D01*
X0337941Y0036609D01*
X0338096Y0036578D01*
X0338251Y0036542D01*
X0338404Y0036503D01*
X0338556Y0036460D01*
X0338707Y0036413D01*
X0338857Y0036362D01*
X0339006Y0036307D01*
X0339153Y0036249D01*
X0339299Y0036187D01*
X0339443Y0036122D01*
X0339585Y0036052D01*
X0339726Y0035980D01*
X0339865Y0035903D01*
X0340001Y0035824D01*
X0340136Y0035740D01*
X0340269Y0035654D01*
X0340399Y0035564D01*
X0340527Y0035471D01*
X0340653Y0035375D01*
X0340776Y0035275D01*
X0340897Y0035173D01*
X0341015Y0035068D01*
X0341130Y0034959D01*
X0341243Y0034848D01*
X0341353Y0034734D01*
X0341460Y0034617D01*
X0341564Y0034498D01*
X0341665Y0034376D01*
X0341762Y0034251D01*
X0341857Y0034124D01*
X0341948Y0033995D01*
X0342037Y0033864D01*
X0342121Y0033730D01*
X0342203Y0033594D01*
X0342281Y0033457D01*
X0342355Y0033317D01*
X0342426Y0033175D01*
X0342494Y0033032D01*
X0342558Y0032887D01*
X0342618Y0032741D01*
X0342674Y0032593D01*
X0342727Y0032444D01*
X0342776Y0032293D01*
X0342821Y0032141D01*
X0342862Y0031988D01*
X0342900Y0031835D01*
X0342933Y0031680D01*
X0342963Y0031524D01*
X0342989Y0031368D01*
X0343010Y0031211D01*
X0343028Y0031054D01*
X0343042Y0030896D01*
X0343052Y0030738D01*
X0343058Y0030580D01*
X0343060Y0030422D01*
X0343058Y0030264D01*
X0343052Y0030106D01*
X0343042Y0029948D01*
X0343028Y0029790D01*
X0343010Y0029633D01*
X0342989Y0029476D01*
X0342963Y0029320D01*
X0342933Y0029164D01*
X0342900Y0029009D01*
X0342862Y0028856D01*
X0342821Y0028703D01*
X0342776Y0028551D01*
X0342727Y0028400D01*
X0342674Y0028251D01*
X0342618Y0028103D01*
X0342558Y0027957D01*
X0342494Y0027812D01*
X0342426Y0027669D01*
X0342355Y0027527D01*
X0342281Y0027387D01*
X0342203Y0027250D01*
X0342121Y0027114D01*
X0342037Y0026980D01*
X0341948Y0026849D01*
X0341857Y0026720D01*
X0341762Y0026593D01*
X0341665Y0026468D01*
X0341564Y0026346D01*
X0341460Y0026227D01*
X0341353Y0026110D01*
X0341243Y0025996D01*
X0341130Y0025885D01*
X0341015Y0025776D01*
X0340897Y0025671D01*
X0340776Y0025569D01*
X0340653Y0025469D01*
X0340527Y0025373D01*
X0340399Y0025280D01*
X0340269Y0025190D01*
X0340136Y0025104D01*
X0340001Y0025020D01*
X0339865Y0024941D01*
X0339726Y0024864D01*
X0339585Y0024792D01*
X0339443Y0024722D01*
X0339299Y0024657D01*
X0339153Y0024595D01*
X0339006Y0024537D01*
X0338857Y0024482D01*
X0338707Y0024431D01*
X0338556Y0024384D01*
X0338404Y0024341D01*
X0338251Y0024302D01*
X0338096Y0024266D01*
X0337941Y0024235D01*
X0337785Y0024207D01*
X0337629Y0024183D01*
X0337472Y0024163D01*
X0337314Y0024147D01*
X0337157Y0024135D01*
X0336998Y0024127D01*
X0336840Y0024123D01*
X0336682Y0024123D01*
X0336524Y0024127D01*
X0336365Y0024135D01*
X0336208Y0024147D01*
X0336050Y0024163D01*
X0335893Y0024183D01*
X0335737Y0024207D01*
X0335581Y0024235D01*
X0335426Y0024266D01*
X0335271Y0024302D01*
X0335118Y0024341D01*
X0334966Y0024384D01*
X0334815Y0024431D01*
X0334665Y0024482D01*
X0334516Y0024537D01*
X0334369Y0024595D01*
X0334223Y0024657D01*
X0334079Y0024722D01*
X0333937Y0024792D01*
X0333796Y0024864D01*
X0333657Y0024941D01*
X0333521Y0025020D01*
X0333386Y0025104D01*
X0333253Y0025190D01*
X0333123Y0025280D01*
X0332995Y0025373D01*
X0332869Y0025469D01*
X0332746Y0025569D01*
X0332625Y0025671D01*
X0332507Y0025776D01*
X0332392Y0025885D01*
X0332279Y0025996D01*
X0332169Y0026110D01*
X0332062Y0026227D01*
X0331958Y0026346D01*
X0331857Y0026468D01*
X0331760Y0026593D01*
X0331665Y0026720D01*
X0331574Y0026849D01*
X0331485Y0026980D01*
X0331401Y0027114D01*
X0331319Y0027250D01*
X0331241Y0027387D01*
X0331167Y0027527D01*
X0331096Y0027669D01*
X0331028Y0027812D01*
X0330964Y0027957D01*
X0330904Y0028103D01*
X0330848Y0028251D01*
X0330795Y0028400D01*
X0330746Y0028551D01*
X0330701Y0028703D01*
X0330660Y0028856D01*
X0330622Y0029009D01*
X0330589Y0029164D01*
X0330559Y0029320D01*
X0330533Y0029476D01*
X0330512Y0029633D01*
X0330494Y0029790D01*
X0330480Y0029948D01*
X0330470Y0030106D01*
X0330464Y0030264D01*
X0330462Y0030422D01*
X0328001Y0189300D02*
X0328003Y0189458D01*
X0328009Y0189616D01*
X0328019Y0189774D01*
X0328033Y0189932D01*
X0328051Y0190089D01*
X0328072Y0190246D01*
X0328098Y0190402D01*
X0328128Y0190558D01*
X0328161Y0190713D01*
X0328199Y0190866D01*
X0328240Y0191019D01*
X0328285Y0191171D01*
X0328334Y0191322D01*
X0328387Y0191471D01*
X0328443Y0191619D01*
X0328503Y0191765D01*
X0328567Y0191910D01*
X0328635Y0192053D01*
X0328706Y0192195D01*
X0328780Y0192335D01*
X0328858Y0192472D01*
X0328940Y0192608D01*
X0329024Y0192742D01*
X0329113Y0192873D01*
X0329204Y0193002D01*
X0329299Y0193129D01*
X0329396Y0193254D01*
X0329497Y0193376D01*
X0329601Y0193495D01*
X0329708Y0193612D01*
X0329818Y0193726D01*
X0329931Y0193837D01*
X0330046Y0193946D01*
X0330164Y0194051D01*
X0330285Y0194153D01*
X0330408Y0194253D01*
X0330534Y0194349D01*
X0330662Y0194442D01*
X0330792Y0194532D01*
X0330925Y0194618D01*
X0331060Y0194702D01*
X0331196Y0194781D01*
X0331335Y0194858D01*
X0331476Y0194930D01*
X0331618Y0195000D01*
X0331762Y0195065D01*
X0331908Y0195127D01*
X0332055Y0195185D01*
X0332204Y0195240D01*
X0332354Y0195291D01*
X0332505Y0195338D01*
X0332657Y0195381D01*
X0332810Y0195420D01*
X0332965Y0195456D01*
X0333120Y0195487D01*
X0333276Y0195515D01*
X0333432Y0195539D01*
X0333589Y0195559D01*
X0333747Y0195575D01*
X0333904Y0195587D01*
X0334063Y0195595D01*
X0334221Y0195599D01*
X0334379Y0195599D01*
X0334537Y0195595D01*
X0334696Y0195587D01*
X0334853Y0195575D01*
X0335011Y0195559D01*
X0335168Y0195539D01*
X0335324Y0195515D01*
X0335480Y0195487D01*
X0335635Y0195456D01*
X0335790Y0195420D01*
X0335943Y0195381D01*
X0336095Y0195338D01*
X0336246Y0195291D01*
X0336396Y0195240D01*
X0336545Y0195185D01*
X0336692Y0195127D01*
X0336838Y0195065D01*
X0336982Y0195000D01*
X0337124Y0194930D01*
X0337265Y0194858D01*
X0337404Y0194781D01*
X0337540Y0194702D01*
X0337675Y0194618D01*
X0337808Y0194532D01*
X0337938Y0194442D01*
X0338066Y0194349D01*
X0338192Y0194253D01*
X0338315Y0194153D01*
X0338436Y0194051D01*
X0338554Y0193946D01*
X0338669Y0193837D01*
X0338782Y0193726D01*
X0338892Y0193612D01*
X0338999Y0193495D01*
X0339103Y0193376D01*
X0339204Y0193254D01*
X0339301Y0193129D01*
X0339396Y0193002D01*
X0339487Y0192873D01*
X0339576Y0192742D01*
X0339660Y0192608D01*
X0339742Y0192472D01*
X0339820Y0192335D01*
X0339894Y0192195D01*
X0339965Y0192053D01*
X0340033Y0191910D01*
X0340097Y0191765D01*
X0340157Y0191619D01*
X0340213Y0191471D01*
X0340266Y0191322D01*
X0340315Y0191171D01*
X0340360Y0191019D01*
X0340401Y0190866D01*
X0340439Y0190713D01*
X0340472Y0190558D01*
X0340502Y0190402D01*
X0340528Y0190246D01*
X0340549Y0190089D01*
X0340567Y0189932D01*
X0340581Y0189774D01*
X0340591Y0189616D01*
X0340597Y0189458D01*
X0340599Y0189300D01*
X0340597Y0189142D01*
X0340591Y0188984D01*
X0340581Y0188826D01*
X0340567Y0188668D01*
X0340549Y0188511D01*
X0340528Y0188354D01*
X0340502Y0188198D01*
X0340472Y0188042D01*
X0340439Y0187887D01*
X0340401Y0187734D01*
X0340360Y0187581D01*
X0340315Y0187429D01*
X0340266Y0187278D01*
X0340213Y0187129D01*
X0340157Y0186981D01*
X0340097Y0186835D01*
X0340033Y0186690D01*
X0339965Y0186547D01*
X0339894Y0186405D01*
X0339820Y0186265D01*
X0339742Y0186128D01*
X0339660Y0185992D01*
X0339576Y0185858D01*
X0339487Y0185727D01*
X0339396Y0185598D01*
X0339301Y0185471D01*
X0339204Y0185346D01*
X0339103Y0185224D01*
X0338999Y0185105D01*
X0338892Y0184988D01*
X0338782Y0184874D01*
X0338669Y0184763D01*
X0338554Y0184654D01*
X0338436Y0184549D01*
X0338315Y0184447D01*
X0338192Y0184347D01*
X0338066Y0184251D01*
X0337938Y0184158D01*
X0337808Y0184068D01*
X0337675Y0183982D01*
X0337540Y0183898D01*
X0337404Y0183819D01*
X0337265Y0183742D01*
X0337124Y0183670D01*
X0336982Y0183600D01*
X0336838Y0183535D01*
X0336692Y0183473D01*
X0336545Y0183415D01*
X0336396Y0183360D01*
X0336246Y0183309D01*
X0336095Y0183262D01*
X0335943Y0183219D01*
X0335790Y0183180D01*
X0335635Y0183144D01*
X0335480Y0183113D01*
X0335324Y0183085D01*
X0335168Y0183061D01*
X0335011Y0183041D01*
X0334853Y0183025D01*
X0334696Y0183013D01*
X0334537Y0183005D01*
X0334379Y0183001D01*
X0334221Y0183001D01*
X0334063Y0183005D01*
X0333904Y0183013D01*
X0333747Y0183025D01*
X0333589Y0183041D01*
X0333432Y0183061D01*
X0333276Y0183085D01*
X0333120Y0183113D01*
X0332965Y0183144D01*
X0332810Y0183180D01*
X0332657Y0183219D01*
X0332505Y0183262D01*
X0332354Y0183309D01*
X0332204Y0183360D01*
X0332055Y0183415D01*
X0331908Y0183473D01*
X0331762Y0183535D01*
X0331618Y0183600D01*
X0331476Y0183670D01*
X0331335Y0183742D01*
X0331196Y0183819D01*
X0331060Y0183898D01*
X0330925Y0183982D01*
X0330792Y0184068D01*
X0330662Y0184158D01*
X0330534Y0184251D01*
X0330408Y0184347D01*
X0330285Y0184447D01*
X0330164Y0184549D01*
X0330046Y0184654D01*
X0329931Y0184763D01*
X0329818Y0184874D01*
X0329708Y0184988D01*
X0329601Y0185105D01*
X0329497Y0185224D01*
X0329396Y0185346D01*
X0329299Y0185471D01*
X0329204Y0185598D01*
X0329113Y0185727D01*
X0329024Y0185858D01*
X0328940Y0185992D01*
X0328858Y0186128D01*
X0328780Y0186265D01*
X0328706Y0186405D01*
X0328635Y0186547D01*
X0328567Y0186690D01*
X0328503Y0186835D01*
X0328443Y0186981D01*
X0328387Y0187129D01*
X0328334Y0187278D01*
X0328285Y0187429D01*
X0328240Y0187581D01*
X0328199Y0187734D01*
X0328161Y0187887D01*
X0328128Y0188042D01*
X0328098Y0188198D01*
X0328072Y0188354D01*
X0328051Y0188511D01*
X0328033Y0188668D01*
X0328019Y0188826D01*
X0328009Y0188984D01*
X0328003Y0189142D01*
X0328001Y0189300D01*
X0328001Y0234300D02*
X0328003Y0234458D01*
X0328009Y0234616D01*
X0328019Y0234774D01*
X0328033Y0234932D01*
X0328051Y0235089D01*
X0328072Y0235246D01*
X0328098Y0235402D01*
X0328128Y0235558D01*
X0328161Y0235713D01*
X0328199Y0235866D01*
X0328240Y0236019D01*
X0328285Y0236171D01*
X0328334Y0236322D01*
X0328387Y0236471D01*
X0328443Y0236619D01*
X0328503Y0236765D01*
X0328567Y0236910D01*
X0328635Y0237053D01*
X0328706Y0237195D01*
X0328780Y0237335D01*
X0328858Y0237472D01*
X0328940Y0237608D01*
X0329024Y0237742D01*
X0329113Y0237873D01*
X0329204Y0238002D01*
X0329299Y0238129D01*
X0329396Y0238254D01*
X0329497Y0238376D01*
X0329601Y0238495D01*
X0329708Y0238612D01*
X0329818Y0238726D01*
X0329931Y0238837D01*
X0330046Y0238946D01*
X0330164Y0239051D01*
X0330285Y0239153D01*
X0330408Y0239253D01*
X0330534Y0239349D01*
X0330662Y0239442D01*
X0330792Y0239532D01*
X0330925Y0239618D01*
X0331060Y0239702D01*
X0331196Y0239781D01*
X0331335Y0239858D01*
X0331476Y0239930D01*
X0331618Y0240000D01*
X0331762Y0240065D01*
X0331908Y0240127D01*
X0332055Y0240185D01*
X0332204Y0240240D01*
X0332354Y0240291D01*
X0332505Y0240338D01*
X0332657Y0240381D01*
X0332810Y0240420D01*
X0332965Y0240456D01*
X0333120Y0240487D01*
X0333276Y0240515D01*
X0333432Y0240539D01*
X0333589Y0240559D01*
X0333747Y0240575D01*
X0333904Y0240587D01*
X0334063Y0240595D01*
X0334221Y0240599D01*
X0334379Y0240599D01*
X0334537Y0240595D01*
X0334696Y0240587D01*
X0334853Y0240575D01*
X0335011Y0240559D01*
X0335168Y0240539D01*
X0335324Y0240515D01*
X0335480Y0240487D01*
X0335635Y0240456D01*
X0335790Y0240420D01*
X0335943Y0240381D01*
X0336095Y0240338D01*
X0336246Y0240291D01*
X0336396Y0240240D01*
X0336545Y0240185D01*
X0336692Y0240127D01*
X0336838Y0240065D01*
X0336982Y0240000D01*
X0337124Y0239930D01*
X0337265Y0239858D01*
X0337404Y0239781D01*
X0337540Y0239702D01*
X0337675Y0239618D01*
X0337808Y0239532D01*
X0337938Y0239442D01*
X0338066Y0239349D01*
X0338192Y0239253D01*
X0338315Y0239153D01*
X0338436Y0239051D01*
X0338554Y0238946D01*
X0338669Y0238837D01*
X0338782Y0238726D01*
X0338892Y0238612D01*
X0338999Y0238495D01*
X0339103Y0238376D01*
X0339204Y0238254D01*
X0339301Y0238129D01*
X0339396Y0238002D01*
X0339487Y0237873D01*
X0339576Y0237742D01*
X0339660Y0237608D01*
X0339742Y0237472D01*
X0339820Y0237335D01*
X0339894Y0237195D01*
X0339965Y0237053D01*
X0340033Y0236910D01*
X0340097Y0236765D01*
X0340157Y0236619D01*
X0340213Y0236471D01*
X0340266Y0236322D01*
X0340315Y0236171D01*
X0340360Y0236019D01*
X0340401Y0235866D01*
X0340439Y0235713D01*
X0340472Y0235558D01*
X0340502Y0235402D01*
X0340528Y0235246D01*
X0340549Y0235089D01*
X0340567Y0234932D01*
X0340581Y0234774D01*
X0340591Y0234616D01*
X0340597Y0234458D01*
X0340599Y0234300D01*
X0340597Y0234142D01*
X0340591Y0233984D01*
X0340581Y0233826D01*
X0340567Y0233668D01*
X0340549Y0233511D01*
X0340528Y0233354D01*
X0340502Y0233198D01*
X0340472Y0233042D01*
X0340439Y0232887D01*
X0340401Y0232734D01*
X0340360Y0232581D01*
X0340315Y0232429D01*
X0340266Y0232278D01*
X0340213Y0232129D01*
X0340157Y0231981D01*
X0340097Y0231835D01*
X0340033Y0231690D01*
X0339965Y0231547D01*
X0339894Y0231405D01*
X0339820Y0231265D01*
X0339742Y0231128D01*
X0339660Y0230992D01*
X0339576Y0230858D01*
X0339487Y0230727D01*
X0339396Y0230598D01*
X0339301Y0230471D01*
X0339204Y0230346D01*
X0339103Y0230224D01*
X0338999Y0230105D01*
X0338892Y0229988D01*
X0338782Y0229874D01*
X0338669Y0229763D01*
X0338554Y0229654D01*
X0338436Y0229549D01*
X0338315Y0229447D01*
X0338192Y0229347D01*
X0338066Y0229251D01*
X0337938Y0229158D01*
X0337808Y0229068D01*
X0337675Y0228982D01*
X0337540Y0228898D01*
X0337404Y0228819D01*
X0337265Y0228742D01*
X0337124Y0228670D01*
X0336982Y0228600D01*
X0336838Y0228535D01*
X0336692Y0228473D01*
X0336545Y0228415D01*
X0336396Y0228360D01*
X0336246Y0228309D01*
X0336095Y0228262D01*
X0335943Y0228219D01*
X0335790Y0228180D01*
X0335635Y0228144D01*
X0335480Y0228113D01*
X0335324Y0228085D01*
X0335168Y0228061D01*
X0335011Y0228041D01*
X0334853Y0228025D01*
X0334696Y0228013D01*
X0334537Y0228005D01*
X0334379Y0228001D01*
X0334221Y0228001D01*
X0334063Y0228005D01*
X0333904Y0228013D01*
X0333747Y0228025D01*
X0333589Y0228041D01*
X0333432Y0228061D01*
X0333276Y0228085D01*
X0333120Y0228113D01*
X0332965Y0228144D01*
X0332810Y0228180D01*
X0332657Y0228219D01*
X0332505Y0228262D01*
X0332354Y0228309D01*
X0332204Y0228360D01*
X0332055Y0228415D01*
X0331908Y0228473D01*
X0331762Y0228535D01*
X0331618Y0228600D01*
X0331476Y0228670D01*
X0331335Y0228742D01*
X0331196Y0228819D01*
X0331060Y0228898D01*
X0330925Y0228982D01*
X0330792Y0229068D01*
X0330662Y0229158D01*
X0330534Y0229251D01*
X0330408Y0229347D01*
X0330285Y0229447D01*
X0330164Y0229549D01*
X0330046Y0229654D01*
X0329931Y0229763D01*
X0329818Y0229874D01*
X0329708Y0229988D01*
X0329601Y0230105D01*
X0329497Y0230224D01*
X0329396Y0230346D01*
X0329299Y0230471D01*
X0329204Y0230598D01*
X0329113Y0230727D01*
X0329024Y0230858D01*
X0328940Y0230992D01*
X0328858Y0231128D01*
X0328780Y0231265D01*
X0328706Y0231405D01*
X0328635Y0231547D01*
X0328567Y0231690D01*
X0328503Y0231835D01*
X0328443Y0231981D01*
X0328387Y0232129D01*
X0328334Y0232278D01*
X0328285Y0232429D01*
X0328240Y0232581D01*
X0328199Y0232734D01*
X0328161Y0232887D01*
X0328128Y0233042D01*
X0328098Y0233198D01*
X0328072Y0233354D01*
X0328051Y0233511D01*
X0328033Y0233668D01*
X0328019Y0233826D01*
X0328009Y0233984D01*
X0328003Y0234142D01*
X0328001Y0234300D01*
X0330462Y0272548D02*
X0330464Y0272706D01*
X0330470Y0272864D01*
X0330480Y0273022D01*
X0330494Y0273180D01*
X0330512Y0273337D01*
X0330533Y0273494D01*
X0330559Y0273650D01*
X0330589Y0273806D01*
X0330622Y0273961D01*
X0330660Y0274114D01*
X0330701Y0274267D01*
X0330746Y0274419D01*
X0330795Y0274570D01*
X0330848Y0274719D01*
X0330904Y0274867D01*
X0330964Y0275013D01*
X0331028Y0275158D01*
X0331096Y0275301D01*
X0331167Y0275443D01*
X0331241Y0275583D01*
X0331319Y0275720D01*
X0331401Y0275856D01*
X0331485Y0275990D01*
X0331574Y0276121D01*
X0331665Y0276250D01*
X0331760Y0276377D01*
X0331857Y0276502D01*
X0331958Y0276624D01*
X0332062Y0276743D01*
X0332169Y0276860D01*
X0332279Y0276974D01*
X0332392Y0277085D01*
X0332507Y0277194D01*
X0332625Y0277299D01*
X0332746Y0277401D01*
X0332869Y0277501D01*
X0332995Y0277597D01*
X0333123Y0277690D01*
X0333253Y0277780D01*
X0333386Y0277866D01*
X0333521Y0277950D01*
X0333657Y0278029D01*
X0333796Y0278106D01*
X0333937Y0278178D01*
X0334079Y0278248D01*
X0334223Y0278313D01*
X0334369Y0278375D01*
X0334516Y0278433D01*
X0334665Y0278488D01*
X0334815Y0278539D01*
X0334966Y0278586D01*
X0335118Y0278629D01*
X0335271Y0278668D01*
X0335426Y0278704D01*
X0335581Y0278735D01*
X0335737Y0278763D01*
X0335893Y0278787D01*
X0336050Y0278807D01*
X0336208Y0278823D01*
X0336365Y0278835D01*
X0336524Y0278843D01*
X0336682Y0278847D01*
X0336840Y0278847D01*
X0336998Y0278843D01*
X0337157Y0278835D01*
X0337314Y0278823D01*
X0337472Y0278807D01*
X0337629Y0278787D01*
X0337785Y0278763D01*
X0337941Y0278735D01*
X0338096Y0278704D01*
X0338251Y0278668D01*
X0338404Y0278629D01*
X0338556Y0278586D01*
X0338707Y0278539D01*
X0338857Y0278488D01*
X0339006Y0278433D01*
X0339153Y0278375D01*
X0339299Y0278313D01*
X0339443Y0278248D01*
X0339585Y0278178D01*
X0339726Y0278106D01*
X0339865Y0278029D01*
X0340001Y0277950D01*
X0340136Y0277866D01*
X0340269Y0277780D01*
X0340399Y0277690D01*
X0340527Y0277597D01*
X0340653Y0277501D01*
X0340776Y0277401D01*
X0340897Y0277299D01*
X0341015Y0277194D01*
X0341130Y0277085D01*
X0341243Y0276974D01*
X0341353Y0276860D01*
X0341460Y0276743D01*
X0341564Y0276624D01*
X0341665Y0276502D01*
X0341762Y0276377D01*
X0341857Y0276250D01*
X0341948Y0276121D01*
X0342037Y0275990D01*
X0342121Y0275856D01*
X0342203Y0275720D01*
X0342281Y0275583D01*
X0342355Y0275443D01*
X0342426Y0275301D01*
X0342494Y0275158D01*
X0342558Y0275013D01*
X0342618Y0274867D01*
X0342674Y0274719D01*
X0342727Y0274570D01*
X0342776Y0274419D01*
X0342821Y0274267D01*
X0342862Y0274114D01*
X0342900Y0273961D01*
X0342933Y0273806D01*
X0342963Y0273650D01*
X0342989Y0273494D01*
X0343010Y0273337D01*
X0343028Y0273180D01*
X0343042Y0273022D01*
X0343052Y0272864D01*
X0343058Y0272706D01*
X0343060Y0272548D01*
X0343058Y0272390D01*
X0343052Y0272232D01*
X0343042Y0272074D01*
X0343028Y0271916D01*
X0343010Y0271759D01*
X0342989Y0271602D01*
X0342963Y0271446D01*
X0342933Y0271290D01*
X0342900Y0271135D01*
X0342862Y0270982D01*
X0342821Y0270829D01*
X0342776Y0270677D01*
X0342727Y0270526D01*
X0342674Y0270377D01*
X0342618Y0270229D01*
X0342558Y0270083D01*
X0342494Y0269938D01*
X0342426Y0269795D01*
X0342355Y0269653D01*
X0342281Y0269513D01*
X0342203Y0269376D01*
X0342121Y0269240D01*
X0342037Y0269106D01*
X0341948Y0268975D01*
X0341857Y0268846D01*
X0341762Y0268719D01*
X0341665Y0268594D01*
X0341564Y0268472D01*
X0341460Y0268353D01*
X0341353Y0268236D01*
X0341243Y0268122D01*
X0341130Y0268011D01*
X0341015Y0267902D01*
X0340897Y0267797D01*
X0340776Y0267695D01*
X0340653Y0267595D01*
X0340527Y0267499D01*
X0340399Y0267406D01*
X0340269Y0267316D01*
X0340136Y0267230D01*
X0340001Y0267146D01*
X0339865Y0267067D01*
X0339726Y0266990D01*
X0339585Y0266918D01*
X0339443Y0266848D01*
X0339299Y0266783D01*
X0339153Y0266721D01*
X0339006Y0266663D01*
X0338857Y0266608D01*
X0338707Y0266557D01*
X0338556Y0266510D01*
X0338404Y0266467D01*
X0338251Y0266428D01*
X0338096Y0266392D01*
X0337941Y0266361D01*
X0337785Y0266333D01*
X0337629Y0266309D01*
X0337472Y0266289D01*
X0337314Y0266273D01*
X0337157Y0266261D01*
X0336998Y0266253D01*
X0336840Y0266249D01*
X0336682Y0266249D01*
X0336524Y0266253D01*
X0336365Y0266261D01*
X0336208Y0266273D01*
X0336050Y0266289D01*
X0335893Y0266309D01*
X0335737Y0266333D01*
X0335581Y0266361D01*
X0335426Y0266392D01*
X0335271Y0266428D01*
X0335118Y0266467D01*
X0334966Y0266510D01*
X0334815Y0266557D01*
X0334665Y0266608D01*
X0334516Y0266663D01*
X0334369Y0266721D01*
X0334223Y0266783D01*
X0334079Y0266848D01*
X0333937Y0266918D01*
X0333796Y0266990D01*
X0333657Y0267067D01*
X0333521Y0267146D01*
X0333386Y0267230D01*
X0333253Y0267316D01*
X0333123Y0267406D01*
X0332995Y0267499D01*
X0332869Y0267595D01*
X0332746Y0267695D01*
X0332625Y0267797D01*
X0332507Y0267902D01*
X0332392Y0268011D01*
X0332279Y0268122D01*
X0332169Y0268236D01*
X0332062Y0268353D01*
X0331958Y0268472D01*
X0331857Y0268594D01*
X0331760Y0268719D01*
X0331665Y0268846D01*
X0331574Y0268975D01*
X0331485Y0269106D01*
X0331401Y0269240D01*
X0331319Y0269376D01*
X0331241Y0269513D01*
X0331167Y0269653D01*
X0331096Y0269795D01*
X0331028Y0269938D01*
X0330964Y0270083D01*
X0330904Y0270229D01*
X0330848Y0270377D01*
X0330795Y0270526D01*
X0330746Y0270677D01*
X0330701Y0270829D01*
X0330660Y0270982D01*
X0330622Y0271135D01*
X0330589Y0271290D01*
X0330559Y0271446D01*
X0330533Y0271602D01*
X0330512Y0271759D01*
X0330494Y0271916D01*
X0330480Y0272074D01*
X0330470Y0272232D01*
X0330464Y0272390D01*
X0330462Y0272548D01*
X0043060Y0272548D02*
X0043062Y0272706D01*
X0043068Y0272864D01*
X0043078Y0273022D01*
X0043092Y0273180D01*
X0043110Y0273337D01*
X0043131Y0273494D01*
X0043157Y0273650D01*
X0043187Y0273806D01*
X0043220Y0273961D01*
X0043258Y0274114D01*
X0043299Y0274267D01*
X0043344Y0274419D01*
X0043393Y0274570D01*
X0043446Y0274719D01*
X0043502Y0274867D01*
X0043562Y0275013D01*
X0043626Y0275158D01*
X0043694Y0275301D01*
X0043765Y0275443D01*
X0043839Y0275583D01*
X0043917Y0275720D01*
X0043999Y0275856D01*
X0044083Y0275990D01*
X0044172Y0276121D01*
X0044263Y0276250D01*
X0044358Y0276377D01*
X0044455Y0276502D01*
X0044556Y0276624D01*
X0044660Y0276743D01*
X0044767Y0276860D01*
X0044877Y0276974D01*
X0044990Y0277085D01*
X0045105Y0277194D01*
X0045223Y0277299D01*
X0045344Y0277401D01*
X0045467Y0277501D01*
X0045593Y0277597D01*
X0045721Y0277690D01*
X0045851Y0277780D01*
X0045984Y0277866D01*
X0046119Y0277950D01*
X0046255Y0278029D01*
X0046394Y0278106D01*
X0046535Y0278178D01*
X0046677Y0278248D01*
X0046821Y0278313D01*
X0046967Y0278375D01*
X0047114Y0278433D01*
X0047263Y0278488D01*
X0047413Y0278539D01*
X0047564Y0278586D01*
X0047716Y0278629D01*
X0047869Y0278668D01*
X0048024Y0278704D01*
X0048179Y0278735D01*
X0048335Y0278763D01*
X0048491Y0278787D01*
X0048648Y0278807D01*
X0048806Y0278823D01*
X0048963Y0278835D01*
X0049122Y0278843D01*
X0049280Y0278847D01*
X0049438Y0278847D01*
X0049596Y0278843D01*
X0049755Y0278835D01*
X0049912Y0278823D01*
X0050070Y0278807D01*
X0050227Y0278787D01*
X0050383Y0278763D01*
X0050539Y0278735D01*
X0050694Y0278704D01*
X0050849Y0278668D01*
X0051002Y0278629D01*
X0051154Y0278586D01*
X0051305Y0278539D01*
X0051455Y0278488D01*
X0051604Y0278433D01*
X0051751Y0278375D01*
X0051897Y0278313D01*
X0052041Y0278248D01*
X0052183Y0278178D01*
X0052324Y0278106D01*
X0052463Y0278029D01*
X0052599Y0277950D01*
X0052734Y0277866D01*
X0052867Y0277780D01*
X0052997Y0277690D01*
X0053125Y0277597D01*
X0053251Y0277501D01*
X0053374Y0277401D01*
X0053495Y0277299D01*
X0053613Y0277194D01*
X0053728Y0277085D01*
X0053841Y0276974D01*
X0053951Y0276860D01*
X0054058Y0276743D01*
X0054162Y0276624D01*
X0054263Y0276502D01*
X0054360Y0276377D01*
X0054455Y0276250D01*
X0054546Y0276121D01*
X0054635Y0275990D01*
X0054719Y0275856D01*
X0054801Y0275720D01*
X0054879Y0275583D01*
X0054953Y0275443D01*
X0055024Y0275301D01*
X0055092Y0275158D01*
X0055156Y0275013D01*
X0055216Y0274867D01*
X0055272Y0274719D01*
X0055325Y0274570D01*
X0055374Y0274419D01*
X0055419Y0274267D01*
X0055460Y0274114D01*
X0055498Y0273961D01*
X0055531Y0273806D01*
X0055561Y0273650D01*
X0055587Y0273494D01*
X0055608Y0273337D01*
X0055626Y0273180D01*
X0055640Y0273022D01*
X0055650Y0272864D01*
X0055656Y0272706D01*
X0055658Y0272548D01*
X0055656Y0272390D01*
X0055650Y0272232D01*
X0055640Y0272074D01*
X0055626Y0271916D01*
X0055608Y0271759D01*
X0055587Y0271602D01*
X0055561Y0271446D01*
X0055531Y0271290D01*
X0055498Y0271135D01*
X0055460Y0270982D01*
X0055419Y0270829D01*
X0055374Y0270677D01*
X0055325Y0270526D01*
X0055272Y0270377D01*
X0055216Y0270229D01*
X0055156Y0270083D01*
X0055092Y0269938D01*
X0055024Y0269795D01*
X0054953Y0269653D01*
X0054879Y0269513D01*
X0054801Y0269376D01*
X0054719Y0269240D01*
X0054635Y0269106D01*
X0054546Y0268975D01*
X0054455Y0268846D01*
X0054360Y0268719D01*
X0054263Y0268594D01*
X0054162Y0268472D01*
X0054058Y0268353D01*
X0053951Y0268236D01*
X0053841Y0268122D01*
X0053728Y0268011D01*
X0053613Y0267902D01*
X0053495Y0267797D01*
X0053374Y0267695D01*
X0053251Y0267595D01*
X0053125Y0267499D01*
X0052997Y0267406D01*
X0052867Y0267316D01*
X0052734Y0267230D01*
X0052599Y0267146D01*
X0052463Y0267067D01*
X0052324Y0266990D01*
X0052183Y0266918D01*
X0052041Y0266848D01*
X0051897Y0266783D01*
X0051751Y0266721D01*
X0051604Y0266663D01*
X0051455Y0266608D01*
X0051305Y0266557D01*
X0051154Y0266510D01*
X0051002Y0266467D01*
X0050849Y0266428D01*
X0050694Y0266392D01*
X0050539Y0266361D01*
X0050383Y0266333D01*
X0050227Y0266309D01*
X0050070Y0266289D01*
X0049912Y0266273D01*
X0049755Y0266261D01*
X0049596Y0266253D01*
X0049438Y0266249D01*
X0049280Y0266249D01*
X0049122Y0266253D01*
X0048963Y0266261D01*
X0048806Y0266273D01*
X0048648Y0266289D01*
X0048491Y0266309D01*
X0048335Y0266333D01*
X0048179Y0266361D01*
X0048024Y0266392D01*
X0047869Y0266428D01*
X0047716Y0266467D01*
X0047564Y0266510D01*
X0047413Y0266557D01*
X0047263Y0266608D01*
X0047114Y0266663D01*
X0046967Y0266721D01*
X0046821Y0266783D01*
X0046677Y0266848D01*
X0046535Y0266918D01*
X0046394Y0266990D01*
X0046255Y0267067D01*
X0046119Y0267146D01*
X0045984Y0267230D01*
X0045851Y0267316D01*
X0045721Y0267406D01*
X0045593Y0267499D01*
X0045467Y0267595D01*
X0045344Y0267695D01*
X0045223Y0267797D01*
X0045105Y0267902D01*
X0044990Y0268011D01*
X0044877Y0268122D01*
X0044767Y0268236D01*
X0044660Y0268353D01*
X0044556Y0268472D01*
X0044455Y0268594D01*
X0044358Y0268719D01*
X0044263Y0268846D01*
X0044172Y0268975D01*
X0044083Y0269106D01*
X0043999Y0269240D01*
X0043917Y0269376D01*
X0043839Y0269513D01*
X0043765Y0269653D01*
X0043694Y0269795D01*
X0043626Y0269938D01*
X0043562Y0270083D01*
X0043502Y0270229D01*
X0043446Y0270377D01*
X0043393Y0270526D01*
X0043344Y0270677D01*
X0043299Y0270829D01*
X0043258Y0270982D01*
X0043220Y0271135D01*
X0043187Y0271290D01*
X0043157Y0271446D01*
X0043131Y0271602D01*
X0043110Y0271759D01*
X0043092Y0271916D01*
X0043078Y0272074D01*
X0043068Y0272232D01*
X0043062Y0272390D01*
X0043060Y0272548D01*
D11*
X0050668Y0256005D02*
X0049600Y0254938D01*
X0049600Y0250668D01*
X0050668Y0249600D01*
X0052803Y0249600D01*
X0053870Y0250668D01*
X0053870Y0254938D01*
X0052803Y0256005D01*
X0050668Y0256005D01*
X0056045Y0253870D02*
X0056045Y0249600D01*
X0060316Y0249600D02*
X0060316Y0252803D01*
X0059248Y0253870D01*
X0056045Y0253870D01*
X0062491Y0256005D02*
X0063559Y0256005D01*
X0063559Y0249600D01*
X0064626Y0249600D02*
X0062491Y0249600D01*
X0066788Y0250668D02*
X0067856Y0249600D01*
X0071058Y0249600D01*
X0071058Y0248532D02*
X0069991Y0247465D01*
X0068923Y0247465D01*
X0071058Y0248532D02*
X0071058Y0253870D01*
X0066788Y0253870D02*
X0066788Y0250668D01*
X0079679Y0250668D02*
X0080747Y0249600D01*
X0083949Y0249600D01*
X0083949Y0253870D01*
X0086124Y0252803D02*
X0087192Y0253870D01*
X0090395Y0253870D01*
X0089327Y0251735D02*
X0087192Y0251735D01*
X0086124Y0252803D01*
X0086124Y0249600D02*
X0089327Y0249600D01*
X0090395Y0250668D01*
X0089327Y0251735D01*
X0092570Y0251735D02*
X0096840Y0251735D01*
X0096840Y0252803D01*
X0095773Y0253870D01*
X0093638Y0253870D01*
X0092570Y0252803D01*
X0092570Y0250668D01*
X0093638Y0249600D01*
X0095773Y0249600D01*
X0105461Y0249600D02*
X0109731Y0249600D01*
X0111906Y0249600D02*
X0114042Y0249600D01*
X0112974Y0249600D02*
X0112974Y0256005D01*
X0111906Y0256005D02*
X0114042Y0256005D01*
X0116203Y0256005D02*
X0120474Y0256005D01*
X0118339Y0256005D02*
X0118339Y0249600D01*
X0122649Y0249600D02*
X0122649Y0256005D01*
X0122649Y0252803D02*
X0126919Y0252803D01*
X0129094Y0252803D02*
X0131230Y0252803D01*
X0133365Y0256005D02*
X0129094Y0256005D01*
X0129094Y0249600D01*
X0133365Y0249600D01*
X0135540Y0249600D02*
X0135540Y0256005D01*
X0138743Y0256005D01*
X0139810Y0254938D01*
X0139810Y0252803D01*
X0138743Y0251735D01*
X0135540Y0251735D01*
X0137675Y0251735D02*
X0139810Y0249600D01*
X0148431Y0249600D02*
X0148431Y0256005D01*
X0151634Y0256005D01*
X0152701Y0254938D01*
X0152701Y0252803D01*
X0151634Y0251735D01*
X0148431Y0251735D01*
X0150566Y0251735D02*
X0152701Y0249600D01*
X0154876Y0249600D02*
X0154876Y0253870D01*
X0157012Y0256005D01*
X0159147Y0253870D01*
X0159147Y0249600D01*
X0161322Y0249600D02*
X0161322Y0256005D01*
X0162390Y0252803D02*
X0165592Y0249600D01*
X0167767Y0250668D02*
X0167767Y0251735D01*
X0168835Y0252803D01*
X0170970Y0252803D01*
X0172038Y0251735D01*
X0172038Y0250668D01*
X0170970Y0249600D01*
X0168835Y0249600D01*
X0167767Y0250668D01*
X0168835Y0252803D02*
X0167767Y0253870D01*
X0167767Y0254938D01*
X0168835Y0256005D01*
X0170970Y0256005D01*
X0172038Y0254938D01*
X0172038Y0253870D01*
X0170970Y0252803D01*
X0174213Y0254938D02*
X0175281Y0256005D01*
X0177416Y0256005D01*
X0178483Y0254938D01*
X0178483Y0253870D01*
X0177416Y0252803D01*
X0178483Y0251735D01*
X0178483Y0250668D01*
X0177416Y0249600D01*
X0175281Y0249600D01*
X0174213Y0250668D01*
X0176348Y0252803D02*
X0177416Y0252803D01*
X0180658Y0253870D02*
X0182794Y0256005D01*
X0182794Y0249600D01*
X0184929Y0249600D02*
X0180658Y0249600D01*
X0193549Y0250668D02*
X0194617Y0249600D01*
X0196752Y0249600D01*
X0197820Y0250668D01*
X0197820Y0252803D01*
X0196752Y0253870D01*
X0194617Y0253870D01*
X0193549Y0252803D01*
X0193549Y0250668D01*
X0199995Y0251735D02*
X0202130Y0253870D01*
X0203198Y0253870D01*
X0199995Y0253870D02*
X0199995Y0249600D01*
X0211812Y0249600D02*
X0213947Y0249600D01*
X0212879Y0249600D02*
X0212879Y0253870D01*
X0211812Y0253870D01*
X0212879Y0256005D02*
X0212879Y0257073D01*
X0216109Y0254938D02*
X0216109Y0250668D01*
X0217176Y0249600D01*
X0219311Y0249600D01*
X0220379Y0250668D01*
X0222554Y0250668D02*
X0222554Y0251735D01*
X0223622Y0252803D01*
X0225757Y0252803D01*
X0226824Y0251735D01*
X0226824Y0250668D01*
X0225757Y0249600D01*
X0223622Y0249600D01*
X0222554Y0250668D01*
X0223622Y0252803D02*
X0222554Y0253870D01*
X0222554Y0254938D01*
X0223622Y0256005D01*
X0225757Y0256005D01*
X0226824Y0254938D01*
X0226824Y0253870D01*
X0225757Y0252803D01*
X0229000Y0253870D02*
X0229000Y0254938D01*
X0230067Y0256005D01*
X0232202Y0256005D01*
X0233270Y0254938D01*
X0233270Y0253870D01*
X0232202Y0252803D01*
X0230067Y0252803D01*
X0229000Y0253870D01*
X0230067Y0252803D02*
X0229000Y0251735D01*
X0229000Y0250668D01*
X0230067Y0249600D01*
X0232202Y0249600D01*
X0233270Y0250668D01*
X0233270Y0251735D01*
X0232202Y0252803D01*
X0235445Y0254938D02*
X0236513Y0256005D01*
X0238648Y0256005D01*
X0239715Y0254938D01*
X0235445Y0250668D01*
X0236513Y0249600D01*
X0238648Y0249600D01*
X0239715Y0250668D01*
X0239715Y0254938D01*
X0241891Y0253870D02*
X0244026Y0256005D01*
X0246161Y0253870D01*
X0246161Y0249600D01*
X0246161Y0252803D02*
X0241891Y0252803D01*
X0241891Y0253870D02*
X0241891Y0249600D01*
X0235445Y0250668D02*
X0235445Y0254938D01*
X0236977Y0267115D02*
X0231977Y0267115D01*
X0229477Y0269615D01*
X0226977Y0267115D01*
X0221977Y0267115D01*
X0219477Y0269615D01*
X0216977Y0267115D01*
X0211977Y0267115D01*
X0209477Y0269615D01*
X0209477Y0274615D01*
X0211977Y0277115D01*
X0216977Y0277115D01*
X0219477Y0274615D01*
X0221977Y0277115D01*
X0226977Y0277115D01*
X0229477Y0274615D01*
X0231977Y0277115D01*
X0236977Y0277115D01*
X0239477Y0274615D01*
X0241977Y0277115D01*
X0246977Y0277115D01*
X0249477Y0274615D01*
X0251977Y0277115D01*
X0256977Y0277115D01*
X0259477Y0274615D01*
X0261977Y0277115D01*
X0266977Y0277115D01*
X0269477Y0274615D01*
X0271977Y0277115D01*
X0276977Y0277115D01*
X0279477Y0274615D01*
X0281977Y0277115D01*
X0286977Y0277115D01*
X0289477Y0274615D01*
X0289477Y0269615D01*
X0286977Y0267115D01*
X0281977Y0267115D01*
X0279477Y0269615D01*
X0276977Y0267115D01*
X0271977Y0267115D01*
X0269477Y0269615D01*
X0269477Y0274615D01*
X0269477Y0269615D02*
X0266977Y0267115D01*
X0261977Y0267115D01*
X0259477Y0269615D01*
X0256977Y0267115D01*
X0251977Y0267115D01*
X0249477Y0269615D01*
X0246977Y0267115D01*
X0241977Y0267115D01*
X0239477Y0269615D01*
X0239477Y0274615D01*
X0239477Y0269615D02*
X0236977Y0267115D01*
X0229477Y0269615D02*
X0229477Y0274615D01*
X0219477Y0274615D02*
X0219477Y0269615D01*
X0209477Y0269615D02*
X0206977Y0267115D01*
X0201977Y0267115D01*
X0199477Y0269615D01*
X0196977Y0267115D01*
X0191977Y0267115D01*
X0189477Y0269615D01*
X0186977Y0267115D01*
X0181977Y0267115D01*
X0179477Y0269615D01*
X0179477Y0274615D01*
X0181977Y0277115D01*
X0186977Y0277115D01*
X0189477Y0274615D01*
X0191977Y0277115D01*
X0196977Y0277115D01*
X0199477Y0274615D01*
X0201977Y0277115D01*
X0206977Y0277115D01*
X0209477Y0274615D01*
X0208247Y0282100D02*
X0207179Y0283168D01*
X0208247Y0284235D01*
X0211449Y0284235D01*
X0211449Y0285303D02*
X0211449Y0282100D01*
X0208247Y0282100D01*
X0205004Y0283168D02*
X0203936Y0282100D01*
X0201801Y0282100D01*
X0200733Y0283168D01*
X0205004Y0287438D01*
X0205004Y0283168D01*
X0208247Y0286370D02*
X0210382Y0286370D01*
X0211449Y0285303D01*
X0205004Y0287438D02*
X0203936Y0288505D01*
X0201801Y0288505D01*
X0200733Y0287438D01*
X0200733Y0283168D01*
X0198558Y0283168D02*
X0197491Y0282100D01*
X0195356Y0282100D01*
X0194288Y0283168D01*
X0194288Y0284235D01*
X0195356Y0285303D01*
X0197491Y0285303D01*
X0198558Y0284235D01*
X0198558Y0283168D01*
X0197491Y0285303D02*
X0198558Y0286370D01*
X0198558Y0287438D01*
X0197491Y0288505D01*
X0195356Y0288505D01*
X0194288Y0287438D01*
X0194288Y0286370D01*
X0195356Y0285303D01*
X0192113Y0286370D02*
X0192113Y0287438D01*
X0191045Y0288505D01*
X0188910Y0288505D01*
X0187842Y0287438D01*
X0187842Y0286370D01*
X0188910Y0285303D01*
X0191045Y0285303D01*
X0192113Y0284235D01*
X0192113Y0283168D01*
X0191045Y0282100D01*
X0188910Y0282100D01*
X0187842Y0283168D01*
X0187842Y0284235D01*
X0188910Y0285303D01*
X0191045Y0285303D02*
X0192113Y0286370D01*
X0185667Y0286370D02*
X0182465Y0286370D01*
X0181397Y0285303D01*
X0181397Y0283168D01*
X0182465Y0282100D01*
X0185667Y0282100D01*
X0179235Y0282100D02*
X0177100Y0282100D01*
X0178168Y0282100D02*
X0178168Y0286370D01*
X0177100Y0286370D01*
X0178168Y0288505D02*
X0178168Y0289573D01*
X0176977Y0277115D02*
X0171977Y0277115D01*
X0169477Y0274615D01*
X0166977Y0277115D01*
X0161977Y0277115D01*
X0159477Y0274615D01*
X0156977Y0277115D01*
X0151977Y0277115D01*
X0149477Y0274615D01*
X0149477Y0269615D01*
X0151977Y0267115D01*
X0156977Y0267115D01*
X0159477Y0269615D01*
X0159477Y0274615D01*
X0159477Y0269615D02*
X0161977Y0267115D01*
X0166977Y0267115D01*
X0169477Y0269615D01*
X0169477Y0274615D01*
X0169477Y0269615D02*
X0171977Y0267115D01*
X0176977Y0267115D01*
X0179477Y0269615D01*
X0179477Y0274615D02*
X0176977Y0277115D01*
X0189477Y0274615D02*
X0189477Y0269615D01*
X0199477Y0269615D02*
X0199477Y0274615D01*
X0217176Y0256005D02*
X0216109Y0254938D01*
X0217176Y0256005D02*
X0219311Y0256005D01*
X0220379Y0254938D01*
X0249477Y0269615D02*
X0249477Y0274615D01*
X0259477Y0274615D02*
X0259477Y0269615D01*
X0279477Y0269615D02*
X0279477Y0274615D01*
X0302100Y0253505D02*
X0302100Y0247100D01*
X0306370Y0247100D01*
X0304235Y0250303D02*
X0302100Y0250303D01*
X0302100Y0253505D02*
X0306370Y0253505D01*
X0308545Y0253505D02*
X0312816Y0253505D01*
X0310681Y0253505D02*
X0310681Y0247100D01*
X0314991Y0247100D02*
X0314991Y0253505D01*
X0314991Y0250303D02*
X0319261Y0250303D01*
X0319261Y0253505D02*
X0319261Y0247100D01*
X0165592Y0256005D02*
X0161322Y0251735D01*
X0159147Y0252803D02*
X0154876Y0252803D01*
X0146977Y0267115D02*
X0141977Y0267115D01*
X0139477Y0269615D01*
X0136977Y0267115D01*
X0131977Y0267115D01*
X0129477Y0269615D01*
X0126977Y0267115D01*
X0121977Y0267115D01*
X0119477Y0269615D01*
X0119477Y0274615D01*
X0121977Y0277115D01*
X0126977Y0277115D01*
X0129477Y0274615D01*
X0131977Y0277115D01*
X0136977Y0277115D01*
X0139477Y0274615D01*
X0141977Y0277115D01*
X0146977Y0277115D01*
X0149477Y0274615D01*
X0149477Y0269615D02*
X0146977Y0267115D01*
X0139477Y0269615D02*
X0139477Y0274615D01*
X0129477Y0274615D02*
X0129477Y0269615D01*
X0119477Y0269615D02*
X0116977Y0267115D01*
X0111977Y0267115D01*
X0109477Y0269615D01*
X0106977Y0267115D01*
X0101977Y0267115D01*
X0099477Y0269615D01*
X0096977Y0267115D01*
X0091977Y0267115D01*
X0089477Y0269615D01*
X0089477Y0274615D01*
X0091977Y0277115D01*
X0096977Y0277115D01*
X0099477Y0274615D01*
X0101977Y0277115D01*
X0106977Y0277115D01*
X0109477Y0274615D01*
X0111977Y0277115D01*
X0116977Y0277115D01*
X0119477Y0274615D01*
X0109477Y0274615D02*
X0109477Y0269615D01*
X0099477Y0269615D02*
X0099477Y0274615D01*
X0105461Y0256005D02*
X0105461Y0249600D01*
X0105461Y0252803D02*
X0107596Y0252803D01*
X0109731Y0256005D02*
X0105461Y0256005D01*
X0126919Y0256005D02*
X0126919Y0249600D01*
X0121068Y0220711D02*
X0115730Y0220711D01*
X0120000Y0220711D02*
X0120000Y0217508D01*
X0118932Y0216440D01*
X0115730Y0216440D01*
X0116797Y0214265D02*
X0120000Y0214265D01*
X0120000Y0211062D01*
X0118932Y0209995D01*
X0117865Y0211062D01*
X0117865Y0214265D01*
X0116797Y0214265D02*
X0115730Y0213198D01*
X0115730Y0211062D01*
X0115730Y0207820D02*
X0118932Y0207820D01*
X0120000Y0206752D01*
X0118932Y0205685D01*
X0120000Y0204617D01*
X0118932Y0203549D01*
X0115730Y0203549D01*
X0116797Y0201374D02*
X0117865Y0201374D01*
X0117865Y0197104D01*
X0118932Y0197104D02*
X0116797Y0197104D01*
X0115730Y0198172D01*
X0115730Y0200307D01*
X0116797Y0201374D01*
X0120000Y0200307D02*
X0120000Y0198172D01*
X0118932Y0197104D01*
X0120000Y0194942D02*
X0118932Y0193875D01*
X0114662Y0193875D01*
X0115730Y0194942D02*
X0115730Y0192807D01*
X0116797Y0190632D02*
X0120000Y0190632D01*
X0120000Y0187429D01*
X0118932Y0186361D01*
X0117865Y0187429D01*
X0117865Y0190632D01*
X0116797Y0190632D02*
X0115730Y0189564D01*
X0115730Y0187429D01*
X0116797Y0184186D02*
X0116797Y0182051D01*
X0116797Y0184186D02*
X0118932Y0184186D01*
X0120000Y0183119D01*
X0120000Y0180984D01*
X0118932Y0179916D01*
X0114662Y0179916D01*
X0113595Y0180984D01*
X0113595Y0183119D01*
X0114662Y0184186D01*
X0116797Y0171295D02*
X0120000Y0171295D01*
X0120000Y0168093D01*
X0118932Y0167025D01*
X0117865Y0168093D01*
X0117865Y0171295D01*
X0116797Y0171295D02*
X0115730Y0170228D01*
X0115730Y0168093D01*
X0114662Y0164850D02*
X0116797Y0164850D01*
X0117865Y0163782D01*
X0117865Y0160579D01*
X0120000Y0160579D02*
X0113595Y0160579D01*
X0113595Y0163782D01*
X0114662Y0164850D01*
X0117865Y0162715D02*
X0120000Y0164850D01*
X0118932Y0158404D02*
X0116797Y0158404D01*
X0115730Y0157337D01*
X0115730Y0155202D01*
X0116797Y0154134D01*
X0118932Y0154134D01*
X0120000Y0155202D01*
X0120000Y0157337D01*
X0118932Y0158404D01*
X0120000Y0151959D02*
X0120000Y0147688D01*
X0113595Y0147688D01*
X0116797Y0139068D02*
X0116797Y0134797D01*
X0114662Y0136933D02*
X0118932Y0136933D01*
X0124095Y0136926D02*
X0124095Y0133723D01*
X0130500Y0133723D01*
X0130500Y0136926D01*
X0129432Y0137994D01*
X0128365Y0137994D01*
X0127297Y0136926D01*
X0127297Y0133723D01*
X0125162Y0131548D02*
X0124095Y0130480D01*
X0124095Y0128345D01*
X0125162Y0127278D01*
X0129432Y0127278D01*
X0130500Y0128345D01*
X0130500Y0130480D01*
X0129432Y0131548D01*
X0127297Y0136926D02*
X0126230Y0137994D01*
X0125162Y0137994D01*
X0124095Y0136926D01*
X0134595Y0138020D02*
X0134595Y0141223D01*
X0135662Y0142291D01*
X0137797Y0142291D01*
X0138865Y0141223D01*
X0138865Y0138020D01*
X0141000Y0138020D02*
X0134595Y0138020D01*
X0138865Y0140155D02*
X0141000Y0142291D01*
X0141000Y0144466D02*
X0136730Y0144466D01*
X0134595Y0146601D01*
X0136730Y0148736D01*
X0141000Y0148736D01*
X0141000Y0150911D02*
X0134595Y0150911D01*
X0137797Y0151979D02*
X0141000Y0155182D01*
X0139932Y0157357D02*
X0138865Y0157357D01*
X0137797Y0158424D01*
X0137797Y0160559D01*
X0138865Y0161627D01*
X0139932Y0161627D01*
X0141000Y0160559D01*
X0141000Y0158424D01*
X0139932Y0157357D01*
X0137797Y0158424D02*
X0136730Y0157357D01*
X0135662Y0157357D01*
X0134595Y0158424D01*
X0134595Y0160559D01*
X0135662Y0161627D01*
X0136730Y0161627D01*
X0137797Y0160559D01*
X0135662Y0163802D02*
X0134595Y0164870D01*
X0134595Y0167005D01*
X0135662Y0168073D01*
X0136730Y0168073D01*
X0137797Y0167005D01*
X0138865Y0168073D01*
X0139932Y0168073D01*
X0141000Y0167005D01*
X0141000Y0164870D01*
X0139932Y0163802D01*
X0137797Y0165937D02*
X0137797Y0167005D01*
X0136730Y0170248D02*
X0134595Y0172383D01*
X0141000Y0172383D01*
X0141000Y0170248D02*
X0141000Y0174518D01*
X0145095Y0174538D02*
X0145095Y0176673D01*
X0146162Y0177741D01*
X0150432Y0173470D01*
X0151500Y0174538D01*
X0151500Y0176673D01*
X0150432Y0177741D01*
X0146162Y0177741D01*
X0147230Y0179916D02*
X0145095Y0182051D01*
X0151500Y0182051D01*
X0151500Y0179916D02*
X0151500Y0184186D01*
X0150432Y0186361D02*
X0149365Y0186361D01*
X0148297Y0187429D01*
X0148297Y0189564D01*
X0149365Y0190632D01*
X0150432Y0190632D01*
X0151500Y0189564D01*
X0151500Y0187429D01*
X0150432Y0186361D01*
X0148297Y0187429D02*
X0147230Y0186361D01*
X0146162Y0186361D01*
X0145095Y0187429D01*
X0145095Y0189564D01*
X0146162Y0190632D01*
X0147230Y0190632D01*
X0148297Y0189564D01*
X0145095Y0174538D02*
X0146162Y0173470D01*
X0150432Y0173470D01*
X0151500Y0171295D02*
X0151500Y0167025D01*
X0147230Y0171295D01*
X0146162Y0171295D01*
X0145095Y0170228D01*
X0145095Y0168093D01*
X0146162Y0167025D01*
X0147230Y0158404D02*
X0152568Y0158404D01*
X0153635Y0157337D01*
X0153635Y0156269D01*
X0151500Y0155202D02*
X0150432Y0154134D01*
X0147230Y0154134D01*
X0148297Y0151959D02*
X0149365Y0151959D01*
X0149365Y0147688D01*
X0150432Y0147688D02*
X0148297Y0147688D01*
X0147230Y0148756D01*
X0147230Y0150891D01*
X0148297Y0151959D01*
X0151500Y0150891D02*
X0151500Y0148756D01*
X0150432Y0147688D01*
X0151500Y0145527D02*
X0151500Y0143391D01*
X0151500Y0144459D02*
X0145095Y0144459D01*
X0145095Y0143391D01*
X0147230Y0141216D02*
X0147230Y0138014D01*
X0148297Y0136946D01*
X0149365Y0138014D01*
X0149365Y0140149D01*
X0150432Y0141216D01*
X0151500Y0140149D01*
X0151500Y0136946D01*
X0151500Y0134771D02*
X0148297Y0134771D01*
X0147230Y0133703D01*
X0148297Y0132636D01*
X0151500Y0132636D01*
X0151500Y0130500D02*
X0147230Y0130500D01*
X0147230Y0131568D01*
X0148297Y0132636D01*
X0151500Y0128339D02*
X0151500Y0126203D01*
X0151500Y0127271D02*
X0145095Y0127271D01*
X0145095Y0126203D01*
X0148297Y0124028D02*
X0147230Y0122961D01*
X0147230Y0120826D01*
X0149365Y0120826D02*
X0150432Y0119758D01*
X0151500Y0120826D01*
X0151500Y0124028D01*
X0148297Y0124028D01*
X0149365Y0124028D02*
X0149365Y0120826D01*
X0151500Y0117583D02*
X0145095Y0117583D01*
X0141000Y0116509D02*
X0141000Y0113306D01*
X0139932Y0112238D01*
X0138865Y0113306D01*
X0138865Y0116509D01*
X0137797Y0116509D02*
X0141000Y0116509D01*
X0137797Y0116509D02*
X0136730Y0115441D01*
X0136730Y0113306D01*
X0135662Y0110063D02*
X0139932Y0105793D01*
X0141000Y0106860D01*
X0141000Y0108995D01*
X0139932Y0110063D01*
X0135662Y0110063D01*
X0134595Y0108995D01*
X0134595Y0106860D01*
X0135662Y0105793D01*
X0139932Y0105793D01*
X0139932Y0103618D02*
X0141000Y0102550D01*
X0141000Y0100415D01*
X0139932Y0099347D01*
X0138865Y0099347D01*
X0137797Y0100415D01*
X0137797Y0102550D01*
X0138865Y0103618D01*
X0139932Y0103618D01*
X0137797Y0102550D02*
X0136730Y0103618D01*
X0135662Y0103618D01*
X0134595Y0102550D01*
X0134595Y0100415D01*
X0135662Y0099347D01*
X0136730Y0099347D01*
X0137797Y0100415D01*
X0136730Y0097172D02*
X0137797Y0096104D01*
X0137797Y0093969D01*
X0136730Y0092902D01*
X0135662Y0092902D01*
X0134595Y0093969D01*
X0134595Y0096104D01*
X0135662Y0097172D01*
X0136730Y0097172D01*
X0137797Y0096104D02*
X0138865Y0097172D01*
X0139932Y0097172D01*
X0141000Y0096104D01*
X0141000Y0093969D01*
X0139932Y0092902D01*
X0138865Y0092902D01*
X0137797Y0093969D01*
X0136730Y0090727D02*
X0136730Y0087524D01*
X0137797Y0086456D01*
X0139932Y0086456D01*
X0141000Y0087524D01*
X0141000Y0090727D01*
X0147230Y0091801D02*
X0152568Y0091801D01*
X0153635Y0090733D01*
X0153635Y0089666D01*
X0151500Y0088598D02*
X0151500Y0091801D01*
X0150432Y0093976D02*
X0149365Y0095044D01*
X0149365Y0098246D01*
X0148297Y0098246D02*
X0151500Y0098246D01*
X0151500Y0095044D01*
X0150432Y0093976D01*
X0147230Y0095044D02*
X0147230Y0097179D01*
X0148297Y0098246D01*
X0147230Y0100421D02*
X0147230Y0103624D01*
X0148297Y0104692D01*
X0151500Y0104692D01*
X0151500Y0100421D02*
X0147230Y0100421D01*
X0157595Y0101476D02*
X0158662Y0102543D01*
X0159730Y0102543D01*
X0160797Y0101476D01*
X0161865Y0102543D01*
X0162932Y0102543D01*
X0164000Y0101476D01*
X0164000Y0099341D01*
X0162932Y0098273D01*
X0162932Y0096098D02*
X0164000Y0095030D01*
X0164000Y0092895D01*
X0162932Y0091827D01*
X0158662Y0096098D01*
X0162932Y0096098D01*
X0158662Y0096098D02*
X0157595Y0095030D01*
X0157595Y0092895D01*
X0158662Y0091827D01*
X0162932Y0091827D01*
X0157595Y0089652D02*
X0164000Y0085382D01*
X0164000Y0082139D02*
X0157595Y0082139D01*
X0160797Y0078936D01*
X0160797Y0083207D01*
X0159730Y0076761D02*
X0158662Y0076761D01*
X0157595Y0075694D01*
X0157595Y0073559D01*
X0158662Y0072491D01*
X0159730Y0076761D02*
X0164000Y0072491D01*
X0164000Y0076761D01*
X0161865Y0063870D02*
X0157595Y0063870D01*
X0161865Y0063870D02*
X0164000Y0061735D01*
X0161865Y0059600D01*
X0157595Y0059600D01*
X0151500Y0061735D02*
X0149365Y0059600D01*
X0147230Y0059600D01*
X0145095Y0061735D01*
X0146162Y0063897D02*
X0145095Y0064965D01*
X0145095Y0067100D01*
X0146162Y0068167D01*
X0145095Y0070342D02*
X0147230Y0072478D01*
X0149365Y0072478D01*
X0151500Y0070342D01*
X0150432Y0068167D02*
X0151500Y0067100D01*
X0151500Y0064965D01*
X0150432Y0063897D01*
X0146162Y0063897D01*
X0141000Y0064965D02*
X0139932Y0063897D01*
X0137797Y0063897D01*
X0136730Y0064965D01*
X0136730Y0067100D01*
X0137797Y0068167D01*
X0139932Y0068167D01*
X0141000Y0067100D01*
X0141000Y0064965D01*
X0137797Y0061735D02*
X0137797Y0059600D01*
X0135662Y0060668D02*
X0141000Y0060668D01*
X0135662Y0060668D02*
X0134595Y0061735D01*
X0130500Y0062803D02*
X0130500Y0059600D01*
X0124095Y0059600D01*
X0124095Y0062803D01*
X0125162Y0063870D01*
X0126230Y0063870D01*
X0127297Y0062803D01*
X0127297Y0059600D01*
X0127297Y0062803D02*
X0128365Y0063870D01*
X0129432Y0063870D01*
X0130500Y0062803D01*
X0129432Y0066045D02*
X0128365Y0067113D01*
X0128365Y0070316D01*
X0127297Y0070316D02*
X0130500Y0070316D01*
X0130500Y0067113D01*
X0129432Y0066045D01*
X0126230Y0067113D02*
X0126230Y0069248D01*
X0127297Y0070316D01*
X0127297Y0072491D02*
X0126230Y0073559D01*
X0126230Y0076761D01*
X0128365Y0078936D02*
X0126230Y0082139D01*
X0126230Y0084308D02*
X0126230Y0087510D01*
X0127297Y0088578D01*
X0129432Y0088578D01*
X0130500Y0087510D01*
X0130500Y0084308D01*
X0132635Y0084308D02*
X0126230Y0084308D01*
X0120000Y0082139D02*
X0118932Y0083207D01*
X0116797Y0083207D01*
X0115730Y0082139D01*
X0115730Y0080004D01*
X0116797Y0078936D01*
X0118932Y0078936D01*
X0120000Y0080004D01*
X0120000Y0082139D01*
X0124095Y0078936D02*
X0130500Y0078936D01*
X0128365Y0078936D02*
X0130500Y0082139D01*
X0133527Y0083227D02*
X0134595Y0083227D01*
X0136730Y0083227D02*
X0141000Y0083227D01*
X0141000Y0084294D02*
X0141000Y0082159D01*
X0145095Y0081085D02*
X0145095Y0084288D01*
X0146162Y0085355D01*
X0148297Y0085355D01*
X0149365Y0084288D01*
X0149365Y0081085D01*
X0151500Y0081085D02*
X0145095Y0081085D01*
X0149365Y0083220D02*
X0151500Y0085355D01*
X0150432Y0087530D02*
X0147230Y0087530D01*
X0150432Y0087530D02*
X0151500Y0088598D01*
X0158662Y0098273D02*
X0157595Y0099341D01*
X0157595Y0101476D01*
X0160797Y0101476D02*
X0160797Y0100408D01*
X0164000Y0104718D02*
X0157595Y0108989D01*
X0158662Y0111164D02*
X0157595Y0112232D01*
X0157595Y0114367D01*
X0158662Y0115434D01*
X0159730Y0115434D01*
X0164000Y0111164D01*
X0164000Y0115434D01*
X0162932Y0117609D02*
X0158662Y0121880D01*
X0162932Y0121880D01*
X0164000Y0120812D01*
X0164000Y0118677D01*
X0162932Y0117609D01*
X0158662Y0117609D01*
X0157595Y0118677D01*
X0157595Y0120812D01*
X0158662Y0121880D01*
X0159730Y0124055D02*
X0157595Y0126190D01*
X0164000Y0126190D01*
X0164000Y0124055D02*
X0164000Y0128325D01*
X0162932Y0130500D02*
X0161865Y0130500D01*
X0160797Y0131568D01*
X0160797Y0133703D01*
X0161865Y0134771D01*
X0162932Y0134771D01*
X0164000Y0133703D01*
X0164000Y0131568D01*
X0162932Y0130500D01*
X0160797Y0131568D02*
X0159730Y0130500D01*
X0158662Y0130500D01*
X0157595Y0131568D01*
X0157595Y0133703D01*
X0158662Y0134771D01*
X0159730Y0134771D01*
X0160797Y0133703D01*
X0160797Y0136946D02*
X0160797Y0141216D01*
X0158662Y0143391D02*
X0157595Y0144459D01*
X0157595Y0146594D01*
X0158662Y0147662D01*
X0162932Y0143391D01*
X0164000Y0144459D01*
X0164000Y0146594D01*
X0162932Y0147662D01*
X0158662Y0147662D01*
X0159730Y0149837D02*
X0157595Y0151972D01*
X0164000Y0151972D01*
X0164000Y0149837D02*
X0164000Y0154107D01*
X0162932Y0143391D02*
X0158662Y0143391D01*
X0151500Y0155202D02*
X0151500Y0158404D01*
X0138865Y0150911D02*
X0134595Y0155182D01*
X0137797Y0148736D02*
X0137797Y0144466D01*
X0138865Y0129400D02*
X0141000Y0127264D01*
X0141000Y0126197D01*
X0139932Y0125129D01*
X0138865Y0125129D01*
X0136730Y0127264D01*
X0135662Y0127264D01*
X0134595Y0126197D01*
X0135662Y0125129D01*
X0136730Y0125129D01*
X0141000Y0129400D01*
X0130500Y0120832D02*
X0124095Y0120832D01*
X0124095Y0124035D01*
X0125162Y0125103D01*
X0127297Y0125103D01*
X0128365Y0124035D01*
X0128365Y0120832D01*
X0120000Y0119731D02*
X0120000Y0116529D01*
X0118932Y0115461D01*
X0115730Y0115461D01*
X0114662Y0113286D02*
X0113595Y0112218D01*
X0113595Y0109015D01*
X0120000Y0109015D01*
X0120000Y0112218D01*
X0118932Y0113286D01*
X0114662Y0113286D01*
X0115730Y0119731D02*
X0120000Y0119731D01*
X0118932Y0121906D02*
X0120000Y0122974D01*
X0120000Y0125109D01*
X0118932Y0126177D01*
X0116797Y0126177D01*
X0115730Y0125109D01*
X0115730Y0122974D01*
X0116797Y0121906D01*
X0118932Y0121906D01*
X0127297Y0112212D02*
X0126230Y0111144D01*
X0126230Y0109009D01*
X0127297Y0107941D01*
X0129432Y0107941D01*
X0130500Y0109009D01*
X0130500Y0111144D01*
X0128365Y0112212D02*
X0128365Y0107941D01*
X0127297Y0105766D02*
X0130500Y0105766D01*
X0127297Y0105766D02*
X0126230Y0104698D01*
X0126230Y0101496D01*
X0130500Y0101496D01*
X0130500Y0099321D02*
X0130500Y0096118D01*
X0129432Y0095050D01*
X0128365Y0096118D01*
X0128365Y0099321D01*
X0127297Y0099321D02*
X0130500Y0099321D01*
X0127297Y0099321D02*
X0126230Y0098253D01*
X0126230Y0096118D01*
X0120000Y0098273D02*
X0120000Y0100408D01*
X0120000Y0099341D02*
X0115730Y0099341D01*
X0115730Y0098273D01*
X0113595Y0099341D02*
X0112527Y0099341D01*
X0114662Y0096098D02*
X0116797Y0096098D01*
X0117865Y0095030D01*
X0117865Y0091827D01*
X0120000Y0091827D02*
X0113595Y0091827D01*
X0113595Y0095030D01*
X0114662Y0096098D01*
X0124095Y0091821D02*
X0130500Y0091821D01*
X0130500Y0092888D02*
X0130500Y0090753D01*
X0124095Y0090753D02*
X0124095Y0091821D01*
X0136730Y0083227D02*
X0136730Y0082159D01*
X0130500Y0076761D02*
X0130500Y0073559D01*
X0129432Y0072491D01*
X0127297Y0072491D01*
X0120000Y0072491D02*
X0115730Y0072491D01*
X0115730Y0075694D01*
X0116797Y0076761D01*
X0120000Y0076761D01*
X0120000Y0070316D02*
X0116797Y0070316D01*
X0115730Y0069248D01*
X0115730Y0067113D01*
X0117865Y0067113D02*
X0117865Y0070316D01*
X0120000Y0070316D02*
X0120000Y0067113D01*
X0118932Y0066045D01*
X0117865Y0067113D01*
X0120000Y0063870D02*
X0113595Y0063870D01*
X0113595Y0059600D02*
X0120000Y0063870D01*
X0120000Y0059600D02*
X0113595Y0059600D01*
X0136730Y0070342D02*
X0141000Y0070342D01*
X0138865Y0070342D02*
X0136730Y0072478D01*
X0136730Y0073545D01*
X0112725Y0035776D02*
X0107725Y0035776D01*
X0105225Y0033276D01*
X0102725Y0035776D01*
X0097725Y0035776D01*
X0095225Y0033276D01*
X0092725Y0035776D01*
X0087725Y0035776D01*
X0085225Y0033276D01*
X0085225Y0028276D01*
X0087725Y0025776D01*
X0092725Y0025776D01*
X0095225Y0028276D01*
X0095225Y0033276D01*
X0095225Y0028276D02*
X0097725Y0025776D01*
X0102725Y0025776D01*
X0105225Y0028276D01*
X0105225Y0033276D01*
X0105225Y0028276D02*
X0107725Y0025776D01*
X0112725Y0025776D01*
X0115225Y0028276D01*
X0115225Y0033276D01*
X0112725Y0035776D01*
X0127297Y0112212D02*
X0128365Y0112212D01*
X0145095Y0113312D02*
X0151500Y0113312D01*
X0149365Y0115448D01*
X0151500Y0117583D01*
X0064000Y0134600D02*
X0057595Y0134600D01*
X0057595Y0137803D01*
X0058662Y0138870D01*
X0060797Y0138870D01*
X0061865Y0137803D01*
X0061865Y0134600D01*
X0061865Y0136735D02*
X0064000Y0138870D01*
X0064000Y0141045D02*
X0059730Y0141045D01*
X0057595Y0143181D01*
X0059730Y0145316D01*
X0064000Y0145316D01*
X0064000Y0147491D02*
X0057595Y0147491D01*
X0060797Y0148559D02*
X0064000Y0151761D01*
X0062932Y0153936D02*
X0064000Y0155004D01*
X0064000Y0157139D01*
X0062932Y0158207D01*
X0061865Y0158207D01*
X0060797Y0157139D01*
X0060797Y0155004D01*
X0059730Y0153936D01*
X0058662Y0153936D01*
X0057595Y0155004D01*
X0057595Y0157139D01*
X0058662Y0158207D01*
X0059730Y0158207D01*
X0060797Y0157139D01*
X0060797Y0155004D02*
X0061865Y0153936D01*
X0062932Y0153936D01*
X0057595Y0151761D02*
X0061865Y0147491D01*
X0060797Y0145316D02*
X0060797Y0141045D01*
X0058662Y0160382D02*
X0057595Y0161450D01*
X0057595Y0163585D01*
X0058662Y0164652D01*
X0059730Y0164652D01*
X0060797Y0163585D01*
X0061865Y0164652D01*
X0062932Y0164652D01*
X0064000Y0163585D01*
X0064000Y0161450D01*
X0062932Y0160382D01*
X0060797Y0162517D02*
X0060797Y0163585D01*
X0059730Y0166827D02*
X0057595Y0168963D01*
X0064000Y0168963D01*
X0064000Y0171098D02*
X0064000Y0166827D01*
X0122135Y0218576D02*
X0122135Y0219643D01*
X0121068Y0220711D01*
X0079679Y0250668D02*
X0079679Y0253870D01*
X0254600Y0053505D02*
X0254600Y0047100D01*
X0254600Y0050303D02*
X0258870Y0050303D01*
X0261045Y0052438D02*
X0261045Y0048168D01*
X0262113Y0047100D01*
X0264248Y0047100D01*
X0265316Y0048168D01*
X0265316Y0052438D01*
X0264248Y0053505D01*
X0262113Y0053505D01*
X0261045Y0052438D01*
X0258870Y0053505D02*
X0258870Y0047100D01*
X0267491Y0053505D02*
X0271761Y0053505D01*
X0269626Y0053505D02*
X0269626Y0047100D01*
X0267804Y0035776D02*
X0272804Y0035776D01*
X0275304Y0033276D01*
X0277804Y0035776D01*
X0282804Y0035776D01*
X0285304Y0033276D01*
X0285304Y0028276D01*
X0282804Y0025776D01*
X0277804Y0025776D01*
X0275304Y0028276D01*
X0272804Y0025776D01*
X0267804Y0025776D01*
X0265304Y0028276D01*
X0262804Y0025776D01*
X0257804Y0025776D01*
X0255304Y0028276D01*
X0255304Y0033276D01*
X0257804Y0035776D01*
X0262804Y0035776D01*
X0265304Y0033276D01*
X0267804Y0035776D01*
X0265304Y0033276D02*
X0265304Y0028276D01*
X0275304Y0028276D02*
X0275304Y0033276D01*
D12*
X0274294Y0023330D02*
X0275045Y0022580D01*
X0275045Y0021829D01*
X0274294Y0021078D01*
X0272793Y0021078D01*
X0272042Y0021829D01*
X0272042Y0022580D01*
X0272793Y0023330D01*
X0274294Y0023330D01*
X0274294Y0021078D02*
X0275045Y0020328D01*
X0275045Y0019577D01*
X0274294Y0018826D01*
X0272793Y0018826D01*
X0272042Y0019577D01*
X0272042Y0020328D01*
X0272793Y0021078D01*
X0270441Y0019577D02*
X0269690Y0018826D01*
X0268189Y0018826D01*
X0267438Y0019577D01*
X0267438Y0022580D01*
X0268189Y0023330D01*
X0269690Y0023330D01*
X0270441Y0022580D01*
X0265870Y0023330D02*
X0264369Y0023330D01*
X0265120Y0023330D02*
X0265120Y0018826D01*
X0265870Y0018826D02*
X0264369Y0018826D01*
X0276646Y0021078D02*
X0279649Y0021078D01*
X0281250Y0022580D02*
X0282001Y0023330D01*
X0283502Y0023330D01*
X0284253Y0022580D01*
X0284253Y0021829D01*
X0281250Y0018826D01*
X0284253Y0018826D01*
X0321656Y0152704D02*
X0323908Y0152704D01*
X0324659Y0153454D01*
X0324659Y0156457D01*
X0323908Y0157207D01*
X0321656Y0157207D01*
X0321656Y0152704D01*
X0326260Y0152704D02*
X0329263Y0155706D01*
X0329263Y0156457D01*
X0328512Y0157207D01*
X0327011Y0157207D01*
X0326260Y0156457D01*
X0326260Y0152704D02*
X0329263Y0152704D01*
X0269792Y0184300D02*
X0269792Y0234300D01*
X0241800Y0234300D01*
X0241800Y0184300D01*
X0269792Y0184300D01*
X0270043Y0260165D02*
X0268542Y0260165D01*
X0269293Y0260165D02*
X0269293Y0264669D01*
X0270043Y0264669D02*
X0268542Y0264669D01*
X0271611Y0263918D02*
X0271611Y0260916D01*
X0272362Y0260165D01*
X0273863Y0260165D01*
X0274614Y0260916D01*
X0276215Y0260916D02*
X0276215Y0261666D01*
X0276966Y0262417D01*
X0278467Y0262417D01*
X0279218Y0261666D01*
X0279218Y0260916D01*
X0278467Y0260165D01*
X0276966Y0260165D01*
X0276215Y0260916D01*
X0276966Y0262417D02*
X0276215Y0263168D01*
X0276215Y0263918D01*
X0276966Y0264669D01*
X0278467Y0264669D01*
X0279218Y0263918D01*
X0279218Y0263168D01*
X0278467Y0262417D01*
X0280819Y0262417D02*
X0283822Y0262417D01*
X0285423Y0263168D02*
X0286924Y0264669D01*
X0286924Y0260165D01*
X0285423Y0260165D02*
X0288426Y0260165D01*
X0274614Y0263918D02*
X0273863Y0264669D01*
X0272362Y0264669D01*
X0271611Y0263918D01*
X0113423Y0023330D02*
X0114174Y0022580D01*
X0114174Y0021829D01*
X0113423Y0021078D01*
X0114174Y0020328D01*
X0114174Y0019577D01*
X0113423Y0018826D01*
X0111922Y0018826D01*
X0111171Y0019577D01*
X0112673Y0021078D02*
X0113423Y0021078D01*
X0113423Y0023330D02*
X0111922Y0023330D01*
X0111171Y0022580D01*
X0109570Y0021078D02*
X0106567Y0021078D01*
X0104966Y0020328D02*
X0104966Y0019577D01*
X0104215Y0018826D01*
X0102714Y0018826D01*
X0101963Y0019577D01*
X0101963Y0020328D01*
X0102714Y0021078D01*
X0104215Y0021078D01*
X0104966Y0020328D01*
X0104215Y0021078D02*
X0104966Y0021829D01*
X0104966Y0022580D01*
X0104215Y0023330D01*
X0102714Y0023330D01*
X0101963Y0022580D01*
X0101963Y0021829D01*
X0102714Y0021078D01*
X0100362Y0019577D02*
X0099611Y0018826D01*
X0098110Y0018826D01*
X0097359Y0019577D01*
X0097359Y0022580D01*
X0098110Y0023330D01*
X0099611Y0023330D01*
X0100362Y0022580D01*
X0095791Y0023330D02*
X0094290Y0023330D01*
X0095041Y0023330D02*
X0095041Y0018826D01*
X0095791Y0018826D02*
X0094290Y0018826D01*
D13*
X0327076Y0146800D02*
X0331997Y0144044D01*
X0331997Y0149556D01*
X0327076Y0146800D01*
D14*
X0326879Y0146800D03*
D15*
X0292173Y0123337D02*
X0291406Y0124104D01*
X0289871Y0124104D01*
X0289104Y0123337D01*
X0287569Y0123337D02*
X0286802Y0124104D01*
X0285267Y0124104D01*
X0284500Y0123337D01*
X0284500Y0120267D01*
X0285267Y0119500D01*
X0286802Y0119500D01*
X0287569Y0120267D01*
X0289104Y0119500D02*
X0292173Y0122569D01*
X0292173Y0123337D01*
X0292173Y0119500D02*
X0289104Y0119500D01*
X0289871Y0109104D02*
X0291406Y0109104D01*
X0292173Y0108337D01*
X0289104Y0105267D01*
X0289871Y0104500D01*
X0291406Y0104500D01*
X0292173Y0105267D01*
X0292173Y0108337D01*
X0293708Y0108337D02*
X0294475Y0109104D01*
X0296010Y0109104D01*
X0296777Y0108337D01*
X0293708Y0105267D01*
X0294475Y0104500D01*
X0296010Y0104500D01*
X0296777Y0105267D01*
X0296777Y0108337D01*
X0298312Y0107569D02*
X0300614Y0107569D01*
X0301381Y0106802D01*
X0301381Y0104500D01*
X0302916Y0104500D02*
X0302916Y0109104D01*
X0305985Y0109104D01*
X0304450Y0106802D02*
X0302916Y0106802D01*
X0298312Y0107569D02*
X0298312Y0104500D01*
X0293708Y0105267D02*
X0293708Y0108337D01*
X0289871Y0109104D02*
X0289104Y0108337D01*
X0289104Y0105267D01*
X0287569Y0104500D02*
X0284500Y0104500D01*
X0286035Y0104500D02*
X0286035Y0109104D01*
X0284500Y0107569D01*
X0281600Y0134500D02*
X0281600Y0137569D01*
X0281600Y0136035D02*
X0276996Y0136035D01*
X0278531Y0134500D01*
X0277763Y0139104D02*
X0276996Y0139871D01*
X0276996Y0141406D01*
X0277763Y0142173D01*
X0280833Y0139104D01*
X0281600Y0139871D01*
X0281600Y0141406D01*
X0280833Y0142173D01*
X0277763Y0142173D01*
X0277763Y0143708D02*
X0276996Y0144475D01*
X0276996Y0146010D01*
X0277763Y0146777D01*
X0280833Y0143708D01*
X0281600Y0144475D01*
X0281600Y0146010D01*
X0280833Y0146777D01*
X0277763Y0146777D01*
X0277763Y0148312D02*
X0276996Y0149079D01*
X0276996Y0150614D01*
X0277763Y0151381D01*
X0280833Y0148312D01*
X0281600Y0149079D01*
X0281600Y0150614D01*
X0280833Y0151381D01*
X0277763Y0151381D01*
X0278531Y0152916D02*
X0278531Y0155218D01*
X0279298Y0155985D01*
X0280833Y0155985D01*
X0281600Y0155218D01*
X0281600Y0152916D01*
X0283135Y0152916D02*
X0278531Y0152916D01*
X0277763Y0148312D02*
X0280833Y0148312D01*
X0280833Y0143708D02*
X0277763Y0143708D01*
X0277763Y0139104D02*
X0280833Y0139104D01*
X0266600Y0139871D02*
X0266600Y0141406D01*
X0265833Y0142173D01*
X0262763Y0142173D01*
X0261996Y0141406D01*
X0261996Y0139871D01*
X0262763Y0139104D01*
X0263531Y0139104D01*
X0264298Y0139871D01*
X0264298Y0142173D01*
X0266600Y0139871D02*
X0265833Y0139104D01*
X0265833Y0137569D02*
X0266600Y0136802D01*
X0266600Y0135267D01*
X0265833Y0134500D01*
X0262763Y0134500D01*
X0261996Y0135267D01*
X0261996Y0136802D01*
X0262763Y0137569D01*
X0246600Y0137594D02*
X0245833Y0138361D01*
X0246600Y0137594D02*
X0246600Y0136059D01*
X0245833Y0135292D01*
X0242763Y0135292D01*
X0241996Y0136059D01*
X0241996Y0137594D01*
X0242763Y0138361D01*
X0241996Y0139896D02*
X0241996Y0142965D01*
X0242763Y0142965D01*
X0245833Y0139896D01*
X0246600Y0139896D01*
X0231600Y0139896D02*
X0226996Y0139896D01*
X0226996Y0142965D01*
X0229298Y0141431D02*
X0229298Y0139896D01*
X0228531Y0138361D02*
X0231600Y0138361D01*
X0231600Y0136059D01*
X0230833Y0135292D01*
X0228531Y0135292D01*
X0231600Y0133757D02*
X0231600Y0130688D01*
X0231600Y0132223D02*
X0226996Y0132223D01*
X0228531Y0130688D01*
X0227763Y0129154D02*
X0226996Y0128386D01*
X0226996Y0126852D01*
X0227763Y0126084D01*
X0230833Y0126084D01*
X0227763Y0129154D01*
X0230833Y0129154D01*
X0231600Y0128386D01*
X0231600Y0126852D01*
X0230833Y0126084D01*
X0230833Y0124550D02*
X0231600Y0124550D01*
X0231600Y0123782D01*
X0230833Y0123782D01*
X0230833Y0124550D01*
X0230833Y0122248D02*
X0231600Y0121480D01*
X0231600Y0119946D01*
X0230833Y0119178D01*
X0227763Y0122248D01*
X0230833Y0122248D01*
X0227763Y0122248D02*
X0226996Y0121480D01*
X0226996Y0119946D01*
X0227763Y0119178D01*
X0230833Y0119178D01*
X0230833Y0149178D02*
X0227763Y0152248D01*
X0230833Y0152248D01*
X0231600Y0151480D01*
X0231600Y0149946D01*
X0230833Y0149178D01*
X0227763Y0149178D01*
X0226996Y0149946D01*
X0226996Y0151480D01*
X0227763Y0152248D01*
X0230833Y0153782D02*
X0230833Y0154550D01*
X0231600Y0154550D01*
X0231600Y0153782D01*
X0230833Y0153782D01*
X0230833Y0156084D02*
X0227763Y0159154D01*
X0230833Y0159154D01*
X0231600Y0158386D01*
X0231600Y0156852D01*
X0230833Y0156084D01*
X0227763Y0156084D01*
X0226996Y0156852D01*
X0226996Y0158386D01*
X0227763Y0159154D01*
X0228531Y0160688D02*
X0226996Y0162223D01*
X0231600Y0162223D01*
X0231600Y0163757D02*
X0231600Y0160688D01*
X0230833Y0165292D02*
X0231600Y0166059D01*
X0231600Y0168361D01*
X0228531Y0168361D01*
X0229298Y0169896D02*
X0229298Y0171431D01*
X0226996Y0169896D02*
X0226996Y0172965D01*
X0226996Y0169896D02*
X0231600Y0169896D01*
X0230833Y0165292D02*
X0228531Y0165292D01*
X0241996Y0166827D02*
X0246600Y0166827D01*
X0246600Y0168361D02*
X0246600Y0165292D01*
X0245833Y0163757D02*
X0246600Y0162990D01*
X0246600Y0161456D01*
X0245833Y0160688D01*
X0242763Y0160688D01*
X0241996Y0161456D01*
X0241996Y0162990D01*
X0242763Y0163757D01*
X0243531Y0165292D02*
X0241996Y0166827D01*
X0242763Y0169896D02*
X0241996Y0170663D01*
X0241996Y0172198D01*
X0242763Y0172965D01*
X0245833Y0169896D01*
X0246600Y0170663D01*
X0246600Y0172198D01*
X0245833Y0172965D01*
X0242763Y0172965D01*
X0242763Y0169896D02*
X0245833Y0169896D01*
X0261996Y0169302D02*
X0262763Y0170069D01*
X0264298Y0170069D01*
X0265065Y0169302D01*
X0265065Y0167000D01*
X0265065Y0168535D02*
X0266600Y0170069D01*
X0266600Y0171604D02*
X0263531Y0174673D01*
X0262763Y0174673D01*
X0261996Y0173906D01*
X0261996Y0172371D01*
X0262763Y0171604D01*
X0261996Y0169302D02*
X0261996Y0167000D01*
X0266600Y0167000D01*
X0266600Y0171604D02*
X0266600Y0174673D01*
X0265931Y0184117D02*
X0261327Y0184117D01*
X0261327Y0186419D01*
X0262094Y0187187D01*
X0263629Y0187187D01*
X0264396Y0186419D01*
X0264396Y0184117D01*
X0265163Y0188721D02*
X0262861Y0188721D01*
X0265163Y0188721D02*
X0265931Y0189489D01*
X0265931Y0191791D01*
X0262861Y0191791D01*
X0261327Y0193325D02*
X0261327Y0194092D01*
X0265931Y0194092D01*
X0265931Y0193325D02*
X0265931Y0194860D01*
X0265931Y0196394D02*
X0265931Y0198696D01*
X0265163Y0199464D01*
X0264396Y0198696D01*
X0264396Y0197162D01*
X0263629Y0196394D01*
X0262861Y0197162D01*
X0262861Y0199464D01*
X0263629Y0200998D02*
X0262861Y0201766D01*
X0262861Y0203300D01*
X0263629Y0204068D01*
X0264396Y0204068D01*
X0264396Y0200998D01*
X0265163Y0200998D02*
X0263629Y0200998D01*
X0265163Y0200998D02*
X0265931Y0201766D01*
X0265931Y0203300D01*
X0259080Y0202420D02*
X0256011Y0205490D01*
X0255244Y0205490D01*
X0254476Y0204722D01*
X0254476Y0203188D01*
X0255244Y0202420D01*
X0255244Y0200886D02*
X0258313Y0197817D01*
X0259080Y0198584D01*
X0259080Y0200118D01*
X0258313Y0200886D01*
X0255244Y0200886D01*
X0254476Y0200118D01*
X0254476Y0198584D01*
X0255244Y0197817D01*
X0258313Y0197817D01*
X0259080Y0196282D02*
X0259080Y0193213D01*
X0259080Y0194747D02*
X0254476Y0194747D01*
X0256011Y0193213D01*
X0259080Y0191678D02*
X0259080Y0188609D01*
X0259080Y0190143D02*
X0254476Y0190143D01*
X0256011Y0188609D01*
X0256778Y0187074D02*
X0256778Y0184005D01*
X0259080Y0184005D02*
X0254476Y0184005D01*
X0254476Y0187074D02*
X0259080Y0187074D01*
X0259080Y0202420D02*
X0259080Y0205490D01*
X0259080Y0207024D02*
X0254476Y0207024D01*
X0259080Y0210094D01*
X0254476Y0210094D01*
X0254476Y0211628D02*
X0259080Y0211628D01*
X0259080Y0214698D01*
X0248175Y0225959D02*
X0248175Y0229028D01*
X0248175Y0227494D02*
X0243571Y0227494D01*
X0245106Y0225959D01*
X0264496Y0238188D02*
X0264496Y0241257D01*
X0265263Y0241257D01*
X0268333Y0238188D01*
X0269100Y0238188D01*
X0268333Y0242792D02*
X0269100Y0243559D01*
X0269100Y0245094D01*
X0268333Y0245861D01*
X0266798Y0245861D01*
X0266031Y0245094D01*
X0266031Y0244327D01*
X0266798Y0242792D01*
X0264496Y0242792D01*
X0264496Y0245861D01*
X0264496Y0247396D02*
X0264496Y0249698D01*
X0265263Y0250465D01*
X0266798Y0250465D01*
X0267565Y0249698D01*
X0267565Y0247396D01*
X0267565Y0248931D02*
X0269100Y0250465D01*
X0269100Y0247396D02*
X0264496Y0247396D01*
X0279496Y0248931D02*
X0284100Y0248931D01*
X0284100Y0250465D02*
X0284100Y0247396D01*
X0284100Y0245861D02*
X0282565Y0244327D01*
X0282565Y0245094D02*
X0282565Y0242792D01*
X0284100Y0242792D02*
X0279496Y0242792D01*
X0279496Y0245094D01*
X0280263Y0245861D01*
X0281798Y0245861D01*
X0282565Y0245094D01*
X0281031Y0247396D02*
X0279496Y0248931D01*
X0209100Y0232198D02*
X0209100Y0230663D01*
X0208333Y0229896D01*
X0208333Y0228361D02*
X0209100Y0227594D01*
X0209100Y0226059D01*
X0208333Y0225292D01*
X0205263Y0225292D01*
X0204496Y0226059D01*
X0204496Y0227594D01*
X0205263Y0228361D01*
X0205263Y0229896D02*
X0204496Y0230663D01*
X0204496Y0232198D01*
X0205263Y0232965D01*
X0206031Y0232965D01*
X0206798Y0232198D01*
X0207565Y0232965D01*
X0208333Y0232965D01*
X0209100Y0232198D01*
X0206798Y0232198D02*
X0206798Y0231431D01*
X0194100Y0229896D02*
X0189496Y0229896D01*
X0189496Y0232965D01*
X0191798Y0231431D02*
X0191798Y0229896D01*
X0191798Y0228361D02*
X0194100Y0228361D01*
X0191798Y0228361D02*
X0191031Y0227594D01*
X0191031Y0225292D01*
X0194100Y0225292D01*
X0193333Y0223757D02*
X0194100Y0222990D01*
X0194100Y0221455D01*
X0193333Y0220688D01*
X0190263Y0223757D01*
X0193333Y0223757D01*
X0193333Y0220688D02*
X0190263Y0220688D01*
X0189496Y0221455D01*
X0189496Y0222990D01*
X0190263Y0223757D01*
X0190263Y0219154D02*
X0193333Y0216084D01*
X0194100Y0216852D01*
X0194100Y0218386D01*
X0193333Y0219154D01*
X0190263Y0219154D01*
X0189496Y0218386D01*
X0189496Y0216852D01*
X0190263Y0216084D01*
X0193333Y0216084D01*
X0194100Y0214550D02*
X0194100Y0211480D01*
X0194100Y0213015D02*
X0189496Y0213015D01*
X0191031Y0211480D01*
X0276996Y0178510D02*
X0277763Y0179277D01*
X0279298Y0179277D01*
X0280065Y0178510D01*
X0280065Y0176208D01*
X0280065Y0177742D02*
X0281600Y0179277D01*
X0281600Y0176703D02*
X0278531Y0178237D01*
X0276996Y0178510D02*
X0276996Y0176208D01*
X0281600Y0176208D01*
X0281600Y0176703D02*
X0278531Y0175168D01*
X0279298Y0174673D02*
X0278531Y0173906D01*
X0278531Y0173139D01*
X0279298Y0171604D01*
X0276996Y0171604D01*
X0276996Y0174673D01*
X0278531Y0173633D02*
X0280065Y0171331D01*
X0281600Y0173633D01*
X0281600Y0173906D02*
X0281600Y0172371D01*
X0280833Y0171604D01*
X0281600Y0171331D02*
X0276996Y0171331D01*
X0276996Y0170069D02*
X0277763Y0170069D01*
X0280833Y0167000D01*
X0281600Y0167000D01*
X0281600Y0166727D02*
X0278531Y0169797D01*
X0277763Y0169797D01*
X0276996Y0169029D01*
X0276996Y0167495D01*
X0277763Y0166727D01*
X0276996Y0167000D02*
X0276996Y0170069D01*
X0281600Y0169797D02*
X0281600Y0166727D01*
X0281600Y0173906D02*
X0280833Y0174673D01*
X0279298Y0174673D01*
X0276996Y0160589D02*
X0276996Y0157520D01*
X0281600Y0157520D01*
X0279298Y0157520D02*
X0279298Y0159054D01*
X0229100Y0088881D02*
X0227565Y0087346D01*
X0227565Y0088114D02*
X0227565Y0085812D01*
X0229100Y0085812D02*
X0224496Y0085812D01*
X0224496Y0088114D01*
X0225263Y0088881D01*
X0226798Y0088881D01*
X0227565Y0088114D01*
X0228333Y0084277D02*
X0225263Y0084277D01*
X0228333Y0081208D01*
X0229100Y0081975D01*
X0229100Y0083510D01*
X0228333Y0084277D01*
X0228333Y0081208D02*
X0225263Y0081208D01*
X0224496Y0081975D01*
X0224496Y0083510D01*
X0225263Y0084277D01*
X0225263Y0079673D02*
X0226031Y0079673D01*
X0226798Y0078906D01*
X0227565Y0079673D01*
X0228333Y0079673D01*
X0229100Y0078906D01*
X0229100Y0077371D01*
X0228333Y0076604D01*
X0228333Y0075069D02*
X0229100Y0074302D01*
X0229100Y0072767D01*
X0228333Y0072000D01*
X0226798Y0073535D02*
X0226798Y0074302D01*
X0227565Y0075069D01*
X0228333Y0075069D01*
X0226798Y0074302D02*
X0226031Y0075069D01*
X0225263Y0075069D01*
X0224496Y0074302D01*
X0224496Y0072767D01*
X0225263Y0072000D01*
X0225263Y0076604D02*
X0224496Y0077371D01*
X0224496Y0078906D01*
X0225263Y0079673D01*
X0226798Y0078906D02*
X0226798Y0078139D01*
X0214100Y0078906D02*
X0209496Y0078906D01*
X0211798Y0076604D01*
X0211798Y0079673D01*
X0211798Y0075069D02*
X0212565Y0074302D01*
X0212565Y0072000D01*
X0211798Y0071381D02*
X0212565Y0070614D01*
X0212565Y0068312D01*
X0212565Y0069846D02*
X0214100Y0071381D01*
X0214100Y0072000D02*
X0209496Y0072000D01*
X0209496Y0074302D01*
X0210263Y0075069D01*
X0211798Y0075069D01*
X0212565Y0073535D02*
X0214100Y0075069D01*
X0211798Y0071381D02*
X0210263Y0071381D01*
X0209496Y0070614D01*
X0209496Y0068312D01*
X0214100Y0068312D01*
X0213333Y0066777D02*
X0210263Y0066777D01*
X0213333Y0063708D01*
X0214100Y0064475D01*
X0214100Y0066010D01*
X0213333Y0066777D01*
X0213333Y0063708D02*
X0210263Y0063708D01*
X0209496Y0064475D01*
X0209496Y0066010D01*
X0210263Y0066777D01*
X0210263Y0062173D02*
X0211031Y0062173D01*
X0211798Y0061406D01*
X0212565Y0062173D01*
X0213333Y0062173D01*
X0214100Y0061406D01*
X0214100Y0059871D01*
X0213333Y0059104D01*
X0213333Y0057569D02*
X0214100Y0056802D01*
X0214100Y0055267D01*
X0213333Y0054500D01*
X0211798Y0056035D02*
X0211798Y0056802D01*
X0212565Y0057569D01*
X0213333Y0057569D01*
X0211798Y0056802D02*
X0211031Y0057569D01*
X0210263Y0057569D01*
X0209496Y0056802D01*
X0209496Y0055267D01*
X0210263Y0054500D01*
X0210263Y0059104D02*
X0209496Y0059871D01*
X0209496Y0061406D01*
X0210263Y0062173D01*
X0211798Y0061406D02*
X0211798Y0060639D01*
X0199100Y0061406D02*
X0199100Y0059871D01*
X0198333Y0059104D01*
X0199100Y0057569D02*
X0197565Y0056035D01*
X0197565Y0056802D02*
X0197565Y0054500D01*
X0199100Y0054500D02*
X0194496Y0054500D01*
X0194496Y0056802D01*
X0195263Y0057569D01*
X0196798Y0057569D01*
X0197565Y0056802D01*
X0195263Y0059104D02*
X0194496Y0059871D01*
X0194496Y0061406D01*
X0195263Y0062173D01*
X0196031Y0062173D01*
X0196798Y0061406D01*
X0197565Y0062173D01*
X0198333Y0062173D01*
X0199100Y0061406D01*
X0196798Y0061406D02*
X0196798Y0060639D01*
X0193490Y0038871D02*
X0190421Y0038871D01*
X0189654Y0038104D01*
X0189654Y0035802D01*
X0194257Y0035802D01*
X0194257Y0038104D01*
X0193490Y0038871D01*
X0191956Y0034267D02*
X0192723Y0033500D01*
X0192723Y0031198D01*
X0194257Y0031198D02*
X0189654Y0031198D01*
X0189654Y0033500D01*
X0190421Y0034267D01*
X0191956Y0034267D01*
X0192723Y0029663D02*
X0193490Y0029663D01*
X0194257Y0028896D01*
X0194257Y0027361D01*
X0193490Y0026594D01*
X0191956Y0027361D02*
X0191956Y0028896D01*
X0192723Y0029663D01*
X0190421Y0029663D02*
X0189654Y0028896D01*
X0189654Y0027361D01*
X0190421Y0026594D01*
X0191188Y0026594D01*
X0191956Y0027361D01*
X0203433Y0026594D02*
X0208037Y0026594D01*
X0208037Y0029663D01*
X0208037Y0031198D02*
X0203433Y0031198D01*
X0203433Y0033500D01*
X0204200Y0034267D01*
X0207270Y0034267D01*
X0208037Y0033500D01*
X0208037Y0031198D01*
X0209654Y0031198D02*
X0214257Y0034267D01*
X0209654Y0034267D01*
X0209654Y0035802D02*
X0214257Y0035802D01*
X0212723Y0035802D02*
X0209654Y0038871D01*
X0208037Y0038871D02*
X0208037Y0035802D01*
X0204968Y0038871D01*
X0204200Y0038871D01*
X0203433Y0038104D01*
X0203433Y0036569D01*
X0204200Y0035802D01*
X0203433Y0029663D02*
X0203433Y0026594D01*
X0205735Y0026594D02*
X0205735Y0028128D01*
X0208037Y0025059D02*
X0208037Y0021990D01*
X0203433Y0021990D01*
X0209654Y0026594D02*
X0214257Y0026594D01*
X0214257Y0029663D01*
X0214257Y0031198D02*
X0209654Y0031198D01*
X0211956Y0036569D02*
X0214257Y0038871D01*
X0223433Y0037336D02*
X0224968Y0035802D01*
X0224200Y0034267D02*
X0223433Y0033500D01*
X0223433Y0031198D01*
X0228037Y0031198D01*
X0228037Y0033500D01*
X0227270Y0034267D01*
X0224200Y0034267D01*
X0223433Y0037336D02*
X0228037Y0037336D01*
X0228037Y0035802D02*
X0228037Y0038871D01*
X0228037Y0029663D02*
X0228037Y0026594D01*
X0223433Y0026594D01*
X0223433Y0029663D01*
X0225735Y0028128D02*
X0225735Y0026594D01*
X0228037Y0025059D02*
X0228037Y0021990D01*
X0223433Y0021990D01*
X0294500Y0027767D02*
X0295267Y0027000D01*
X0296802Y0027000D01*
X0297569Y0027767D01*
X0299104Y0029302D02*
X0302173Y0029302D01*
X0301406Y0027000D02*
X0301406Y0031604D01*
X0299104Y0029302D01*
X0297569Y0030837D02*
X0296802Y0031604D01*
X0295267Y0031604D01*
X0294500Y0030837D01*
X0294500Y0027767D01*
X0296035Y0016604D02*
X0296035Y0012000D01*
X0297569Y0012000D02*
X0294500Y0012000D01*
X0294500Y0015069D02*
X0296035Y0016604D01*
X0299104Y0015837D02*
X0299104Y0012767D01*
X0302173Y0015837D01*
X0302173Y0012767D01*
X0301406Y0012000D01*
X0299871Y0012000D01*
X0299104Y0012767D01*
X0299104Y0015837D02*
X0299871Y0016604D01*
X0301406Y0016604D01*
X0302173Y0015837D01*
X0303708Y0015837D02*
X0304475Y0016604D01*
X0306010Y0016604D01*
X0306777Y0015837D01*
X0303708Y0012767D01*
X0304475Y0012000D01*
X0306010Y0012000D01*
X0306777Y0012767D01*
X0306777Y0015837D01*
X0308312Y0015069D02*
X0310614Y0015069D01*
X0311381Y0014302D01*
X0311381Y0012000D01*
X0312916Y0012000D02*
X0312916Y0016604D01*
X0315985Y0016604D01*
X0314450Y0014302D02*
X0312916Y0014302D01*
X0308312Y0015069D02*
X0308312Y0012000D01*
X0303708Y0012767D02*
X0303708Y0015837D01*
X0067965Y0200267D02*
X0067198Y0199500D01*
X0065663Y0199500D01*
X0064896Y0200267D01*
X0063361Y0200267D02*
X0062594Y0199500D01*
X0061059Y0199500D01*
X0060292Y0200267D01*
X0060292Y0203337D01*
X0061059Y0204104D01*
X0062594Y0204104D01*
X0063361Y0203337D01*
X0064896Y0204104D02*
X0064896Y0201802D01*
X0066431Y0202569D01*
X0067198Y0202569D01*
X0067965Y0201802D01*
X0067965Y0200267D01*
X0067965Y0204104D02*
X0064896Y0204104D01*
X0064896Y0214500D02*
X0064896Y0219104D01*
X0067965Y0219104D01*
X0066431Y0216802D02*
X0064896Y0216802D01*
X0063361Y0216802D02*
X0063361Y0214500D01*
X0063361Y0216802D02*
X0062594Y0217569D01*
X0060292Y0217569D01*
X0060292Y0214500D01*
X0058757Y0215267D02*
X0058757Y0218337D01*
X0055688Y0215267D01*
X0056455Y0214500D01*
X0057990Y0214500D01*
X0058757Y0215267D01*
X0055688Y0215267D02*
X0055688Y0218337D01*
X0056455Y0219104D01*
X0057990Y0219104D01*
X0058757Y0218337D01*
X0054154Y0218337D02*
X0054154Y0215267D01*
X0053386Y0214500D01*
X0051852Y0214500D01*
X0051084Y0215267D01*
X0054154Y0218337D01*
X0053386Y0219104D01*
X0051852Y0219104D01*
X0051084Y0218337D01*
X0051084Y0215267D01*
X0049550Y0214500D02*
X0046480Y0214500D01*
X0048015Y0214500D02*
X0048015Y0219104D01*
X0046480Y0217569D01*
X0046569Y0280563D02*
X0045802Y0281330D01*
X0046569Y0280563D02*
X0048104Y0280563D01*
X0048871Y0281330D01*
X0048871Y0282098D01*
X0048104Y0282865D01*
X0047336Y0282865D01*
X0048104Y0282865D02*
X0048871Y0283632D01*
X0048871Y0284400D01*
X0048104Y0285167D01*
X0046569Y0285167D01*
X0045802Y0284400D01*
X0044267Y0284400D02*
X0044267Y0281330D01*
X0043500Y0280563D01*
X0041198Y0280563D01*
X0041198Y0285167D01*
X0043500Y0285167D01*
X0044267Y0284400D01*
X0039663Y0285167D02*
X0036594Y0285167D01*
X0036594Y0280563D01*
X0039663Y0280563D01*
X0038128Y0282865D02*
X0036594Y0282865D01*
X0035059Y0280563D02*
X0031990Y0280563D01*
X0031990Y0285167D01*
X0036594Y0294343D02*
X0036594Y0298946D01*
X0038896Y0298946D01*
X0039663Y0298179D01*
X0039663Y0296644D01*
X0038896Y0295877D01*
X0036594Y0295877D01*
X0041198Y0294343D02*
X0042732Y0295877D01*
X0044267Y0294343D01*
X0044267Y0298946D01*
X0045802Y0298946D02*
X0045802Y0294343D01*
X0045802Y0295877D02*
X0048104Y0295877D01*
X0048871Y0296644D01*
X0048871Y0298179D01*
X0048104Y0298946D01*
X0045802Y0298946D01*
X0047336Y0295877D02*
X0048871Y0294343D01*
X0041198Y0294343D02*
X0041198Y0298946D01*
X0067000Y0299104D02*
X0067000Y0294500D01*
X0067000Y0296035D02*
X0069302Y0296035D01*
X0070069Y0296802D01*
X0070069Y0298337D01*
X0069302Y0299104D01*
X0067000Y0299104D01*
X0068535Y0296035D02*
X0070069Y0294500D01*
X0071604Y0295267D02*
X0072371Y0294500D01*
X0073906Y0294500D01*
X0074673Y0295267D01*
X0074673Y0296802D01*
X0073906Y0297569D01*
X0073139Y0297569D01*
X0071604Y0296802D01*
X0071604Y0299104D01*
X0074673Y0299104D01*
X0074673Y0284104D02*
X0071604Y0281035D01*
X0072371Y0281802D02*
X0074673Y0279500D01*
X0071604Y0279500D02*
X0071604Y0284104D01*
X0068535Y0284104D02*
X0068535Y0279500D01*
X0070069Y0279500D02*
X0067000Y0279500D01*
X0067000Y0282569D02*
X0068535Y0284104D01*
D16*
X0241721Y0097587D02*
X0241721Y0065304D01*
X0241721Y0097587D02*
X0246052Y0097587D01*
X0277942Y0097587D02*
X0281879Y0097587D01*
X0281879Y0065304D01*
D17*
X0283647Y0089784D02*
X0286400Y0089784D01*
X0286950Y0090334D01*
X0286950Y0091435D01*
X0286400Y0091986D01*
X0283647Y0091986D01*
X0284748Y0093467D02*
X0283647Y0094568D01*
X0286950Y0094568D01*
X0286950Y0093467D02*
X0286950Y0095669D01*
D18*
X0239850Y0095938D02*
X0236948Y0094003D01*
X0236948Y0092992D02*
X0239850Y0091057D01*
X0239366Y0090045D02*
X0239850Y0089562D01*
X0239850Y0088594D01*
X0239366Y0088110D01*
X0237431Y0090045D01*
X0239366Y0090045D01*
X0239366Y0088110D02*
X0237431Y0088110D01*
X0236948Y0088594D01*
X0236948Y0089562D01*
X0237431Y0090045D01*
X0236948Y0091057D02*
X0239850Y0092992D01*
X0239850Y0094003D02*
X0236948Y0095938D01*
X0237431Y0087099D02*
X0236948Y0086615D01*
X0236948Y0085164D01*
X0239850Y0085164D01*
X0239850Y0086615D01*
X0239366Y0087099D01*
X0237431Y0087099D01*
X0237431Y0084152D02*
X0236948Y0083669D01*
X0236948Y0082217D01*
X0239850Y0082217D01*
X0239850Y0083669D01*
X0239366Y0084152D01*
X0237431Y0084152D01*
X0236948Y0081206D02*
X0239850Y0079271D01*
X0239850Y0078259D02*
X0236948Y0076324D01*
X0237915Y0075313D02*
X0239850Y0075313D01*
X0239850Y0076324D02*
X0236948Y0078259D01*
X0236948Y0079271D02*
X0239850Y0081206D01*
X0238399Y0075313D02*
X0238399Y0073378D01*
X0237915Y0073378D02*
X0239850Y0073378D01*
X0239366Y0072366D02*
X0239850Y0071883D01*
X0239850Y0070431D01*
X0236948Y0070431D01*
X0236948Y0071883D01*
X0237431Y0072366D01*
X0237915Y0072366D01*
X0238399Y0071883D01*
X0238399Y0070431D01*
X0238399Y0071883D02*
X0238883Y0072366D01*
X0239366Y0072366D01*
X0237915Y0073378D02*
X0236948Y0074345D01*
X0237915Y0075313D01*
X0222035Y0104111D02*
X0219566Y0104111D01*
X0220800Y0104111D02*
X0220800Y0107815D01*
X0219566Y0106580D01*
X0218352Y0107197D02*
X0217734Y0107815D01*
X0216500Y0107815D01*
X0215883Y0107197D01*
X0215883Y0104729D01*
X0216500Y0104111D01*
X0217734Y0104111D01*
X0218352Y0104729D01*
X0218352Y0115824D02*
X0218352Y0118293D01*
X0219566Y0117676D02*
X0220800Y0117676D01*
X0219566Y0119527D02*
X0222035Y0119527D01*
X0219566Y0119527D02*
X0219566Y0115824D01*
X0218352Y0115824D02*
X0216500Y0115824D01*
X0215883Y0116441D01*
X0215883Y0118293D01*
X0214669Y0118293D02*
X0214051Y0117676D01*
X0214669Y0117058D01*
X0214669Y0116441D01*
X0214051Y0115824D01*
X0212817Y0115824D01*
X0212200Y0116441D01*
X0210985Y0116441D02*
X0210368Y0115824D01*
X0209134Y0115824D01*
X0208517Y0116441D01*
X0209751Y0117676D02*
X0210368Y0117676D01*
X0210985Y0117058D01*
X0210985Y0116441D01*
X0210368Y0117676D02*
X0210985Y0118293D01*
X0210985Y0118910D01*
X0210368Y0119527D01*
X0209134Y0119527D01*
X0208517Y0118910D01*
X0212200Y0118910D02*
X0212817Y0119527D01*
X0214051Y0119527D01*
X0214669Y0118910D01*
X0214669Y0118293D01*
X0214051Y0117676D02*
X0213434Y0117676D01*
D19*
X0221367Y0037154D03*
X0201367Y0037154D03*
X0047154Y0287233D03*
D20*
X0044300Y0289300D03*
X0199300Y0034300D03*
X0219300Y0034300D03*
M02*
